<mxfile host="65bd71144e">
    <diagram id="Za5jX2KpgTB9SNQ5zkrf" name="Page-1">
        <mxGraphModel dx="746" dy="308" grid="1" gridSize="10" guides="1" tooltips="1" connect="1" arrows="1" fold="1" page="1" pageScale="1" pageWidth="850" pageHeight="1100" math="0" shadow="0">
            <root>
                <mxCell id="0"/>
                <mxCell id="1" parent="0"/>
                <mxCell id="2" value="" style="shape=image;verticalLabelPosition=bottom;labelBackgroundColor=default;verticalAlign=top;aspect=fixed;imageAspect=0;image=data:image/jpeg,/9j/4AAQSkZJRgABAQAAAQABAAD/2wCEAAYGBgYHBgcICAcKCwoLCg8ODAwODxYQERAREBYiFRkVFRkVIh4kHhweJB42KiYmKjY+NDI0PkxERExfWl98fKcBBgYGBgcGBwgIBwoLCgsKDw4MDA4PFhAREBEQFiIVGRUVGRUiHiQeHB4kHjYqJiYqNj40MjQ+TERETF9aX3x8p//CABEIA5gGJAMBIgACEQEDEQH/xAAuAAADAQEBAAAAAAAAAAAAAAAAAQIDBAUBAQEBAQAAAAAAAAAAAAAAAAABAgP/2gAMAwEAAhADEAAAAvUGSoAAAAFNSmiYoASAlASiaqLi0AFJqRXFomhSahLAABZASgFACLi0AFaAmppABSLhKYAAqTSU0K00Rc0jQKJpFeeigAouEsTUAJYJSYqAJuLQAUi800AABUmigBDRFxaIAIuCmmAwUaQWAAJYuLQAAAi40EMJz1zG2AAEXmaNMAFkBKAUTEzuNAAAETpnoACkXCUAMQOXBqJgAsuWlJpWARUWjacomkm5oAAi4qxME0EXmaiBgQAUAAMVKgkpETWabEBZnmu5DTQzDRQCvKjQyzXoUyl1lRooRpCk1cIt5hRAakBZAF5WUS1aEivOxiYRcFghgCmoNAAAJqLABRNJNxasQEXmmgCgAgEoBRNE3FoAKZ6ZpoANNKpqSwYJoz0i0kpKpuEppqABFwlgKJhncWgDVAE3FoAKZ6QjGCYKs9c00AAAkVDAAAi4sAATRN56DACLzLAE0wi4NAAaCQYwYhoi4sYAACqLAFDi86tpgALPSCwBgAAMAAFAAASJtDz05Jsroa52ncUJFICKwmXaY3VpxcupoCIl1i8rnUVCGiWAyhZVBnU0cvTh1TUFq5ilaSrCFpALQM3YZzrAGgZmgZMsg0DM0RnSFDQTON8wNAzNAzdAKwgtGdLQgoJjWChgJoJqSxIsgJ0yspSFZuTRyFJA4qTRORiZnc2JUyVYZ0WZrVETrIlozJasynaANAzWqMbdELQMzQMLNDI1DNaIzp2QWETtAiwgtma1gCwgsMymStQyegZN2ZuwgtGdqySwznWROmQtAzjaBlMzdhBYMBQAAAAJTEXL2cc69ZA5tzVmMaPPWd89Lnm2ysz6E0xy2bTjVMwW1zw6sSOrPQaauEJliarHbmmpz12m6y3xuLpq5m4sAAi4LTwV7JxjKyb33yplCkyVk31ZXFxqqVzyaZ9Gel82+Vm+O3Cz1aPlU6eepo2z0uKAQTRGmelCagi4s0AAFKTU1YECarPTPVEAqjTNLBiAVReSbCagIi4tGAomidM7QAUi8zQAABRcJoAoARU0jAUQEXFIwFE0kaRYAK4qEtpgApFwlg1QwhppQAAEXFgAomkm4sGnBFxVNMAIWemdaNEMAAKYEoBQAACTNMmdRcK0RlTaIYIaJqaGIHIh1DKJRUkmhKKcA3DNCAsgC86KIC1KHeNGhAXCRrmxS4C8qk0cBZIKotHFOVoVka52rimGOsloYlWUsb56FAIJqpvPRABVFwmgAALKaSwJRNGemelgAplpmmjTBNKovNNRME0Z6Z6DEwBEaZ2MQPO8zRoGICag0EDEE3nYyQokJvPQBMciCoZRIVJJo4ZSkKkRo4ZRIJoLIDRQxXlZRIUkh1nRZDKkktwyiQedQakhTlFCCwJQEMCgEk1FFAAmiKmhoFE0iqaABSahKaYAKouEtMEAS0ymmomiLi0AFJqUVRYMQTUFjQ0wU0hjFQwilSIoWVSJZSSWGa1zG2yVYsFCIpmbtGdFkFhnO2YywhaBmtESaBmtUY07MnbM42kRbMzQMo2kk0DM1Rja0IjZmZojNuiFoETrAFhBYTOkDLCFojOiyCwgtGdqyShUqSSyiSgmNIKYxDBTcFDBMZDGCoIdIilZJQSUiamxDBTcjKCSgidMjQYAwQwYiViBiYCLIuLGIAETcUAAIQriwBDipKcsYgIqS00AgmpZbQrTRGmdoAKJpJuaUTQRcJYMAFU1KWAomiaz0QaFaAmospDFncJoArEE0mjAlGipuLRoJTPTOzQCAEpLVlAStARcXYASqNMrNARQhVNQliBgGWmegNMcuRXnoCAcXBYAACmoNGgaETeWoxNUAkaZ2MQNORVNDQCm8zQAGgcVBqJgAQ0FiBoCaz0GAomkm4sAAmoLaBoBZ6ZmjTBpgIGAoAACABDVkq5Ec+lWrgz05+shVyHRTqILZnOsiLZmaIidEJaIidZM26E7CC0Z2qJbBJoVxQyQqBGjgLUopJGpCNFmxaZWU4RopQ6zZoQF5uTUgLeYU4ZZAWQDvKizMNMyTYzDRSilKNSAsgC8qLICs3BspZRAVDg0Sg2UMz2w0NDKi5UlXlRalGkKTYhGhmjSFJuZsshC0yo0Mw0MwNMarQzI0UIusqLMw0hSbESambLhSbvMNDMGQGpmyyEGmNmhmGkyiryDUyZcEGzyoszZWVQbOAsgLIDQAAFAABJN56BzdPLW+b0Febjm6+fppcvVzD3w3AFK5cpoJgAqlpLTCVUkVFFtA00K8tRAKS0ivOigFU3CWDBNKpqUsBQAi4tAGqHKK4tQAU1KWCVgE1NIAlYBNxaA1KouLNAATIlVNUqJZVqs7m0koJjSChsSpEzcjKCRoi40AAFUiqbEMFNwUMENCm4LBiGiLiwGAmiNIsBME0KpoABRcFiYABFyU0xoCWmUgAAi4sYAJyK4sEwU1I2mNoFnpmaCYwAAGIVgAACBI0zookLUACZThF8XTzadGmbyolFSQbvOhuRXJKaEsctGVJmgmABnrloNNAnIOaG0xTcFtMAFmNJSgFTQRpnaUJqTUg0xoAi4TRAo0yKljBwAyLi0BpTPTOzRNSgApYlAK00RcXYASrPTOzVAJpkpotDEnJntjsAIcuQuLABSLhNECgApuEppgCJ0zsYAAiLiwEwmoHcUDQGemZbTAAIqDQAABCZQgGgm4sYJWmkm4sE0pNQlOaGALOoNABuWMQUCVghgCASbzsYAAhNUIYRGsiYySgiNYG2GdZbkq5E6CZ0DneW5h0c/YZmgY2aGZoGa1RlVUZmgQtIB0yFoGa0kFYZmiM6WhlfN2EK0Q3RBaJnSRlBJQQ1QmANArihiRUODUgLIBkM0ICyEGmNFkIuFB0GYaEA0kaGYaKAnXGyyAuUirzZRAaZkmxmGhmFJBZIUSCvOxiRQgmlQgYpqQpMAAz0gpgAwmbkoYIYQxg0DQCqaGIGhCuWMQE0htBSQGdwW0wYAMGMVMBDQAkVTYmAIBVNAAKakYmAIM9MyxZE9PndB0QcR6D4u0Q0vB2cnQmes4l9OWIbZM6cIo3rm6QqLASKholYdI9OHuXnw6+Q7hhjfCk6OjHY4+7i7FaEK4oBgouEtoViCai0GiVghVFjQBFZ2agStASCs0QpWhE6Z6UgIUXFmgAAKkSlghiDPXPQABTUjqaE0wioNASsTRJg2mogTPTOxtNRAkaZaAAEXI2mAAZ6ZltA3LCKg0EwAEJjAGgJvOxgKJpFUWACkXCWJgALPTM0aBtMAAAViYIATSTcMolFpId5stSFSkU4ClMmmZJpjozl6gHydKM+rNGqzDLfNlpAxMi40KhgrlFVnRRIOKg0y1BaS1yw7JR0IJpGdzZzdU0CaFU0MQGemZY0DBYqbQAlaAjTPSwAlWeudltOUTRLTRgKhom4uwAlUaZ2aAKhhCYlJghMio0ATCbzLaYACi4LGAmiWmMENoI0zsbQABnpFgAEtDaYAgi4LAAAIuC2mABLTKTQAyKixgAmiLmgYBFwU0wAFlpBoJjExgAAoAAAJyiuLAAE0FTQJiqalGDENCz0gsAE0JMKAAAytUDAEwi40EAE0hUqJKCY1gZQSUyFcgtAzWqMm7M3bInVGbqjMsInWAWgZmgY2WQtGZmiMqdmZbM52zAsMzQMnTINAzNAxp2ZGqM52gDQM1ozEtkzqjJ2jLRaGZozON8wdMhaBmtYBaBmtAzKozNQzNEY26INAzNEZU6IWoZztAi2ZrVGc7SJahk7DOdpEaBBbMnTIWoZU2ZWtDM0DM0Rm6ozdhE6wJ0yC2ZZ75jLCHTILBgKAAAE1KK4oYAJyOpY0CuKhLEwTQpqCwATCRBYAAiaixgAATcWCAcuR1NAAEXmaAA0CTk0AUTSZ6Z6DEwTkKTVDSGekFgABLFxdg0StNE3noCaDPTOzQCVDCKi7G05RNEaZ6WJUpVFxZoBKAGdTVjTQAGeuWoABnpmaADTSkXCWAomklqhgAAsXFoAAARcWAARcFNMABReZo0wAFNSWAMQJoKABMIuLGAIaJqaAaCLgsAYgWeuJqADTAAYCgAABFwkt0Q6CVaEUyC0Srkz0YIMDabkoAEISA0JRZmwqGWQFkA7zZZCNJUl3kzQzZcEmpCLeaNJSNlmGhmDvKi3mGkqTR5sshGkJGpAWQC0yoogLIA0yZoZ5HRBJqSLRITcUlOSWkki0x0qkiUi8rNhErEVFxSMAEBGmWoABneZqJjQlcVCaCYIRNxRQgYgm87GIGJCvOxkhUOS3LGSDioNHLGSwlyaCBiBVLKEDECqLGJghCqLAAIuCmmAAZaZmgmAAxBQCgAABFShSYGGJ2pYHS+XYtc2y3E8yd5zdBlOHaOag0BAJC5Ks2rzvQBoFUWMTAEKosEwScjuKGgUi801EwAJHJY0ABnpnoMASqCnNABKTUWaAQAGdxdCZCTKmpsQyVRpFlDJUqDK5uxKyWForMqLIWgZzrAywhaBjashaozNJIudCSwznWBlMzLCFpAFMhaIytWSWEFozudCSgkoM6VkqwidYApkLQM51zGUyHTM1pAymQWEMYigksM6VklhBaM27MzQM1pAFMhaBlO2Y22Q6ZJQJjUAAAIqUblk8vYxYdEGWtBx9bDPm7szHpjQ4+ubIig0VIU2jn5u4OLu5esEBNRYNMaETpnY0wU1IUmMTUz0zTRyxgEgFJoaYZ3NDc0EXA2mrAhRcWaCJWJkXnpYASiaIuLpiIIvKzUTlaaI0y1sQ1K5aJuLsAUplrlZsmSpgZaZ6WACk1MmeuO1MmpTO87NGgYCqLhLaBpoz0zsoTBAZ6ZaDaATkVxQ3NBnpkaNMABZ6ZlgDcsIuCxAwCWmU0wBE1NDEwBE6Z2MAUXBTTAAWemZbTATGAA0oAAARcIiwgsIWkiLDN2zNaSBYQtAzWiEWGc7IxNESaIhaoxssgtmZoGNmhmaBktZJdhDoInWBlMh0iRgDBMCLmxABNSU0DJY4aLcosgFplRbzC1AO8aNDINchGrzDQzA0xo0Mw0UA6yoszDTMg3eQamaDTn0NDNGs5oW/PoaPJmmZBuoDQyZcEmpCNDMDTCzQyDUzQ7yo0Mw0mZLvGjR5M0zINnkzQyDTMk1M0aVgG0Sk3M0upmFVkzV5BoQiqyoszDVZsNMLNTMLlSamYaEBWbzNnmyzMNCA0AAAAAi4KaYgAi4LEwEwlosAAQpaNEIYglOTQTBNGemdjaBpojTPQYARcFNMAQRcGgA0BLTKAUBE3naMBSKhNCaARK4qLNBEMEs3ndjESsERcXTTIUXnZqBKAGemeljQSktE6ZaWAEpncWaNENCWNMdbGBAmjPXLSmIHneZoAAAouDQHCGjO40oEDEEaZ2MAE5FcWDTCKgtpiYCi8ywBDQgRbQMTJc0UJgAReegNMEBNRoAATUjaYAExpmWAMAABgAAAARcFOAtQFwSaPMNFIXMhoSFEoEQbEMYgcMLEDQGd56DAGmiNM9BgBFwU0wTBRpmaJgAEtMoBRNJnpnoMAUaQUAAAZ6QUxRSBc9M9LACAFU3FjQSmWsWWNSjAz0i7ACVJpM9c9aQ1BlpnWqagAMdYumBCAI0zummh53BbTBBCjTOtWnAmjPTPShMEAReegMAmpCpoAAy1yNQAcsUaZlgAASgLExMCamhiYxBF56DAECFeegAAnJTTAAWWuJqhg5YxBQAAAAGdwW0xABFwUMEMFNSUMEqCJuRrn0NCwgoFl0coZdPIbbDEOzM0RlZZBoGa1gRbMnoGa1kRoGZoGTdEGgZrVGNuiMunzjtnWRGgZmgZzrIloGb0RjTszNUQtUY27MjUM43zGtAzNAxp2ZrUMjVGNmhktkZxvmBYQaBhTszNAzNEY6FmZYROuZSsILCJ0kZQJUjPSNCRgmBnpFgIHLQ6ljEis6k0JCiAuHJoQFkAEhqZo1Mwd5M0Mw0MwemNJoZi6KANMbS3mLpBKaVk10MwrJwmzzDQza6GYagAAAIIuC2gAAi4LAAAU1JYAJoU1BydHD1HU8tSWmVw92RfH25D8j18DTcDky6ET2YbDEwi8y2mAARcGgmoAQGaaV5Horussk3vj6yvL9Ty19SKlLacAJSLiywJRMqLiwAgTVk3FwAKZa5WagSgBnpFoAKJom4tABVnpnZoMlE1ZnpnoAEomrI0z0CLCY0zNBghoU1JbCBNGemd0xEMTIuLoACakKTACCLzrQTAQOLgsAARIBQAAEXFFCAGEVNA0wTRNxYwAmpKc0CAWemZoADQMAYAAAgCLzNCAshGkKTYzRqsw0hI2MwszC4SMq2RoZhTzZqZhooQXjZoZhoswq8aNDMNIUG5my3kzSFJsQjR5g+fWzj7ExcnYGHXjRXndmR15uDYgLMwuUjUlLZKRaZWUSltSkd50UQF5XmbEMolC0x0KJJaSLJ0y0GIlM7zs2EQ0FZa5agBAhVOmOoxAZ6ZmoIaAUtFtOBCIuKoQxNAtMdgACLgdTQhoM9MzQGIAcVJYAJhABQIQAnLKaYAiby1GIGhCuLAEOXJVRQDQZa5GjmgAGAMAEwQARcFgAAEXJSYAApqCwAAEmiwATRNTQwATDOpsQwE0TcWAARcFgAAE0ihoACbiwABMM9IsAFMtISwYhkqi5spjlE0Z6Z6WIZLKpWJqyVQTGuZRQSrDHSNSCwhaSQ3ZmaoynfMa0DNahhotDI1Rkaoxs1MnoGU75iNQyNQxnaRGgZxujCzQyNkZPQMbNDJ6BlO0CdUZrRmcb5gaBmaBlO0DWgZGgYlsg1RmaBi6oh2EFhlZZBYQrRFzaIpKo1hGxqABlrmlMRSQtCE0AUTQABnpmaAAAEVBoAAIU1JYANAk0WCGgJaZQmCAi4sAATRNxYNMM7gsAABy5LAGIWbz0QAUAIvPRAEpFwlgwAlU1KWAogrPTLVAAE0K4sTBVnrkmgAAGWuWoAKJpJuLABTPTNNRCgCZ6Z6AmoE5paZagAGemZoAABMtFgAmjPXLUABDRGkWAAZ6ZltMAQ89MzQAABRcGgAJohqhgAAZ3GgAAARcaAAJVIriwACbgppgAGWuRoAAMQwYAJoAAzvMppggCagtoGICWixIbkBAWTBqJCqGWSFJIWmVFkBcyBplRoZhpm5NSEaGYaRAbPNGpmDvKjQzDRQBpjRoZhpmkakMszC5UmxmjQhC1ws0Mw0Uopxmb1ybGkKDcyDRRyHXpz6GpkGqgHeTNDNGuZBuZo1XPoGvPZqsg1mJL059DQzDTNSdBmGizCpmTd5MshBrz6GhmFkA9MbKIC83Bq4ZSQOKzNiWNAEVBoAABFSyhA0wz0zsbQNARpnYwAmpCpoAAi4LaYACz0zNABgAAMAQ0AIIvM0xvkOx4UazNFksYkOctDRHOdBloBzdBXL0+ed9c+wq5OQ9cx0Wlxh06ed3JoufmX0U+JOuooYmPLTM1EA5gz0w6DR8HYWuVHTeLNXydQ1y9Irz0AEE3maBMUsMTti8K3ImNVPKdOnL00zHUcLI3xA2ZzS9WeWtlvPnjq5HuGvPFdZNQLHWlcWAApvM0m+aDeJHpz6VqjCN5qanTPQAAz0zNGgFExRhNdby0hrm6KnTns1TCea6LrENioCKBq2ZmiInWALDNaoidJA0RBoGLqiFqiFqGFrRINBYWoY0WkGguRoiW7MjTEpFIFNYLCI2zRlBLGslg2gAAAFGmBnvj0nNGknT5/o84Xpmc+9M830FReWuYZ7SY9EWPk7MiqYcE9tmMdLOfn9BnL0KjhO4Dj7MS7iwYCy2zLGgmgw0qSNWGGthja0Jw6WYbgRcWMAM9MzSLRzLo546efozrn31cY5daOe60rDcCMd0ZdCozy6COTe4rOeiYy3Ycj00rLeLjHSLFc1TAFFwaYbxD4+3I49jqp82+MdE1NK4sAAy1yNARnh2ERw92dZVvnF1NVyXGhe2TjHpx1OHQ66rm6OY2BGjQNAGemZo0GWDsmlQZ3AdXPsZ3ydxji4O05uoz0z0G5Y0Im89CVlZrnpxnRrwaHXx9HKdT5ti65NTc5kdWVIsTAAYAwAAAAWWsEvQMzQM435jVaBm9AyWiEtGZMszWgSaBkahhbog0DM0RjZZC0DNaozdUQWETtmOdQyNGYqNClqjM0DG3Zm9AzNAxsszNAidcis98Tn2vQznWRGgQZdJja0ILDNawS7ZmaBnO0CNAzWqMKLJWqM1rJNOiDQMp2zGaIhaIx0nUzLCJ0gKmhiRWd5mpIWQhkNNDMXRQhbYUamQaKEVrz2Pl2DaZRs8g1Mg1zJNsyA0kLhyaOAsgC8qNM2idYAvKyyGUSCvOzKyh8+8mN6Mz5+1GN6wToM5t6BRpmWAAAwBgA0AAKLgsJJvDcfPrJowAAUtFpwYdGeZPTwd5YAAiFNGvP0codOGxyVz0egq5Dp59uQ26c7IM9w5ujzTu24ewRyMnsyRWvJsbgEXnqAADRlfn6Hdz1mdOWcnYAICFjt5deqs1GfXlrWemegD5Tpjl6SN+Trhznku84qzo04umXSM7SZXRUrlUd2emdW1QALyRtabc3Tzm6aM9cdgAM4XMdWmXOdNJF44wei8tQAIc0NRJosZNNuDvCM0bk8h16cnUPn6OM2po0AAAUXBoAAApqSwYhoipsBglQZXNiKCRhnc6EFszWkiKZBYQtcwLZmtUZztmgtGZmguZoDAAAABRcFgGO00QUigABBLRcsDHYMN5ZQgaA5uiaKECYiMbg68tAMN5HLo5OtMMdoB0HHp0MXL1Sc/UwBBOmWgwB8+/MT0Fim0KbksEAAsdUVjuhtBGkWHJ1hEbQZdMsWO5C5uiKWoQCKz1ys4+nQHFQXUsYgU3BWewCaM9ctQEBlrAVNiGjPDrzHomCaIqbJw6QWHQjh7s9TDSwXD3ycHXWgsNwI0zNAAAFF5moAACQFADTRFxYwAAM9M9BDATRNxYNARcFNMQA4qSxMaAM9My2mJoGIKAAAABZ6ZlKwgsM1pIKwgsMy0C0DM0Rm6BK2ZmiM2WSrCMuhHndr0ILCFpIimQWETrAFhBQSUySwzLDK51ILZmtJJbogsIWkDKZC0DNaSCsJKDOloZlomdYGUyFoRnOsUyyMyysqLILDOdswdMzNUZrWANAznZGFmpkahjO8EVbMjVGcbwgaC5GqMXVma1DI1RhotEhaJYLRFqhFIUXJYACRUOE2IF0M0UQ01MxdDMHeVGhmGhmDvGyyEaKAd40mhmLpBJdZsogLlSbEBZAXm4TVwLQgYgsAAAAFF5mgAACi4LYCYEposAEwhpjAAAi4sAAAM9IsBocXmW0wTCZuCwATCaixgAmjPXPQGgJqQqbEAGemZoDAEEtFDIQFZ6Z6AAGemZbThgBnpmaCBphnpnpSGoM9M60AGAKLg0ABNGeuWoACi8y2mAAs9MzUAADLSLAaBNGWuWoABNSF56AAGd5mjTAAUaZmgAAEoCwAAIuLGAABF56AMEqkm89AACagpqhKkKbgsAQwM9My1QSUElAwAAAAUXmaEBZCLgk2Mw0MwtQGpCNCAKzZbzDRQh3joU8wszA0xsszDXNZm759DUyZcKTYzDQzCqyo0IRoZgaYWaGYazKLrJlkBebg3Mw0MwpSjUzDQzYXjRoZhpmQbE5m1c1G8KTYgKcIWuFmihGmZBs8g1M0aTMnQZBqswenNoamQaZqTZ5M0MwuFCdBmLopQtOfU0SQxBGmWgxA5aFpnYxAZ6ZmjTAAUXBoAABIBQAAibzsYAwCLixiBy5FcWNNBNQU0wACLkoAAAz0zLBiGAAMAAATQZ6ZmgAh4mk1gdApLDE1MdhmFmqGYmepqnyHUc/QRfD2lACU8B3acnWJgHH18xe0aAAEVxHS8uU9JzRLiygBKOU6tOTsAAE5HU0LLWC4vM0aAaCQyLrlo6RojTPQTWBvnpyHYnmJxrFxedaAACM9ctQAFnpBQwABTUlgAmiNMtQGCz0zKaoQwWemRoDEqDK5sRQZrQMaNDI1DKdpIsszNQyjfOh2RBYRG0AtGZmiMXbINESUGdqxJgACuKGJFJIdZs0Mw0hI0eYaGYaQpNiUWQF5kJs8w0M2tkCaAKAAmgzuDQAOLtg4+kow5/QQ+LvyHTRxR385p0IOLs5esnzfSgd1kcvfw9wAC5d+cOvLUE0cmXXznZSYNBHJ3ZGE9uB0AGemegwDmWqFtnoDTCLzLaZMsLy0g0AAAnLRmC2sYgjTPQXN1ZERdmk2Rx7Z9QRcVoBAmqz1y1AAWemZoAAAouDUQCaM9ctQADO4LaYIBZa5GrTAAyvPQoQAIjTPQAAi4C5oAAz0zNAYJgouDQAACKmhpggCNM7GAABGmegAAnIVNAAEXBTTAAUXBoJgAKLgtgAADAAAAE0LPTI1IDQzC4JNlAWZhRAaqQszB3kzR5halBplZRAXKQXmyyAvC5LuA0UBebg2lBZmDvKjQzDSZBa42W8w0zJNHmGhmys6k0AAAilQKkIAi40EMJjXNKV5Lh1FCjWBlhBaMrWhm7DON8hlhC0RCuSighXJnrnojElrOszVwjR5BebhNyBdFmg0xqzUyJdVmg159LNHiS7RMmtZUWQF5vM3IZRIOXBsSxgiWmUCAERplqMAAROmWgwAmpCosAAi4KaYABnpmaAAAKNMzQAAAAGAAAIBRpmWAAATUlgAmEpooAE0JzQwAAJuLAAJaFU0CAIuDQAABTUGgAAGemegAAmidMtQADPTI0AAAIuDQAACKmhtAJojTPQABZa5GrQMAM7g1E1E0memeoAgy1yNQAQCTk0ACakz2x2AAWWuJo0xgCi8zVpiTDPTPQEwSpGdxoIYLPSB0qEMJjSClYQWETpFBo4zNAxdUZvQM52RhZombsWDQMaNEzNBYWkkVTILCJ1gHQSOSs9ILaRRIVlUJs80amYtkCagKACGgy1yNAAYCi5LAEwJTRQwQBFTQ2gACNM9ABDipFcUAA89MjUQMAWdwaiBpoz1y1AAE0RrnoIAMtczQAAAi8zUTAAz0zsYAICNM7GIHjtkaADEBFQaiBgiNMtBiYZaZGwgABS0aIAlojbDYYgMtcjRpgALO4NWgADPTPQAAmpI0z0AAWekFVNAgDPTM1AAAUVJo0wBE1FFAAmjLXPQYAAiNM9AACLzLc0BLKzvM0ACaQ4qTQAABZ6ZmqaBzQADAAAE0GWuYxoDk0NlcjKCCwzKAnTjN3OplZRJQQWjO41JVhE6ozp0ZmgRG2YywzNAynaALCC2c18vSaOmZmiMrLIWiIjfMC2ZmgZ49XCdZYYmwY07MzUMjVGNlmbtmU75gaBmtUZ8nZzmtXIKwxs1MzQM52zBaoyNQzWkDnRmRbMLNbMjUlxnoxRmjXKOjAiqSUZ7rBYY6ToIpCGjPSKsohS3BFmtZOXQzRrkRZ0GZLqsw0hTW5mRoZgXjSavMXRQC1w0LUspSC0y0GIHlpmXUsHNBlrBYMlgLPSSwAaZOW2RqCCooYAwAAAAWemZaYcXbzdA8Nuc6QBiBJoXJpsZXy5no1noMAJrEz6M8xLfE6sN+Mjq5uk2R5528+/Edl46EdHN0HLlGZ6lYMUpnN6HHZ1vi7QTRN56AARzaQdOeuBW80cWfWF8vdxmm3B3meueogAz05jDt5uoMgKFRoMEqgyLRktkXG2AujHYAAzvM1ExACikcvTzYD71Bn0c+ppE7Bz9PnnbpxdoYbwHL14A9+c1sRnrlqMAEchrry7lnNqaZ6ZlXNAmhZ5s6AxNjHcmVgdgmAIipsBgk2ZWrJx1wNy0Z0aGZojNaySaMxNURO0iNAzNAznaALZmaBnG0U1ahDAALGlAAARZ6ZmgBxdbZjO6KABNCTCNGHLe6IuLAAXN0ojXLQFQKSDHo5uwWWwZ5dMF8XaE2BiayE6I5H1Mzy2sw6ExAEaZ6AALPXMrDoBUBJUGqAmkE6ZUUSFQBOuVlEBUODcgKUouVJsQi8qQtcbLMw0zUHQZhoswshFxQaZoM+jn0HUMvG4NLzZakHLg0iwMki9MtShA+PozL0izm2nUUaZFuaGmjz+vSCuPvRlqw4a00Kx35wW2Zl2cnYPm6eEjfLoLqUZbLQx53mdm3L0mfM9Doi5KnPlPQfl+kVFwWwAAM7g0AAaCLgsGIAABjFABAIstYA0DM0DJayI0DI1RkWySwhaIyo0M1qjM0RlTszNA48++SKtEmPUROsAtAzNAyWiJNAzNEZWaGZoGZojOizN6BnG2YywkpkK4KGyRZl3nqIYIEKpsTy0HneZqJgZ0OaksaAaM9MtRDQs9cjUAEwkTKAEqRlpGgprE2z1zKSRa0RnG0DWgc9bIwssh2EGgY2WZmiM52gRYS6CI2zKYDJBBJqSjQzA0yomJ2LIBuKKeYaQgNMqMNwNIJFz9bOLtx2LzqDUQMQEXBo0DQBFwaACGgAKAABUAii4NJfEdd83STnkHXNcB2vg2OgAoECaIrHE7DKTZ8fSEKTpaxNp4rOvLXmL6M9Ai4LAAAlCMqyo3iczXfk1KeHSOWhXFgDFjliejhrzC68dhxcFzeJnYEGsl3WBnNhcujFaI35uviN9pg0YE8O9G1YbiTDPTLUE4M4w2Oqa847NMUatBYAJyZ65aGUTqaRFE75amLyxO6DIusWdWJIaxBHTlgeggJ0y1BMFGmZYAABneZqAAApqTQAQwzuLGACaI0z0AAJqRXFgmCm4KYySgmNYGUELQM52zqlTiC2ZzrFjLJYVhJQlAKAAgDPTMvHUGJHNpQbZ0HJuqLSRoSFJIjLWy4EZ7SEtUXlSOS+iDXm2k2IDSEjUgLIAyrM00SCaBJWWSi1Ml3jZZDM1pBsQFkBcKTdQFvMJqLLzz1LJBaY2XMhpjUmsCNTIMY6QtyFJBGmegs9AynWDSbRmWgSaaEi0pCNcbMiwcuDesQuZZcqTZSBeYNTZz70jR+b3D1w0LJY87zNBMABRUGomAAkBYAIDO40BoGmiNM9AACakKmgACLzNGmAAouDQAAQZ6Zl1NACCXKaCFoQABQAAAmgy1zGWiHQTNyUMEqCBsToJVBnc2SUiRhFzYhoU3IMYhhM6QUUhDDNtgMEqRFzZJQTOkipWIYEXmaAAAKNILAGAZ3nqJgABFxYABneZqJgASmi0AAEXlqNNCi8zUQCaM7ixgAnJOmWg0MWWmRsAJiCKk0EwTRF56iVBDYRcakqwidoEaBmtUZ57wgWLJTMxgNgigytUAMQ0Rc0NyFSklXm1szDSFKbPMXRQFwSbGYWQF5uDSoZQgJqE0AUaBgFAAACAM7ksAEwmbkoAACQCxAAEXFgmKk0k3GgkxVNQlNMABRcGgIYBLTGACYZ6Z6AAEXA6mgAHneZqIGICLg0AATM9MtQAGgI0zsYgM9MjUTAASEWAABlrlqAIM9MjZACaM7iyhATUme2WoACy1zNQBKkTNSWMBNGemegwBDkjTPQbQOagtpgALPSCwAEEqpNUMQ0ReegCBuWTpnoAIJqR1noAAReZV5agmggCwATCZuCiggsIjWEZYuZoJBYWAogAAUXmakBRCLlI1IRbyZRAamYaGYF5UaKAtSDrKi1KLgk0ebLWYaTMmxAaGQU82amQaGYPTCzQzDSJk1rJmhkzTMg3Mw0Mg0hI2M2U4BaZWUSDSZNxYJgs9si1TILDIsEtQzWiMbNDM0DKOjJA1FyNUYW6IWoZLaTK1qZPQMo3gT0DI0RE6QWAIETplZbyDRQh6YUamYawpN3mGigLzJNiQcuRkstpjQGemegikIaFeegNATUDZQmmGWuQaxYTUCLg0AAAUXBoAAAZ6ZmgAAAAUAAEAFLPTM0ABMFNSWmCAJAKAAAi4sBoACLiwACLgoAE0EXBYAAEVNgNAARpnoAARcDaoAQ87g0TBACm4NAAAM9MtQaBoROmWgxMMdsjQAACKmikAJoy2w3BoDLXI1ABNEVGgDBTSM9sdgAFlrkbAAmiZuDRMEqRlpGgACVSRpnqIYKNILaYhhMa5lKwzWqMymSaBmaBjZoZmgZrVGNmiZu2uS1kmiiSkKNISnItOAuCE3IFtQjSFKbPMXQhFwQm5DWiWMQWAAKGmhZ6Z1qACaCLg0EwBEgFDBDCLiwAVJpJuNAEKReaWJgmExpmaADAM7ixpggDPXLUABTeZVTQACz1yNQBDBRUmggaAy2x1GACAjTPQGmGWmRqwENEOaKEilKI2w0NDNGmTg3eYaKAV5UakBUqQ259SyArK8zcljQClyaAAgM9MtRoQ0BnpnqAAZ6ZmomAAZ6ZmgAJhFTQwAaZnpnoAAJom4sYARcFNMAAz0zNAAACLzNAAAFGmZYwQwmLlGU1gtElCWBKAAALLXGtiAogKkRoSiiczQ5OuqBQ0BNTYJoEwjSLEICNYBsEqRM47FnP0iGiLmhiBpBOmdjcg4aKc0CYLPXMsYSUzNWgw6eU1qNzGjQhaBmaBjbszNAznbMZYZuwxpWIsJVoy0jUkYTGuRoDENGd56iKCZ0RjpOpmaIiNsxmjMlqjNWgNAyWyOfQ0MjVGbpGek0DSLzqDWsg1Mg1zJNjMNDMHWTNSAsgDTGyyAtKR3loNyFZ3maOWMTDPTM0EwADO8zUAEApqTQENAKbzTQBRoGAUIgaBiAi8q1DnM1stzXNYRPocXaNCzeHt4e/UoDNQIz0zsoTUQhXnac2/F3jz0gollJo4OjFhvPCem58079fM7zQ87sNU5FpjsAmGemZbljl8Jo75D0efp8o9GxnOeduno+d6Xmr6KaI0y1ATGhCuLAAWeuRoCG0GdxYwIctGeuelAELHXKtWEJUjPXLSgcxSaqNctQTQY64m7lgRQkBoAAIz0z0AaEJBeVjmpKhwbCYADzuDQAADO5sGAJoz0jQQwmdJIoshaBnO0E1TMzQM52zRliwWERrmlglblF5uU1eQaPMW4M06DMXQzZoQGgEAIAQ87itcdg473dc8deacnfzdNJVz5vN383TqWgzRNGekWMEOWiakPN9Lj1NUqPI9VWbIDne2ZWHSGefQjk3NDg6dwE0Z656AAGemZbGLl6w49OjMrh9CRsRi7RfL0sARnrloMQNEhplRZAVnWZspRoZA7xo1Mw0UAaY2WoB51mbmYaGYGmGhZAWoRWvPZoswrN5m9ZM0MwogNjMNDNi0xs0Ug86QqmgAFGmZsJgAEVBqAMAzuKKaBgiNM9AAFNQFRRQmEXkaOWUSx5aZmrihoQ4vM1QAICLhLAUAFF5pqJqmADCgIABDQo0zq0wkpkTpIFhHL2lYuyEtAzNAxsog0RC0RnTozWoRO0EmgQWERrAFhmaIytaEFhC0Rla0ILCI2gCwgsIjaAWjMzRGRoEmgZlhjorINAzLkmiyCgmdMyxggDLXLUYAJhnplqICFlrlWoECAz2w2pjUIaqNM9RDROWuRqwEBEg6qbQlSM7WhBYZzrBDqjM0DON4E7CRgpuSmAxIm4otwFkAaY2WZhcJDvKjQyZcEGrhlEhWd5mlSxiYZ3BoDENCi4TQQtIBZ6ZpowUaYAFAQJggAz0zrQCGAKLirGAASJjAgAIuLoTFSaRXFgApnpmltMEyWY0iy0yEAZ6Z6DAEARcXQBDz0zq2mAAouDQTgAJFVMAADPTPQAAi4C4oaAM7g0AEMjHXLWmJgCI0z0BNQstc61TIQ0Za5a1SagTmp1z0AAnLXM0GCGokTqxkKaVRpnoAEKKincWIAIqS2mAAkI0AAAi4sAYAEaZ6AAKLkGMkoJjTMooJnQM43zAtmbtmcbQjKCVYROmZoIG5RUODcgXQyDUzE2AlAATQZ3FaAQABFTVtA0AiWUIhiVTplZRKKSQaZUWpRcEmpDLICoJNUkUYo0qKKckVIqV5aDBQ4qK0EFJA87zNXIUSCchoSFEAtMNCyEaQkVWbLMwvNwbEBSQRpFoihZLRnRZE6oznbNGWLCsMbKBWGa1RnRZBaJjSSxgk0JyzQhFqUGmTNDILhI0rKy1KLgk1chQgQBYAAiNM9BoYAEaRYACm4GxiAFnpkagxABnpkaMAADO4NGgaAUXJbQNDJjTNNGhWAABYEAAIBZBVgAgBAWACATAYAAEWAACAJAJ1AUgUwAAUAWgODpAuwBACAVgAApAsAABwBYAwCWAwAQE2AACkBsAACALQDAM9AGBBICsKEELIK0YRIBGgUUEJAJgUATAVqwhIKhgUgGgJsBACgB0AwBSBaAEBLAYA0BNAMAaBFYK2ApAqgEALMDRgIAUAaIAYBmBoAAAoA0ABgLIDUAGAgD//xAAC/9oADAMBAAIAAwAAACHAhDTFABX7yHhSmyFGD1TSnwhHzWECmxTVxWgDUgCFDyVBUXihySXl13XEEQEk3mGHEU2kAFTHkkWnxX00VnClQB2oeesElUEFPz3DgD7HRO0HYyXsUaeu9G+tDWXlUUHVHFnT3wzUDwkBREhVFBTgSXSEzwEBD3jiEBHGDM0lHWnWFXlEUH21G1HnU1Xl2cWkHn0EEUTymGcRQgBcGDgZWlWXDgDuQ00nemuHE3W8j3bP+dFVt3flUH03t84FkYU0blknU8tldPWJ2vrw5J8JdiYyp5yBuEWwHylXoiDDwzyxXTNUsKp/2P5/ZVkjoYmHjyAAcQ5XcIDIy8b745YhYkEYB4znTHmgWgRVBSWhQAD2wxUBzWimlA2ECHjDzUkEBX2tWlPS8MHLDDFHAyT1F0En02Ye+J+nP0MfEsDgCzTEtUwhiwrrJxkinEDHbLkB2FQVnX0kWUlWE0O2kk01nlkc2KF2ukHB0EkE11mGk132XEIYAW0EUVjVXQUkAVHlGhT2hV2W3VFHCRWBzk2U1wUnU02UVmEFUCghkFr2EZHU9FINFeFXGFXbw1WF+EU12mBnXHHE033GGREHE44o3EHUXkmEUk01lW2WRS3w2BT3kDXhBGxjhBlAyVqz151OYFIrUKX0CGnnF1HVkEEGW1VujEU3XFmVG00kGQ0l0AmEmGVmEmk3BD30l0pWIqYt7vft9dqfe+lsMk+vOMcEIUERV7GVFnFH1g1W0EFUGBl0F1mItRJELU57OfboLA+5r4oZpacF6gBIRg42JCjqPXwEAAUldK+Lz3SEkAkGGTHEmh02CXFRmADFiWgCkRSGQAWakVPXJDWknlWXm1V2XnGHHWXnX3FWEmmkH/31nF3l210EWFGlG3V3X0wAB2lE8YewaVEmAN31YmGVU0+nWkDGiyUhRRCFziToJPYlZJ9ZZGLFnmlEXGHXFDFzyXmWUEXnlGWXlHFEHFE2XEQGlQUkE1En0QQDk3W1mF/2HNEVe1W5fmoFOIEe1EMvcqlnHVmEk220X2V3ElGGaW5FGZghb6KLNbkzJ01rWHJn3S14WEbDEA11E3XqzLYHKqQDCDSVGFkkHl0VWmWknQqlGsHsE1n0DjBUsQyzDmgBm4ZZK3Za1baDaknA2EGEGmmk0QlGhm2g233lXFH2l3n1Tl03xFHBVnEK2E3whx2PeONELLYpop64yZNkrUdOn71hOV1M2n01XWDH5qkIGpaO75VKGDilklk0EX33FWlWWe2mUEkEWm23U31xXl1UHWEW30pl0Hzzy3HWmlDnmVU1VO0me1kk1k2FIUkfFFblHm0BH0FkUElM2lX32LUKHm5wxzlZ02BgxrA7bQ7ZB4pTpCzZIjLCCrz7qha4lpa77DzhEUEWVw0lU33k5GVzGkF01FE0EH0AH0m2DVE04W4Ipb0bImoIHL2orX00l0FVQ2xVB3wV2kkFWkGWEFnU0S1l0GFXVVUWRWn0AABVa99Ocqwa5MN5IpLrZf8AmiBOPlWYmWtFdFNBBhpxlJp0oAmHJSlmIB5ZdxNRUt5Rwx1V9lhNJpNkpJYx1g1tRZJZ9txRQYxNwAAdnBrt89dNxFtYltJJFV5lhcB9Bl1p5Fl9WFDPtT51iBGKNSB1ZJJpGVFkB5R9gtdoxV0NJhdY5Rs5p2ogGNdGBhygOOJ2qgM4AAZNpnn911VzVRJZdd5dvRBhYRNBp9ZhJBcS5O656G0OlSWJ2e9m1Sy18jwadtoRtVuJd8hFN5VpBs5FRN10pFRZttB995Cgdw088/WOCH56HTq91iGgS5z6j6GP25lO9pCJ0BZ6lZVh5JJZh5Uxdc9CtFq0MmomQJAwgickUYGCoGoM6kq7OKGm2Cc+aEsewGKMy999pB9hZZJVF5dB9JVltRVx5dF9xd9sE1ANZ+NXmV+i0SpSipaat6Ij2V7DENd1h1bn6NNE1tJJpphVt1utZeJBKpZY1ptNiQEMBRhTCfK+SKznmp1bNZd9BWRxtZUVd98RdJ1dNRnaxXtdeZ2mluvpncH31j/k1dpfwjXgRpcxJV9UZphpBIJxQZFYxlY1pt9WQM8NBBfJ9T11OBReK/Tnaqb7uxm6gCgBNBUm3e0dsdlc1FhxQBlQwwK1GMxW4EiMmJRK1Vq5h6MaAEaNbiKKqGSG+2HyizyT6A7TaOpBF7t5VZhrhVmW1tZ5XZ9vJVhdVIAJEJhoZjGBqQEiBjCVCCn++Xi9yRXKBtZJxhtjHtfTUVpx3h5NVJFq19kNxUo08AgIQ6UsAxBdqK2GGeKCqWO+W+SSCOWumSoG9hLRtgxABZo0l1kNhtRZF9+5xCtLZQjJMtBVZprfF5dIB4p18Z9JtRRBVe59MMMgEIs1WYwAhR9r99xRBn9tVBVD9Rb9d/FpV9ZF9BtZ94Y5SRqGdq5ZdctZs9c9lSMdCssaMmsAWsUekMqgqqY+AA2y+62+Wu+ymKf036CT3ezBVx3BRdBF29tTlZVZ5V51XpJ91d1MJI4JEs5Gr6Y55hBg1ph58p18VM5BXxJ5Q9BRxVpB10tBBFRBB4BV69BS99SFmO8iAIWE4wBVBOqdmslKGm+MgGAQu6a+DiCGem+yJRsNI48kE0ucg0EmM9ecg80Sw0uIG6we0Y2o0OMwCtcAV0JR819utQmtZGU6W8+IA6UAAB1FvZ9RJFBd9B5ttgYFUhV9cNt4hNFBdZFlb3Fb3tF9pW1rblXp19ln7FfVtNAtfk7dkNYUowY0Ys8csCGGSL+SXSqKajKi3Lu+t9tnvBd91h51NppNJJllxtBw1Nt5B5JZVB91rFj3h5ZRLhvbdbj1xprPdLB19QFbMH1APfURIFdhttpdhC1QiFc+Qw8II04ScQw99p+y22eiKavSCimCCud7fNGSKOE+ygom42UdM8QMNMcsCsAeEcwA4EAKs2eU24GXIg2MUCGuu+SwsW8OuWuSaqCG2WCmO8iWsA9t55llfNJLVJnBF1JlZhJFV1NdlJBZVhdNZB/93R9xNHGFWT9rVR8BBdch95FchBc8s0ppMVZNJ+d1+ZlWGSGCKq66W+ma2jTO+FtJrBpZx1ftdodV3h9SNxZ5DhR/JNMRVxFZFxNtt19l1Ltz5k1NhNol9Q9hI10JV4tF2RlxdERBu99K9VSEICwQes+CwKYISI88NZBuTH6e++Tm2Z3WdtwEefD2nPqjoYRdNNdpRUdBAtQ5T0vJVJ0u029cao6kkzy2SSyTWe+2aKevyO7+6CO+i2K/+2iuGCyfuy899hutN+hh/pRd99d9p11FBR7dRrJVwtNZ54ZFZztwhV/DTPTB3QVBkx9phpVJUVp2lB+93LJOttiV5e19mAC+wQ+sO6WuO+GSCC99hi+uWOCKGCqqeaou69SyKuiyS2Cu+AM52MISgIE8ckEMJliUCuEuIIGoaeGPOWuVvOd6uNKp5uBhGBlO8A2MO+Uq+86c8S4wA95VWFxy1tA5RiRpwJthhVV9B1xfB9yRpptGtthR1opsR7F9topZ1No99Mxd5BAtbyr6KuaiykmeW6G+2SyaSGCieKKCiS6yD/6/5RVIBROBtkNle9RKhVFFVRt1VBiB1VpVRtYRtphNA153H5zV0poBhzN905ZBd05h6FlS1Hn925RW19iRomdoatGSsKoA6ag+mMABBV6+aiW66q6Oi26+S+CeeeeqSS+W+nauO6hh+Uue8jksSlMClGGWugm3UCSmvyG1aG9uGS+WyimNlSFs68sO1SK9igASAA2U88BBdg19hBRFBVR9plBdzd/Fhj9JClVCBAF9pRB9tFIB8tBdIVZFUBdkhRoBEtJGp5CdRS5a3rqySM6CquSHuCLaC2+qi6emKfvC/BB1U9h5BhAxp1tp7Fdn9GNBatVqVli9Y9pBJBMBZENQ9NI1lW5MJ1eZdONkN5etpC9V+p6rdyBBu5lOxE2AEC91V1Blh7Rx+FVwBNdCuOuCyuS6muu2SSG+mOq2ea2qS2eS6maAE2wgGomUEycUycmG2OaCBeHamrK2uWmBGx2+FySEWuPiaKaOq2W1Z5Zpb9Jz9NA99Bp9J9RN55xRpRKVplJNVlMBVppRZVhxh1F1w9Rllxx1dllghIJpNVB0t1VR/Fl6FB+5uhFOdxWJl87SSeuyGq2K6++Kay4WSy08pNRBRNV5R1JhNqxphtZtpSlBDppq9I192RdEldAtYB0Cl9y4WySGOKKz2rZmd7eFBm9mbliV5qtF4VAGwYs86RF+gBeU0C4IAwAp4jB2xka9Na1vyx+jTKfz+vHiDD+z+9Z/p5AdtAhUdt51hI1wtZKN50ZY7DS3iOmCuuieuGyOuiGC6+W+aiGSGKWGCymeCA0MBA9tdJdR5BF1Z1dplJtRx9hLBpPdZB5ZZFBxJN1Jd1FZN9BZIRo5pHxF2Vxt5q5h6xVLZHF5Ox1WBxi9MqEKueeC6Sieka61iOPJhdVpV8d1VxRUFhX9mqXK7B21fuXua5e6QWZ+qBQ66EkIARQqY+UsXS6iKWCKuq6GXDuJE5huZJIFd6tASsgS8mIA6AE+iijeE8lZVVltJNZhhZBxphFFJNz1BQBVn9TZREtJwdB5hB9pdJB1d58VsNV0950ZcJhRZdL5N7f22Wf+Kiu6mK2+iLiuHuWaO2eymPusw1hZZpRx5BdNhJQJZ4t99/FBBJRp9TX9NNNx1ZZ9ZkNsd9B9p61mR16Nl+9IFhMxV9RlWlh5haJ51Zh85NoF4aoCKVa8eKGufOfPBdhhJ1wFpEtB0Vxe1DzNK5NyJ/KLOCKeGOeKmCCa2c2cgyQWyO3iGOeWKm6i+GIuOK2GyCDVe6Ve5dulRStuilG6028o6A8e8889rBABRRR95Np91p9tBVVB9N919DFV5FaRd0Vp9tNMJQd9pddotA19Kx5gB8FVlZR1NlIxyNNGu2GO+KeS7q6e2f8Arp+nm8lr+ojIR0+AVVSRfccQQPeTJXWdfQfWacRZTSdBcXTWbgSWKTIdWPSegIoEEgHAjVnUfOSeFSeQUnfVvfavafvSNgXvKfhABrAJuMC6hDQ9w3CYghriJHE1UJJcoXZmtNKGEIOiEMgKnuvEnesgApLLsUcPZHRToUQhDuKDrnohjrstrhkvvjttkvpmrFhiEmAHsGOhHI/JAD7wxI0bfVUybZeDNeUWVfLadGZaecXeRpcT5UUGSQQdPYfNy1C3A81J+SEVASScZadaTUfXfStTYrTdq1jmgqgt9st/pm75p2uAP57zKSl3Y3WdfVXVZfcDTbTTMTdFbefUBYcKZZDZLCYLSJACcCNlOcrLguruDLvKVESYZdkVSoVZpbV6ZXcZXSehDAmPM/OLyJAA454DOAgEPkcRdUdXYJWTDdQASOAXBDdOZcAHJMCGOJKRfHeeO1Ow7M4eBXof+HXcIVHCwsjhrDuoLAiuuiporVsOekJO3CFRAAA0/wBT8NXEEn+sFB0EAW1LFO8sOsX9GEHlu9gEkT13UkiHPhmVBPhMdxeGAFT2dzNEG8mklm0k0W0lmmknrLE4ZpaqpM9td+FNAw0MNdjPd2VknuXkX2VX1EG1UFGN13ehVlS2XzmGrXDARIDSfzxRwcxTRzBjRLhAAwwSwxA07XGPm2pmHWmJKmZkkSDBixjiRiEwAAMN+DxxwB2H3yAGAAACEHzxyBxxyDyD0BwDzxzyCBzyB11x98B9wOOB+N8NyP30F12ECCD5x77555596L4KAIACJyACBzwCBwCDz//EAAL/2gAMAwEAAgADAAAAEMDIOHELBVkP9OAbPz0O6CP6EJzDY0A4FMSLWsK+PA0DO7EWZIoOOxdJOQgRAtYXEXN+RiQByEWlbYtKEdTSQA9FKZi1l2mfdnb8XYFMJWsjGosYZkFjZJPL3FLnY3c5wToaQuEWjD1DNzPB/OTRPKHC5KgiI+EAmHFbFf4NOQe2dzv+1tXqoWtQaidXvYcPxPfYDcPWeHBWmLkpSATaBo/0948HMoCq2xnB5Binv6CzzbNOHBCM6BQbpy7OLftu1i/XpothAKrrFrVrLY3XxIbO7d1bU/8Ai67+rtKJ0sM9TRTjulsMuhH0KshFhU9CFPNyRA4BLXh8eVmM8u0orIpR7PWaSZBmiFvQbQzaTwHwRSjdzgEhwJQfbwwtB7jj8mnPymi8u2Msfc04wy0KhlMuYb567a2CAnjcCPTk/wAHgGcsf6v4pIJ5HmAVkLNotauv8L7MepR6JB/1DHNkZXitNS7K8ytaOE4s3ucKPyeACOouUmyiWwlOxV/cJDI9hwr7vmgMP0TPn+3Dbu6zUePhyFMCNn+ZauV6xpvrLuKlm2fmiwPJMuUCWid2BYOab4G4mss7EwadAqQaE8XkQOKOKNCNnKlqT1CPNuzLeMwrIhIcibgdoot08cQvYEnWk1OhTKZ26fqn3E99hqpPZZg9tWp94Y1uVAyFqP1qFR35VY01c14+JOxh9M8hBWWnA7+joZI0ckUN1ds/8oCA0UsgWRmaHeROq63Vm93GLKtteoTCoeuS+83dGtWtDIAadvws/Dpq1hvgC1739bfVulrfSgSz18glSslKrf4oVdoaR7ztNrw7PYwdMz4EvoVMo/k0hcodCwZ/l2wGxOtESgYWNiajDxl6R3uxBCJHLd4P/GtR+RJlVdLZGOBaKRxME0dGyMTsYb2argM79xd5y1jchuxs7M8YsUyAHMAUuy32RSq7+qFSZllqZl+RMogTc8HJ9m1lsN2rJ+hJE99DJpXEBrQGfxOi1NEEAt+LnCTIOpcOaAwZRwyxiAF+sy8kUMVeOKimvxHhx51EAJolvd+suohffCBNB8NOvtuOJ2axCaPekuKZvKrqyWTOxjRZectjzwg0NS1r3JHftWhhKBwRDfwv1e9mfUiQP4VokgTkMduyaal6alauo+kR0KVpypw09OU5zoNmAZG50AdultOx1f8AVT4LyjNn7eRqQfCHKWBFLCqTbWQcY5XzBCrSmPNkdnHZQ5GX9TdpVPagnToakh8grTpzAMqSXqYvibtScrZTJcUPXlvbidUmXd2cSqTxpVsgeVnPOOPFbOU30F3wXgi7H5SNf8v3qhgeMnHFmSnunM3Ibkceq5IcctaVRiTmkQ/4/tSkjx77b1YV3bX5VV2U7+NTzey7T5VZ/RevgeQXJBN7vajlFl4Zr0SZ1f7cQnQ4rZgYZ8FdvUfrXhfjSlilvestQkiVs8pkIYTocnVMeAc9bOpTZveHibvfZmXV3UVmbbteBzZ8vPfPPFqZKHFBXwYSHPBdddaYBARboaLoXzaYFq9WiCQlZdwViNMco7DtijNoyeCfn1luZo1u/gOGhPqiG0PJ3jA3Gsipvolvgi79sjPCHlNqG3Mg+vufZ3vQsfekagGKqbRhTauVkagI4zT0UXoenrHsbvSnXScLE1bhLX+FA5NK0IGoAyFJzEqa1ybgqdHiU1USuKew2AMHlurGFdtvdAUViyRrR9GQvLFnScsYdsYeIpanhJgvAretmOmkSlsprOH2SjHdJCYRWac9cYKbBfS7bavWV6fUsZZKTOhfa3DcOOEBTbYKtcHMYkmdRwWsI1NdbKSpiqpvcr5oiZANrPHl3nFZ7aE6iOILC34GRH/I7/wv53p+cCxK91PydxPSLdTNyXb73Z7DOzcbZSgvXhyag/bhTVmYbrQdjVo/dtVVgDB8KaTqS1vDhvEpRovXvuImS3nI5ySROScu90Xaf/VIsXAbamoobrvSloQHm2rijvSl/wDmV2wljW3smTQ3LxwjSrVcmf5PHNm0qDW5FJX1C8oTv017AarFpthdlN/SPMVGiluFdM112+XxzlOE3L2k/jTego8DwtiJIAx+k2HnUyosQor0orlHCRwKuQCUokW9l/I658Wz2OKtxddQjrEdQjVudlaitIRONzsVK61p7HY45dhfcXqT3HEYoCbqqUxi2zGCKoXjJXkUAa27dtB9FkXauPfIdszmBiGJgCNI9JywsakJDBrVu5XrLv4ptrvYWjaXiWZXVwfsyOOvkDSsw31KUVUnC8zCO10dF9v2g+/O2Fm1VXl1Fd39acf4n/qEufkl3s864QOUfiJC3VQ3AxPN1Ym0qZkSpJ8GNMX9m4UVKMfBG3/1fKXvGlLlGaYYFSRp13+Vf8Sit/N3nFAPlprMS7Ia9+BOnTMcjs6pW5d0IV2RRs2qzpaX6crichA+pd5bU+qmePyvBOuj8MQePSPhBtT/AL6NqWksEx9WYslWHecGFQN1RvYXtGzFp7j0V/GhZylLgBMC9K9Me0k/k756XG8U1IJgyRBIA9d8QMp8DHcl1BpONhKBhXdeGVuxhNR1dtq5EKwKxVZhT1UbLzBBLtpSF7K9BpQ/XFLjdlZRYBF5u1ZHwEPc37Bbhj0v3X7kv0kP/wA5xR03HxCE/i41K54C7yHH3yKykN6PHDsxZjhYxXf7A85Nwwwdb4KzQm5Wm8TrfYEHN0ATDey4UweYBfYHbH69I79NcBVmOyzK1OKYAbxC12PS7NrfuB3kelbk54z3ys9Elkn9kn5CgvlzAE0dPLfUYAI0rRDjxzsQdIadrSfIcxwVjdbNYVJXFYwM93WQAN3E/wDScbR3zP8AAXLMJnxrFnJBnbDNvhdellW9hhXLJOndj7D3PDzwPT/19d5R9Q1h5J0RBRURl5eUceCJAw39jnTN/I7sWBFrAHnTZxF81bnjitfMLccj0nlt6W0vnMRiwEiHfm7UUR2KxFotxNRAIfUoX/RhlufP47FM/dANt+Hp4VUMViL9BVxK9xoda5rGvN0xcfeFKzwLEYUyRhLdAYUPoBNdRfNoVRwiH5GO1qWo5J6hJw54xdQkwHpww5R1wy7ujGICuPyaceS5R+iO4eTQiMfBYWtalt+p96R4InYDsP8AohEU+USzWo5M/mM0GeSbsuQ5rZU06f1pM44339T/AHX9388Sec/GX22gCk01ljWXrRlz5/P1wjFBzEA+djbJgJTj9wxNT+S5mKjIRs3ci7NRNWPtOGXLiHv3o/G5DUd0Xs27bMdo6q/rIwFJaoezD72E2VMNGOFRNH52mL32bUYJOSMOzMW8WzAUfG17Nl9mTod59OSevyFs2F5ma6E4qMFc+PdjyVXNcE8PwrLlP0mOel/WHW1Wl5Wwz0kkn1n0kEHWEW03m+mHovE0NE1+G1hVtOaz8cxfF4/6OXcDjxOCnOics4eT2ncFXI7Bu5GUaFYf1/8ABeet3zZPV9XlV/F3r0z/AD+RfScptakqzmoehlxwqoxsvburnL4nawup2RbXiNL5CVH0PcdxcOoS7Rf16qkg2vBRCUs2hwWKaym1cs7ynkAvsnt8sl/len4/gZbYS8SPU+s55bbXUWR+kRnLQsAwQT3qXrsc5URoTd9fKy6D6S9U1HfDQS8agmSxa3T+pe+LHz2mo263S37en5drbd1Vy/6XyOfw/YQacZVEfZvRZffQZfYdfMWdmTwscazBlQRNnlPyWB6f87Ep1OJCebm3f75pqs0mqbgqbgt8ZiXeultJpwo/5SrfR2e37T49f888UWc2tzg0Ur1zvX2qy7P6OkxKx/W+6cQ/mVnYVpeV6ezAWGMehawja3QQ8b0hRKmwfuhoieBLnYQNaXoks9tt8yo1Vs0wjyExRPzYdf3YUgYf8RWqa7J2hP1/s2V1q62we81hTiQY9aB/V3Sf/daYnzujXNiRU+ABIoxfcg92VH2Pim4l9RK7Q69Wlmke91zI78Umj/cdUTUYbceWbYScSmQ4sTEfcr6xpwypUsXdR2/P85K8K32d1/EyEeUCYfYJ0t487lpysRpWpafn1Isq5RYuWdHXb70khkBu9I+jySbVnWFvTcubSlZHdXmrQszXy69sYzqSoiaufawXdqasUSnbW2XSHXhVf6fg4VJw4e6zc8ei/wD6rlYaYBHpFIoYqF172HbskA4I7TxWYZsaFVplw77q2O4Le5MIG5pSrp3Mc7LUxoNjpMDcqvmALjOgkk9Hl7glwKO6wF5IH6VwbfZJPiAuiNHdscO354GOo4/cgsc/Aj3MDrkIPF7alaQ05VTwUAzkDRFCAmBmYox5a/xpf7u3VZXU+WsAIn7LfpeSzIj0S3kvWc33K4qbRkDRwryh71TikAE1Y124NfM0Clo23K21oV3L0sLX4IELFuwO+Sl77nyn2ZFGTEniVCHEo3l9V8Hmi2MWV6uHVt+mduxehZUl4oU7LkLOUsU0mDWXB2FB8s1RwHVl0o5bOLp67Ys6rwZ1VBkS5nbiVQWXBnHt1a3A7vpUP+etKfj+if8AblhyJetZ75lrckNyzW+tO2rZ5RuzNRLNptjjhDHXTr/ln/Zld6ugCWSyieCnO+raua0C+DeGoC4S2L+2T+C6VxwRUNBqZ1fRjJpD9lP9jOl6mWoWaE8x1BzRJmpBEZGyg3QQtAZiNxyD5HgfDJJVaVBEFhxN5ioVycuP98992tRWZ8g1WlZWJt+xdnNjpxWhB5u0ueNci9dfu9zdh2ln9HGMZFnNSBVz3qnO/wCf7fcpS7ZqMC5IwwWWeorr+qk3il2gmXoOGhcqmZtJ8PcaWeXaNTTafaM9GwxAzZoY1MINPgqYMZWh8aLZUlZoGvBVvcqmYonbiWevfS9R1zFx0F+/+V6R7WTOadtTdueZmXx5arcUvadOyglweZZzUcpRd/c9fQmdSwU0VcaSCxU27YlUeoRv+uTvucVQcfSZYL6SKBs1uPwNPpLNiPc3d9/2dcCRTsYR6KWhHf8Anb0XC2mqnTAXtHkb0G2l68E+XFOrSi/qccKOcgTkro+fsM2372Vr/wB/f9mqBz3VUxX+Ub/NTbgHqLQGP/Lr3mRptPqfX0G7PKZ2mEtvrVzzjJffUPZAZK0Sxpz0ZvNw8Liz8Ec8QQ1Qzb4FV4phURVl9cRpyZZilRIH9drsPbILXsnRl3tBPrrlEQXTNxB9QM4Lxj5dfyGzOdKJUw4q89boZLhsMNjFtz/f97vzrNX1nV2ZFqdN+17sFC6ydKq5mKhExRBQkorMML02XtoLsSCDfXtKBn/8ZVdWllfTST9eY0Pc19Jklw3yESIMfwVXu3SdWXiCNsNss9Zi9mrDctYfCem+MIpFxLp1tQXauNO2YBTVtXLhKDhSPzTL3JVTNXd866eACWiLeGzosNkfbe33+KeO/LJexv8A4xxiZweT5+w3xQ6A9dYb70hkeA79EITTi7JA98BT/CYPRnb/AJTGEU4WeUkEvP8ApTL21BuvftYl1AwZKoTbqDr4vkY9ivzpNl/NosEfd7LpEPW2HrvXMhxfs7XDZQz+i5qZFu5Zi5GmCJNiQ9FgRA41JMZ3lyODDjX5O6KpQK+Iqky2Oo6CCwoAGQMWh8U/wY3uOQeLrzs/bl33KXlP7GHr+LID7OPnX7y/WVOi02WZaaufh9KB+1fVVtFd6J5/kR/DDfCAeiDCC+D/APo/4/wvfw4owXwwX/wn/wAMN38N2EEELwGP+IEN4MMH+P5/1+EL3350N+OH/wD++ieCD+D/AIf4Y/8A3/112EJ31z2Hz//EACwRAAICAQQCAgMBAQEAAQUAAAABEBEhIDFBUQJhEjAicYEDQgQTMjNAUrH/2gAIAQIBAT8A0cPQ4elD0uXC3HCnhS4Wpwt1qfELdTw54l7wtx6eJcuF9TEOF9a2Z/THZRXtFe0VFMplMplMplMplOaY19DUuFqfELdTw5fELdDhc/qVtL3hbocLnSjqWs6VPEviWoU9/RwzzdL9nwVflli2l+WdhO/KfkrosubZbLPFvL7LY2Wyyy/SLL9Iv0i8LCLXSLXRauqLXRa6LXUYrYtGB1gwKrHRgTVMwYHWDHYvjaMGBVTMGDFIwYMGDHRa6LXUX6L9IvBfpF+kX6RfpFjZc2WWXF+kX6RfpFicWJjcLn6OGeePLxZa7FsPxecHgsCT6PFUU7HZ8cnxdniq0eQ/H5JUeSdJISHvC3PJ0hXyXvYn+KbLfxs8r/FJv2NttJR+b/0b4SPK7STobaqt2NvxR4trxbYrqXwIW6HHDl8Qt0OFs5eyl7wt5WznhS+IQ4W44UraXxL3EKELkf0Y6EkuJxGDBgx3ppdlRRUUymPxsooplMrCKWlqzyX4s8V+CUviFvPEIfELdDhbOeFL3hLMrZxRWEUymPgopxWiimUzgopxUZKYlKRX1OX9q12WZLZZktibLZbMlsuLYnksv0i8Mv0i/SG9sIv0i87IssvDwi/SL9Isv0iy2Wyy2Wy2Wy2Wy2WPgtlsbLm3FstmaLZbG2Wy2ZLZbLZbEy2XqW30JauHLl7whxw9T3haHDhbjhwh8CFuhxw5eyhHLhTWHPCl8Qtx7wtxxw5W2p7wtxwufqf+X+i8fk/HAqvJ/ovHxXi1yeHg/NOqvobL9IssvTa6LXRgwYHRiaXcUuyl2j+or2ivaKzuV7RXtFe0V7UUUxplMp2UymU6ZTKY08FMV2Z6KfRTpiT6KZTpFMpjTsplMpnxZTo+LKZwimUNe0V7RXtFe0V7RXtFFFYeUUV7RWN0V7RXtFe0V7RXtRXtRRXtCW+UUV7RXtaWf5V88usY/Y20mm7uP9HjxXKWT/K//l8K7P8Ab/7nn+9aOHLhSp4cuXvCniW8wt4svBbLY2W+xN2Wy2W6Zb7LY7wWxWc/RxLelf8A4KY9blWnaKZ/gvj5/JrZWeVvybKZTKKcVFY0r6eFLhTwOHC3niWIW88S+IW494U8OeJe8IcL6XLhD+6xeTqhtluG4tlstl4LZbLZZZfpF+kWNmOi11FrqMGDBiMGOjgwYHRaFVmDHZitzHZjsdPkx2JK9zHZjsxW5S7KXY6xmFVorLml2UjFGDBgwYHRgxfJgwKjHswWjBgxRgxGDBgwWjBgUYMaXCHCH9HCly4U8anvCnhS94W88S4W+p8Qt1K1cKXvC3UqVK2lwh7whwt/pxOCoor2iihclFMp0imU4yUxp2UymUynFOHCHvCnhS94W88S4U8S+IW6HHc8S9lL3hDhfS4Q1HI4W/0PeEOFpQh6W9Fstlst9lstlstlstjbLYmy2Wy3SLZbG64R8vSL9Iv0jHReNi10WuhtXsWuhNXsWui10YrYx0Wuh8FroTV7Frox0Wukfwv0iy/SL9IvCwX6Qn6RfpF+kX6RfpF+kJ74RfpF+kX6RfpF+kWX6RfpFl+kX6R/EX6RZZfpC/SL1IahDly4Q/ocKXL2UuFCOEOHvC3n/mXvChH/ACv3LhbqeHK2l8S4W44WpbS5cLccLfWteBUYMGDGml3ox2il2hIor2iiinFMyZKcUUynSKZTGmU+hJlMSZToplMadlMVlMSOJcLdDioop0UUNbFMpmSmJOzJTEmUymJGSmUymUNFFGShKVvrWhwh6eLHrTHvCniXxC1cKWWzJbLZmty2W+xt2W+2Jvst9stmaRbLfY27LYnktlvsyWy32W6Rb7LfY28FvstjbLfYm7LfZb7E2Wy2Wy2Wy2Wy2Wy2Wy2Wy2Wy2Jsv6FoU8OeB6EOEsnLhTxL4hbqFo4UIe8LmeJe8Kf8AmXvCy1PDnhS+Je8LeVz+p4c8anvC3HC1otlstlstlxfpRfpF+lFrotdFrotdFroddQq6LR+PRgwYMUfj7MDrBj2YswYFRg/ExSMdmOx1e5jsVZyUuyl2YpZKXZXsazuV7Ql7RXtFe0VhZRXtFe0eSyV7QlTWUV7RXtCWGUV7RWFlFFMfBRXtD8XZQlndFMpiW5TPiysFMplYRTKZTKZTGmUynZTKYkymUynoW45cuFPEraXC3Q4U8f2XxC3lbOeFCHvC5niEPdwuZ4Ut5hbytmOOFL4hbjhbytK+xa1FMplM+LKZT6KZTKZTFsUymcS4W44XM8f2XxHM8OeFL3hczxCHu4XP6nhS94W88OeFLhbj3hbyuZ4c8QtDhSta12ZLLdFstluy3Y2y2W4tlstlsTZbLZbotljbL9IvKwiy/SLwy/SLLL9GOhtXsWuhVnBa6MdFqlgx0Y6G1exfj0Ks4MdH4n40sF+J+I6swKrMGDFMwYMUjBgdWfifiOrMCqzBgVFIpdlKtyvHsrxMdlLspdlLspdopdjS7KXaKKXaK9oW+6KKK9rQtDEIc0qUoTNhiHvC3lczxLhbjhbOeFPLhczxCHu4U8KXvCnhzwpcLdHLGLfU9tTl6VvrW8UV7RRRXtFe0V7RXtFe0V7RXtHxPiynSKZ8WNMpiTsplMSZTKZToyUx3ZTEnZTKZTplMpjTpFMz0NOymJMplMp0in0JMadsyJS9lPlu4W88TwpccocLfVw4Why45HC1rUvuTyPStpe8LeLLw4ycItmR7lvsTZb7LfZbpHyfZbvct3ufJ9ib7Pk+z5Ps+TpHyZ8n2Nu2WxN2Wy2W6LZfpDeFhF+kX6Q36RfpCeVgb9ItdITV7ItdItdIx0jHRa6MdTilgtdGB0Y9mB1ZgVWYMCoxpQtDlilakOFuPStpcLeeHPChD3hczwoQ944cvZQjlwt54/s8KXC3Q4U8OeJ4UIc86VvqQjBgwYMGDBgwWjBgwYikUjDKQkrKRjhmKeSl2UuzFLJjsx2OrMdiqzBjspU8lLsx2NKlkpdlLsddmOxJZyUuyl2ilSyUu0VndFZ3K9orDyivaK9orCyivaKY/F2ymJOymUyn8SmUxp0imU+hp2U+hJ2NMpiTKisOeFLlwhwt5W+pC0OX9Dl7wtxxw54UveFuOOHqbzC5m8KE8o5ccMbEXhQjlwpvEJjexZbHd7lvsV2Wy32Wy2fJ9lumWy2W6RbLZbwfJnyY2WX6RfpF+kX6LLE9a+9y94W4/oe8LeeIRxHKHvC2cvZQt0Vlxw5rChHLhb/yeJcIe8LdSpWp8DhwnD0L6LMdKP4j+KLj+ItdItdIv0jHSLXSMdItdItdIx0WukKr2LXRa/8A1LXRa6Qmuh10WukWuhtXsWuhVexjox0Yox0Y6MYwY6E1awWreC10WqeDHRjodUsGOhVawOreDHQqpmBUOqRgVWOrZj2Ks/owUilRS7KXY0sZKXZS7Q1ncr2JZ3RXtHxYlRTKZTKZ8WUz4splMplOKZTKZRUr6kOXD20P6HHDl7KXvC3nieF9HChboe8JYcviOUPeE54l8S94W8rVwouLZcWy3FsTZbLZbLLelfVRWh8FPXWCofEuOZ4l8Qt0PS9lHKKy4Wzl8Qt0OFzNYl8RRzC3HHYxHE8LU4W44UrfWptlstxbLZbLZbLZbLY2y2Wy2Wy2Wy2Wy2Wxt4LZkbdlsTLZbMlstjbwWxN2Nuy2JstibLdItibstlsTdMtlsbeC2Ju0Wy/SL9IssvCwj+Ix0OsGOhV0YhVZgwKjBg4il2Y7K9lFFe0V7RRRUUymUymJMplMzoWpD+hwt5UqXxC3Q94W/wDJ4HD4hboccOEcL9CPHdTw5fELdDhczwpfEuFvCFs54/s8Qh6UPSmWy2W9CKZTimU4plMopiTKZTKY02UxJ2j4spiTKZTKZTKY08FMrKKZTEv/AOFFe0VgopjRQllZRRXtFe0V7RXtFYWeChLKyivaK9orDyimUxrbKKYvF2imU+hJ5KZT6KwpfELccLeVs541OEOFuOFK1r6bxLctxzKc8S45RyyxczxL4hbjccOXxC3HHDlvaE8yuf0Wy2W6RbLZbLYm7G8liedkWX6RfotdFrotVsKujBgwY9mDBgwUuzBjsqa9oSK9o+LKehSoWjhS55hSlPCl7wt0PeFzK2l8QtxxwxQ+IW6n/ly+IW6HC5/UI4UviFuhx47ytmMRxLly4Wh/SjHZ/UY7+/BgVdlLspdlKlmXXcKrRXiV4iowYMUfiUh/HBgXxtbn4+z8fZimY6MdDrGDHQmrWDHR+J+NH4n4jrB+IvjaPxK8eylTyUuyl2UqWSvaK9oayUynaKdsp9HinexTKYtnPE1hS5cKVK1r61ocLfVwpcLdDhczxL4hbqeHL4jx3Q9L4/ULdSuZ4l7wt1Fibst9lsTdMtlst0i2fJjexfpF+kWWujHQ66i0YMFoxCrWtXD0rQ4W8rZy9lLhbocLn9TxLjx3UrZ/tS1tC3iisS1t+oW6lbOeJe8LeVK2YxHCl8S9PMqVrUWjBgxFoxoddRa6HXULeLXRap4LXRa6LXRa6LXQ66LXQmrWD+Iv0i/SL9Iv0i8IstjbssTyWy2W6ZbLY28HyfYm73LfZ8mfJ0Wy2NvB8mJ5WEX6RfpF+i10Wui1SPxPxHTPxF8bGle5XsS3zwV7RXtFFMplOkUymNPBTKehqEpUrnWpUrU4UqU9ThbjjhytpcKeJfELeeIQ+IW6HC2c8DjmFupWriLZbLZbLZbLcWX6RZYv0YjEY0pfY/rcveFvPDKccFMpjKYk7KZTKdFMSGimJZ3RXtFFYKKY0ymJO0UymVhjUcKXC3lfQvpUrmVzrT03psv6LL12JjZbLZbjgtljcJ5niXC3niWWJ5LLZeGWWy3SLhssv1Kox9DRRRRUUVoUrnWtS0rQ4ULW94W8rZzwpe8Kd1Ljx/8Aql7Qjyhbr6XC3lfS4Wu2WxfUtSRQlFTRUUUUxJlOpoplMadlMSyUymJOmUUcFFDWSvZS7KXZS7HRgwOjB41ZgwUq/pSMDqzB41ayV7RXtFYZRRRTMjMi3lTw54UuXC3lfaot6bLG9F6FrstjeSxPM3hzeFL3hb6nC3n/AJlwtxxeHLhOLZbLZYnuWWcasGNaRTKc0xD1L6XLhD08S+IW44W8ueFLhbzxLhbz/wAy4W444c8KENQt1occfWt9Sbi2WWyy/S0L6WvqSKwUUNRWnGjFIpQ6swKrMGOjFbclrpH8RZYnktl+kXgv0i/SHXSLXQqvaMHDMGDFLJiGUJZRTKZTKZRX1rfUpWvh6lLl/W+NK5ly9lL3cLef+f7Lhb/yf+Ze8eO6HHDm8KW8wtFsuLcXFjZ/EYjBgxGIr2ivaKKYk8lPUuf19Llwtxwp4lwt1K5/UuXsoR5buFP/AD/SimNOymJOymUyn8f6UymeV2UzxWZrEvZT5buFvPf6+l6VvKlSmWy2XoXMVK8fFtK6PP8Az+DpmNGDH047MDowKrMGBUrMRwcotdD2U3kv0hMtlst/H+lstjeYTyWy2Zotls8m7ZbE3ZbLZcWXsWujAzGqisIplMaZTK1LeVyMQhwh6uGePi/LySXLo+X+d+Ph4eHOWzx/zVeXk1+KZ/6PjX+S8fD4/jcf+hV/n/inv8NTELRyxIaqhqHC3RzGKc1SFvD28f1C3HvC5n/n+z5buFz+p/5ny3ceO88S+IQ94WrjRZbLZbE3cWJyjEKioSKKens8W/Fprgf+m7Sps8f9v9F4fFeWD/0+fz8/HN14o8E/LySXLo/9Pkn/AKeVbLC/kvQzlD+hqFvCE54l8fqFuhqFyUUyvx/svcx2Ks/owYODHcPcoSyUUVgplMfEtZhb6UcKXL0rkcLmV9S2enw834O1uN7/AHJ4lvMJ5ixPRZbG3gtibG8lic/8z5buFz+p4UveFvPE2y2J5G8llzaMGNSRRTKZTK0LmVK2etbPU/u4hD3hbypW0viFuh7wp4UvLcLn9Twpe8KeP6PQhwp40qUOEWyy3F6sTWnh/RWqmVopjUveFvK1PiOTmFzPEt5LE9yyy8RjodXsYFRgwcaUsjUVNY+hbjhbjhTw5XP6la1s4X0MWhwhn/K/Y4Q4WhilDhbnLhTwoW49xC5HHEI5Yhbjjj+y45RzC+xwpQ44crZzw9H/xAApEQACAgEEAgICAwEBAQEAAAAAARARMQIhQVEgYQMSInEEMIFCMhMU/9oACAEDAQE/APDlf0qV4qVDFD8WLEP+h4FHK8WLCh8eSxD8uYcKFjyX9Chy/wCh/wDpFvpiWp40tll+mX6YmJNpvhZG0Wi0NotFotFotf3MWIc8yuYYo5UqHhiwoeVPLlYhijlSsypWP6OZUqHL482f9H8X4V8upvV/50q2P+b8ul18T+mnhIbb1NvLyU+nHx/AtWj7avk06erNeh/H8H1edWoWlvCKF8Gt/G9dbI+reEVUIpFIWm2lT3P5elaNej41/wAaUn+ykJFIpFFIor2yvbEv2U+2U+zT8ep/G9V7JpMp9jvuPy7KZTKYvsbjujc3N7Rubivc/Id0Ky2O7QrNze2blMVlMp+NPtlFFFe2V7ZXtiWxRRRXtlIr2yvbKK9sr2yvbKhIor2yih5RXtle35/w9V/B/I+PSvza2XY/j+RZ0M5Z8fz/AB6FoS+RLTykt2z+TrWr59bWC/ia0v7/AOHz/N/9NSdUkqoXy6dHxaPqrbzufDr0adb1alfX7H8zeh77tnx/L8a+L6ttO965R/J+TRr1aHpVL6oYsx/G0rVrbq2laXZo/k6viep/LT220pLY+HVofya9fybum0u2atX21N1lih4Pi0LXrVullv0jW/jb/DS0l2aP4/2/+S0aND+yt6m++D51pf8AI1afj00rqkL4/i//AE6Pjer8U61M+J/Hp/8Arq1/Hp06tCb0JZPj0aF8er5daunWlds5Gv42n+HoX213q1N4XGx8C+DT8fzfJr0/avx0L2+WfB8WnX99Wp1p0K2fD8a+f+Ro0JLSmz5/i+F/P8Px6EtN0tVHyr41rrQtW2zuViGKOVK5hijleSxDxLypUqViHPK8FChix4vjzcadWrS7TaY/k+R516nG47Ny2by768LfRbRcX6ZexZaNHyPQ7THr+zti1fXUmmXvdloT3Yvk1LQ9Kezj7NpW8YFqaTSecn2f1elN08mnU9LTTaaPjvX82i9Wdatn8jVp1fP8mrTh6nUpwxRzK5hzyvJYhueVN7xYnkuOCxsstRZcWi0WXNr+1eD/AKVnxYlD8KRSEkUikJIpDRSKRSKRSKKQ1sV7ZRyV7ZXtle2V7Y1tllFFbrdle2V7ZRRRSKQ0ikUilaKRShJFISKRSKRSikUikUilFIpFIpFKKUUUNFf2pw/JZ8WLEOVnyWIfHkoeBQsyuYYo5UrLlYhzyhQsypWIcvKhnLF4qHL48lNSh7CXtlFe2UVNPuFfZbjcdm5b8bfQ2+mX6Zfpl+mJ7YZ9vTLPt6Z9vTL9MtFoTRaG1RaLRastFoTW5a7G1WS12Wuy1aLRaE1b3LXZaE1SLQ2i0fZFq0Wi0closT2wWX6YnstmX6Y36Zfpl+mXgv0y/TL3wy/TL9Mv0y/TL9Mv0y/TGxMv0xvH7L9Mv0y/T8UOUasM0f8AlSpUocvwULPksePL8XFG1lIpdCSPquhpUJIpFK0UikJLeKFiGp5Xkp4UP+xKHL/stGvfTSYmqRaLQmWoTXivFijmVKxD4nmVDnmViGIZyKFzDFiHxPPghihie0OXx/Q8eLGLzXjSKQ0ikUikUikUikUikJIpFCRU79s5Uq+ymuYVn5G5ubm5ubm5uO6Ny30W7wW+i30K6wW+mNusMt9Mt9M5LfTLfTE30W+i30K6W0O+jfot9G94lFstxub0b0bjs3KZTNymb2bzuO/J2bm/kvBefK8FC8HChVDEPI8CwofEvMrEPE8ysQxQ8yuYYsKOoYsw5YsQxQ+Jf9DFDl4F5rxZfpl+mX6Zfpl+mWWWjYtFoTRaLQmqLXY2i0Wiy4UrEPieXKxDnn/JWIc8yoYsf0LLlYlQ+J5XkpWIYoeP6Fj+hzz5KaKQ0il0UikUikJIpFIpUUhpbFIpFK2UikJbFe2NbZZXtlPtlb54KfbKfbFdZKfY0+yn2NPs3vJT7KfYkU+xp09yn2zftj/bKfbKfbK9sr2yvbEvbK9sr2xLbLK9sr2yvbK9sa9sr2yvbK9sr2yvbKK9sr2xIr2yvbK9sr2yhIp9sf7ZXmsSvBj/AKVKGPieYYpWBnQo5lYhz/1KxD4lZ/yVDFDyp5FCFCxDFD4l+SlQ51Y82LHjublv0Ozc3Nzfot9G/Rb6LfRv1Fvplvpn+MbwWWX6ZZaEy0WWi1FotFqy0fZdlqj7LsbVFotCa+xaLQmqLQ2qLRaOZWIeGbFo5UWXFia3LRaE9i0NqiyxvBaLRatFlo2stFqbXk35sXi5f9KhixDnmV/Ry5S2KQ0UikUrKXRSElR9V0NLo+q6KXRSspdFISVFIaVMpFIpFIpdCSspdFLoVblLopdCSopDSKXRS6HWxSKXRSspH1XRSKRSEkUikUikUikUhpRXixeLFDF/QoYsKGIZyIYhDwLCh5XksQ55lYhvEr/1OnEasCjlChZcrmViHDHlTypWZUrEMUPzZSKRSKRSKUUV7ZQ17ZT7ZT7KfYr7in2U+yn2O6yJOsm47KZub3wb+j8hXufkfkL7H5D+1o/Lo36Ldst9G/QrrBv0NvbYt9Mt9MTd4Zb6Zfpie2GX6Y3jZl+mX6Yn+WC/TL9M0ukX6Y3tgv0yxvdF+mX6Ze5fpliedmX6ZYnsi0NlotDeC0fZH2Vo+yPsi1ZaLRZaLQmi0Nqi0WhstFoteDFiH/TzKlYEOGPiGcyuYeBQ8oXisQ+PJYUPieXOnEOeVKy5XMMWFDl+C8V/Q/NlotFotH2XZaLRaLVotFo58tOIZwofE/8AX+SoYnDyheKxD48WacIY+P3DOZ04UOXlSsudOIYsKHLypeYZyIYpT2h4li8n4UUhpFIpFISRS6KUUqKRSKRSKQ0ikUikUhpH1X2PqiihafbK9sr2z6+2VuivbK9srfLK9s+vtiTrJT7Y+Cn2U+yneSn2U+xJ1sytXY723K1FahLVbPyPyF9qPyHdG5ub2jc3N7Zubmm6PyH9qFdG47qbfRuWze8Fvot9Fvot9FvoTfRb6LfQm6wW+ht1gt9FvobdYLLfRfp+DFDlzypWZUrEOGPieZWBDFDyp5cMWFD4nlysKHlfuGLLlYhzyvLTiGLCh+XPkpWPHV5sTL9Mt9Mv0y/TLL9Mv0y90WX6Zfpllllo+yE9i0Nqi0WhtbFotCastFoVFqhtUJotFq0Wuy12Jq2Wi0Jqi0NrYtFotWy0No0tUi0N7ouP+nOnEOeZWXOnEPDFiHjy5h+C5lYhzq83iX5czhypWIYoc8uViHFI5KRSFllIaQkqKQ622KRS6ElbKXRS6PqqwfVdH1VrY+q6Pqj6q2fVdH1XQtKpbH1XQ0j6opC0q0fVH1Qlu92V7ZXtiW2WV7Y9PtlbLdlPtjXtlPtlPtjTtblPsp9lPs37N+xJ9m5TEnuP7FahXRuO6FY2zVdG5v4uXPKnleSlYh+XLnThQ55U8uViHleSxHK8tOFD4nn/ACVlzpwoeGLChy8qf+ocsUrChyxeTNzcdm5ub2jc3N7Nzctm5ubm5+XQrNx3WDfot9Fu1sW+i30K7e0q6h3Rb6LfRbtbFvot9Cbt7Fvot9MV9FvobdrYt9MTfQm7ezL9Mv0xPbBfpl7rZl+mX6Ynu9iz7IWpUi0PUqLR9kWvsfZH2XYmt90fZdloTVFrsbVCaotDa2LRZyi458liHgWF4sXk5f8ATUpSoc1uvJYhzyvLiHlSsuGLCjlSsuVhQ+JreKFyUikJKj6roaVYKR9V0NI+q6PquilaPqj6opFIpCStn1R9UJbZK9sr2xLYr2yivZU7m/g5fk5vxYsQ55XksQ55XixYh5UrLhiwo5UqVhQ+P3KzKeZTtQ8S+JfkpWIa8n5tRT7cU+2V7KKfbKfbN+2U+2U+2U+yn2yn2yn2zftlPtlbZZT7Y17KfbPq+yneSn2yn2JPsp9sp9iTrJT7HdZKfZT7Kd5KfZT7En2b9lPsV1kp9lO1uU+yn2JO3uU+zenub0tyn2b2tzc/Ip2z8vQ/suhfelgtjvb9n5H5G/2wXq6LfQm+i30W+jS3WGfb0Nl+mfZdMsv0z7ItWWj7ItFo+yLRaLmy0WvB+bly558lKhzzPf7lYh4nlQ8ilYit1DFlw8MWFHKlcwxYhzzK5nTiHL4nlSsuKQkikUhJFIaRSKQ0j6opDSKRSKX9dzZa8FD8lmVzKhzzKhix4WJ7suFhQ8qVzDwxYUPieZ08ysQxQ+J/6hiy5UrHi5YvJqKKR9UfVFIpFIpFIpCSKRSEikUopDSKRSKRSPqhJblIpCSpFIaKRSKRSKQktykUqKRSKRSKQktykUqElR9V0UrRSPquhJblIelC0qkfUaxuV7ZRW+Sn2b9ivfc37NxXRuNOjc3N7R+Rub3g36LfQrN+mWX6Zfpl+mJ7YPsi0JlotFotDaE0Wu0WvB8eXM8ypUMUPyXMMWFGrC/c8yuYYsRypWX+41YYsQ8qVzDFiHlCjmdPMMWFDl5U8+SlYhy4oaRSKRS8GWi0Wi0fZFotFotFotCaLRaE9i0NqhalRaG7LLRaLRaE0Wi0JqkWhu6/ZZfpnJZcX6Y3tgsv0y91syy/TE87PJfpmp7PYT2wy/TPtuj7IsTyWj7KhNUi0Nq0Wi0WrLRYobFhQ5eVLzKlSseLl8ebU9eXMqGLEPDFhePM6cQxYUPieZShqeVK5/cPDnlSuZ4h5UUilZSKQkj6o+qEivbGtiiijftlPtlPs37N+zc3NxNm5uKzfot9Fvo36LfRZfpjeCyy/B8S4fhzOnEqHL48lDFiHxPMqHieVK5/casOeVK5h4FiHlT/ANQxQxYh4FHKnmVK/of9TeCy31O/Rb6jfo36LfRb6N+j8ui2b1g36Nzfot9G+2xv0fl0b29jfo36NN1gt9DbrB+RuO9jc3N74N/RT9Cvc3NX2o/I/L0flaK1FauxJ9w7p7m/Z+XZWq0fl6PyFZ+Q/tR+XRerod2tjfot9F7vYv0y/TNL2Psj7KmJqkWhtGxaL3U8ysuV/Q+JfHm+PLnyUqHPK8tOIeHL48tOIc8qGLn9xqxPMrn9w8S8qeZ04h4YlsikNIpdFLopWikUilZSPqhLJXtle2JbZN+2U+zfspjTKZTGmWzcd7G/Rv14vEub3XkpWI1Yl5U/9OdOI1YcvKlZnTiNX/lz/wBKU8xqe08ynn9w8OXnTPM6cQ8CxD4EM5Qo5lSsChQ1LlrHm43NzeXZub9m5v2bm/Zv2U6yU+x4in2b2tzfs37KdlPsp9lOslPsadZZv2V7ZXtle2V7ZW5XtlCWxSGlRSPquj67o+qPquhJbn1Q0qwfVdH0R9VZSKQkj6oa2e7K9sor2b9m/ZTs/I3EnReof2ot1g36G3ttyX6ZZZaPsi1YtSLQmi12WhNVPEPyfm5cuVKxDFDnleSxDF/QsQ55U6cQ55nTiHhy8ryS2h4YsQ+J5XjSEkUuj6roSVH1RSKRXtle2UUM37Zv2O9jc3N/B/2Lxc3uvJYhxZe6m92Wi0LBaHgtFotWi0WJ7Fje2BP0xakXufZFo0vb/S0amqZaLQ2rRa8VtDwcQ+JuGKVKx4PwfH7l8ebUUUUUipSihKKUtRU0UUUJFIaKRSKRShIpFCUNTzOnEOeZWCkNKopDStFIpFK340b9m/Y72Nzc3tG5v1Fvov0yyyy/C14N4l8eb8nKleLnlSpWIc8r+hzypWIeBRzKxDl5XksQ5fE8ryU8eFIpFIpFRQ+Irxc8llxaLRZaLUWoTLQ2Wi0WrLRaEy0No0tUi0Nqi0Wi1aLLiy/TE9sFvpjb6LfRb6N7xG4mzcd0bn5H5fYtm4ro36NV0y/TL9M5RZZaLUJ7FoeHL4hnK8ljxcuXL4F4OGUUooqKK86Kiija/ClCWyhzW68liHPM6cQ8Ss/5OnEav/LFHK8ktikUikUh6UUUcxv2bm/Zubm47FZb6i4bLRaG1L834uEPwXi55lQxYUPE8ryWIc8ysQ8SsysRq/8ALl5XksQ5eVPPksQ5YocNDEkUhoor2yvB+TZZfpicp+FjZZZe5ZZZZfpll+mWWW+i91KuNxXRuO6Nzfsp3kr2yvbEtssaHpVH1RXtlb5K9sp9iTrJT7Y06yb9m5TtG4/sWy30W+hPbDLG9mWi0Nq0Wi0X5J7Q5cuXxL4/fm8r+xeL8lDFiHxNbry04UOeZ04Uasf6pX/r/J04jVieVKy5WIctK0UuikUikUUUV7Yltk/1jNzc/I3HZb6LL9MsstD4LRfi8rxZyheDFDcMfgoUMWIfE8ysudOFDnn/AAtFoTVH2Rqadfs+yLRa+3+FotGhqi0ansXF7qVlzpwocvK8X4LHi5cviWikUil4PKi5baFqbN/DcV0OFG9m8U7jcVm47FdI3Hexubm95NymLLivbEtkV7Y0tikUilf+FIpCSopGpY/ZSKQkr/wpFI0pUUjVpVFIpFIpFe2JZ3ZT7ZuK6Nx+FlnMWhNFotCx4uXxL4l8C8nlDdIp022PVuksmi99+Y+P/wBav35LwcYobEy4UOW3sO4vcULL/cMWFD4n/r/J04UPj9yszpwo14nlSuZWIeJcrMopFIpFIaRRXtjRT7Nx3sbm51LeC0Wi14PKGrTRQ9Om7o+NUn+xs0KkvJYFGm046/fglUacQ8Odtp/6X6ixNb/stDYsItDa2LRaE/y/wv04WEb9Dvb9m8b3gt9G/QnsX6ZqdotFotWWWhNblqFhRqxLypWXK58WKHL4nlS+IpFLweUbm5yJD02JbzXi0VDXhQ0aVtDQlNFFblFCSKRSElRSHxP/AFOj/wAqNXH7nmViHPP+SkikNCWxRUb9m9o3NzctzZYsFobVFotDqXxDOVPXm86Z5Uv+ti8UIcvjyXP7hixD4lZf6U6X+Kh8fueXKxDn/pfqVDFiHPMrxfhSKQ0iivbK3U72jc3LexZfi86f6bLm0Wiy4steCxDct48bE8w2XsWPiNze2U4S2KHx+4r2VG/Yro3N43OfCxsTi558lDly/J5UvzeVPM0rleS8OfBQ4pDlSpWIeUKOYYsKNWdP7lZlYh8Tz/kqHL4h+VuXLl8TypeVLFP/xAA3EAACAQMCBAUEAQQBBAMBAQAAAQIREiADMRAhMlEiQUJhcRMwUoEEIzNDYnIUgpHBBVOhJPH/2gAIAQEAAT8C+wyOLF9pi+0xYvJYvJYyyji91iyO2PnjLKOPqxlsxbYreWM9so+fzjPbJdTxlsyOyx81lHGWXnixY+eUcZeWS6n95kcWLHzyWLxYsfPJYvJeeLyj54vdYsW2K6njPKOPqWMtmLbGO8sZ7fvKPn84zyXXLGWzFtj6llHGWS3xlsLH1ZR2xl5ZLqf3mRxZHHzxYvtrF5LGWUfPF5Rx9SxexHZYrqeMsobY+tYy2YtsY7yxn/7yj6vnGeS6pYy2YtsfUso4yy9WMthY+rKO2MvLJdT+8xIpLuUl3PF3PqqtL4nMVTxHjPH2Ky7HMrLsOTXkQ1ZS9Jc+xV9hNl3sXexd7F5UuLy8v9i4Ui5F6LkXIbLkXR7lUV4R88ZZR88XlHF9SxexHZYrqeM9sobY+tfGM+l5R6pYz8vnKHn84yyj1Sxl0sW2PqyhjLLzxlsLH1ZQ2xl5ZLqf3mQ4TnQslqbs/wCl0xRUVQWc3yNJcuDF9pi4UKIoURREoqWqixFkSxCRaWlhZ7jRb7lr7lr7lH3KPuJMpPuUn3PH7Hj9h1PGVl2Ky7F0vxLpfiRb7Fz7F/8Aqy//AFZf7Mb8SLvYv9j6nsz6i9xyFLkXFyL0XRLvEXx7l8O5fHuXx7kpIuRciqLl3Kog+RUqV4V/qfrjUqanSxMqVRVFSD5yKouRdHuXR7k3t8l0e5eu5ei5FyIySqXovRei9EnUv9mX/wCrL/Zl7/Flz7C3Zc+xV/iVl2Ky/ElWgq0PF2PH2PGeM51PGeP2PGeIpLuRTKSPEUl3KT7kqlH3KS7lJdyku5SXco6lGeI8RSXcdTxdykzxlJ9zxnOp4jxHi7lJdzxEani7ni7niPEOpzPEeI8R4hVuZ4jxdyku5SXco/ssiM6piXBiKly78ZvmR0573Mm/IiqLg5LuR4SlQhNt81wuVaVK4Mji3zRJ0RoVbcsI4vKHni8o9LNJ3QTwe6xexHZFChQoLqZQoiiKLsSKItRai1Fq7EEqFqLEWRLEW+IsR9NH00fTiSiki1FiLIlkexaiC6vktRauxbHsWrsSS5fJRdii7FF2KcI+eLyW7xltl6so7Yyy88WLHzyji8l1P7zIktmaPVxZ5Eqy5IcYwRpV4L+4NkU3Or4TlQarsiHSTlzohRoQXmarpEpFUfmQbepgxYTk9lufR5+Jkq3WJuhFWonLyRBUiMjjLg2kfW5Vpy4ak6ckqsh9T2NGcpXV4X+O1fs1J2xqNarVa0JS+pZF/vg9R1pFCGS1Y/TlRmlPTWnFXIqfVm9VKNKefCc1Fqpp3vnLl2Q3RC1Z/VUXS17D5H1YPkiOyxj1yxnlp9OPr/WM9soer5xluvnKHni8o+fzjPpy9WLIbYy8slu8WLH1ZR2xlkup/eYhil9ObrsfUh+SL49+Lg68mfT7kOXCWnWVakdPu6lOEoutUVfYRZzqSQiSTXMWlFMt8dcGRwrZN1RdKb2oLTS4WyjOq5p8Y4y4T8U1ESSXCV0NRytqmfUm06RNJUiibti2aS5Ve7NaLaTXkxynKlI0NOFNV/BN0i2aMaRr5vgzUinakvMWlpr0ol0P4NCKUFwX9TX9lw/k9MV5VIpzmpUpGOx/I/tlFavgjtiup4z8vnKHTj6/1jPbKHq+cZbr5yh5/OMvL5yj5/OM+nL1iSW2DI7Yy8slu8ZbCx9WUcZZLqf3pCZUla90Waf4nh7DZci5FyLkVRXmVRVFSoxPHzxYvtMji+EtOrrWjEpecuNKxkLCXkU8xqqoQjKPKtV5cYx8V3FacYuq4KKjJU4SipKjIxtVKk+iXwaX9kWyxXU8Z/8AvKG2Pr/WM9soefzjLePzlDb94y8so+fzjPbL1vFkdsZeWS3eMhY+rKOMsl1feYsqFCiKIoihRFqLUWocRRLS0sLShaWFpb7jiKJb7lr7lH3KS7nM5niPEeM8QqlZdisuxV9i59hsu9i72Ly9FyIvcuRfEuj3Ll3JMuRVFV3KoZF4+pYa1zhSK3FG2CQtsV1PGWUOnH14z2yh5/OL3WUNsXuso+eFSexUqVKoqV8RUqiqLl3G0RZVFyLkXIbLkXIuRci5CfMuRci5FyG0VRci5F8S5FeZci5FyLkXITRci5FyLkNlUVRVFUVRXmXIuRci5FV9lixeSxYsfPFix88WRxeSKFEURRDRRFqLV2LV2LUJItRYixFiKKpaixFiLEOPIUS0s92We7LfcUebLX3LX3KPuWy/Ikny5+ZR9yku5SXcpLueIjdQ8Z4/Y8fsePsjnceI8fY8fsePsSuoeI8R4zx+x4xVPGeP2PGePuO6q5lJdyku4tJqUpXblJfkUf5EVyLX3LX+Ra+7Lfca2Lfcs9yz3LC0iixFiLEWIaRai1FkSyJahLxMtRauxai1dhpCSKIoiiKIaKFChQoU5lChQohoSKFC1FEU5lEURRFEUIlEWooiiGiiLUULUUR5lChT7byeSxYsfPFkdsfPFkcX5ZRxeUcfUsXsLFbvGXl85R2xXVjLKO2L6o5R2xe6yj54yyXU8ljLdZLfGQsfPKOMsWer70vtsWLFj54sjtj5rKOL3WUcX5ZR2x9axls8lvLGXl85Q6ViurGfl85Q2xl1RxZDpxe6yhtjLJdTxYsZbrJbvGWwsfPFkcZYs9X3pfcWLy88WRx88o4vyyj54vyyjtj6ljLZ5LeWM/L5yh0rFdTxn5fOUNsX1xy0+nF9Sy09sZeXzkup4vYjti91kt3jPYjj6sWRxnsLH1/ee5ai0tLS33KH7PqL8iku54u54ijPEeM8Z4zmeIrLsVl2KvsVfY8yr7F3sXexd7DfsKXsXexf7MvLkV5lyL49y+Pcuj3LkJlcHvlHzxe6yhtj6ljLbKPVLGXl85Q6Viut/GM/L5yh04v+5HFmn0rF9SyhtjPy+co9TxexHbF7rJbvGWwsfViyO2MxY+v73nxboS/kU8jT1b+EoVJc3RIiqIkm/M+pqac7ZuqfmR54vJYsWPmUKFEWrsUQki1diyPYsRYi0sRZ8lnuyz3Zb7ij7lH3LZfkWz/IpLuNPuUl3PF3PGeMakRuoeP2PH7Hj7I8fZHOp/U7I8fZH9Tsjx9kO6h4jxdisuxWf4lZfiJusi5/iXP8WX/6sv8A9WN7ci//AFZf7MvXZl69y4jNURfEviXx7l0e4peIvj3L13L49y+Pck60+S+Pcvj3L0Xx7lyIS5Fy7j1ILdl8e5fHuN+NMvR9RF6PqIc1RkZUii/2Zd7Mv9mX+zK81yLvYvfYu9mXv8S5/iRcqbF0vxLpfiVl+JWXYlXlyKz7FZ9is+xWfY8fYV1Wf1PY8Z4/Y/qex4xXHj9jx+x4zx+x4qo8RSR4zxniFU8R4jxnjHcJSPGeI8R4/Y51PGeM8Z4jxiqeM8Z4jxErqCuPH7HjPGeM8Vx4jxni7lJdyku/2fPjPnOhbFLYgubPPhqRtmmhcP5CrA0OcF9tb4sWPnixYvKOLyjtj6sZbMWMd5Yy3j85Q6VwoURQXUyiLUWrsWrsSS5fJQoiiKIoQXIoiiLV2KD64lMGR2WPqWUNsZeWS3eL2I7YvdZLfGWwsfPJYyxZ6vvefHVhqXKUBXy3VBKh5jkkRV8q+XH+Q/AaH9tfbW+DGLH1YsWLyji91lHbH1Yz2eUd3jLy+cWR6VjHqeMvL5yh04+tYvYh0rH1LKG2MvT85R3eLFti91kt3jLYWPniyOLy8/veeS3HBPc24/yOfI0uUV9tYMkR2x9WLFi91lHF7rKOPqxlsLGO8vnGW6+cWR6ViuqWMvL5xZDpWP8Ak/WMtmQ6Vj68XsQ6VjLyyju8XsR2xfUslu8ZbCx9WLI4yy9X3vMq+xV9ir7Fz7FfYqXFyL0OaOqYmXIuRci5FS5Fy7lV3KoqJlVhIjj6sWR2xe+UcXusWR2x9WM9hYx3ljLePzi9iPSsV1Sxn5fOLIdKx/yL4xlsyHSsfXlHbF7rKPnjLZkdsXuslu8ZbCx9WLI4yFj6vvLf7NBxFBISKFEWotRQoURK1eRai1CRYi1FqLF7k6RVakUpRTHVaqjXcs92Wf7MtfcpzKPuUl+RSf5FJ9zxCuPH7HjKz7I8XYdSsuxWXYrL8S6X4lX2Ey72Zd7Mv9mX+zG+aLvZi1Y89y9F8S5Ckki+JfEvj3L49yquLkXx7l8e5fHuOSLl3Lo9y6Pcuj3Ll3Itcyq7lUVXBvmsZbMjssY9UsZbx+cWQ6Vj68ZbMj0rH1/rFkdivCpUb5oqVRVFV3KoTXMqi5dy5dy6Pck1QjJdy5Fy7ly7l8e45K5FyLkXIuXcuQmqlyLkXIuRJqgpLuXR7ly7ly7lUV5lUXLuVRcu42RZVFUVRVEhMqipXg34iqKouXcuXcqvsrf7bF9itdT44rH+U/B8kFbCK9iHi/kS9sPPKOL3WUcXuuGm/wD+nVXZLiyOxQoii4erhQoURLbhRFq7Fq7Fq7EUqstj2LI9iyJZHsOKqixFiLF7liHEUeS5lnuyz3LH+TLX+TEub5lr7lsvyLZfkWy/IadY8y19y1/kWv8AItl+Ra+4k6LmWy/Itl+RbL8i1/kU8f6Lfdlj/Jlnuyz/AGY48nzFHki33LPks+Sxd2W8yxH017liPpxLIkYqhZEsiWIsiOPNFsexZHsWR7Fkexauwki1di2PYtj2LY9iSVGJKhai1di2PYtXYoqlqLV2LUWrsWoSLUWotRRdiS5Cii2PYtXYtRainMoi1FqLV2LUJItRai1Fkew0i1FqLF2LUWoa5ooi1FEURRfZW+SxYs2aVKydeKK4a/i1Yor4T+MvDJ92aupYjR15ym4yXlwlrO+mmrmaOs53KUaNE5qEW2af8qE1W1ohqQn0sZHbF7o1NVaf/oi9eqrGNBasHJxUufDU1Jp0jpOR/wBTqQpfo0XzxetBaih5j2Zpu6MWI/j8/wCRrviyO2Pq/WM9so+r5xl1RxexDpWMd5Yy3j84sj0rH/J+sZdLFssfX+sWR2xe6yj54y2YsX1LJYsWPniyO2Msn1L7yyWLFnrypps0/wCPfDxM0o2eGtSTomR0Vq+Nza+D+OlfKjwX97UNT+2/g0P7UT+TS7TrtU09LTh0o/lTajat2aUPpn8Zc9SXdn8qVtnavMlr6dvgaZ/FTsbfmxkNsfNGo1H+TFz6aciWpBRbuR/D0/Ddw1Z2Qcj+Po3/ANXU59lxbWj/ACZSmvDLZkv5D1pWaPNechK21cP4a/uy7y4sh04+v9Yz2yjvL5xl1RxlsyOyxjvLF9UcXsQ6Vj/k/WM+li2WPr/WL2I9KxfUsoeeMthYvqyWMthY+eUcXl6l95ZLFixe/DW05ThRbkV/KoouKXuQgooaqiH8Z/8A2O3saem4aj7YS0/HcmUqhRUVREoRkqNEIKKoqjhFtNoa5mnG2NBpPdH04RTtijRVNNIZHbH1IlGMlSSqf9NofgjSh9ONteXlw/kQc9NpGlr2xtlpzr8CdVWnBpPdHJbIfUiXTL4P4a/oR9+fFkdsfW/jGe2UN5fOMuqOMtmR2WMd5Yvqji9mQ6Fiut/GMuli2x9bxlsyOyxfUsoeeMthY+rJYyFj55RxkLF9S+8kWosRYixFokW+5b7lr7lr/IaZR9yku54+5SZ4ykqnjPGeM8fY8XYVxWXYrL8S6X4lz/EcvYufYv8A9S//AFZf7Mv+SvMvXufUiXxL4jkiMlQuiXx7l8e5dHuVVyLl3Ll3KruVRUi+WPqXBJJUXFkdsV1vGe2UPV84vqjjLZi2xhvL5xfVHGWzIdKxXW/jGezFtj6ni9mR2WL6llHzxlsLH1ZRxYsfPJYyFi9191kcWL7fnlHGQsfPFiXIoi1Fq7Fq7FFci1FsexZHsWR7FsexGKLEWI+mixFvNFhZ7ss92W+7HH3FHluWv8mWv8mWv8mWvuynifMtf5Mtf5Msl+bLZfkSUqblsvyKS/IpLuUl+RSXcV3PmePuePueP2P6nsO6qPH7H9Tsiup2RWf4kq0fITlTYun+JdL8S5/iXP8AFkW/Fy8y9/iy9/iy9/gy9/iy7xLkXP8AEvf4sv8A9WX/AOrHKqfJkZclyL/9WX+zL3+LL3+LKu98i72L3+LL3+LL3+LJt02E32Ln+JWX4l0vxLpfic6vkVl+JdL8S6X4lZ/iO6mwruxWf4lZ/iVn2Kz7HiuRWXYrPsis+x4+x4+xGp4ys/Y8Z4x3U5niPH7HjPH7Hj9jxVPGeM8Z4/Y8Yrqnj9jxnjPGO48RWZ4ysisuxzqeLsVn2Kz7FZdisuwqlZdisuxWXYq+w2yr7FX2KvsVfYrL8Rt1KsrLseI8R4vsMjixYvLzyjixYrfFkdsX1LKG2PqWLFssV1vGe2UfP5xfVHGXSxbLGPq+cfUsZdL+CPSsV1PGfS8l1yxewtsfUso4y2y9WSxYsfVksZZPqX3WRxYsXl54sjjIWK3xZHbH1LFkNsfUsWR2WK6njPbKHn84vqjjPpYtsYer5x9axn0v4FssV1y/WOp05LqljLZi2x9WUcZbZerKOLFj6so4yyfUvusjixYvLzxZHGWXniyO2PqWUNsfUsZbMWyx9TxntlDz+cX1xxn0sWMPP5xfVHGfSxbLGPXPGfTkuqWMuli2x9f6yjjLbL1ZRxYsfPFkcZCxfUvusVSr7FX2Ln2Ln2KlS72LvYv9i9DZ9WjStL0XxL49y5FeZciqKruVQ2RZUrxYsfPFkdsfXlDbH1YvYW2PqxntlDbF9UcZ9Lyh5/OPrWM+li2xj1Txn05LqljLpYsfWsobYyy9WUcZbCx88WRxkLF7r7rI4vJlCg0aUrpS9iiKcyiLUWLsWRLIiiixFiLEWIcSxFhZ7ss92We7KFvuy1/ky19y1/kOL7iTpuUl+RSX5FJdzxdznceLuePueP2P6nseIV1OR4/YrPsis+xWXY51Ky7FZdisvxKy7DbpsJumxc/xLn+Jc/xLn+JzrsXexd/qy7/Vl/8AqyTLvYv9mXr3L/Zl69yMuRevc+pE09V+O/8AN28vI+pEuTki+JfHuXx7l0e5KSoy5dy5dy5dy5dyqIPq+SqKoqipXxr4KleM+lifCvGPVLGexUqVRVFRPxPhUqiqJPkJoqu5VFV3Kor4iq7lUVRVdyq7kWVRVFV3KruSoVRVFV3KruVXcqriqKruVRVFURZVFSqKokxNFUV4154sWMsnuvusWLFxrwckhPhrStiz+NGkK9+Hnix/ylF0UHIUk8GLFb4y2I7Y+rKG2PqxewtsVu8ZZR404PrjwoWotRNeFlqLV2LV2LI9iyPYjFc/ksj2LI9j6cex9OPYtVy+CyPY+nHsWRPpx7EoqjLEfTifTifTiWR7EUqssRZHsWRLIkkqFq7FkexZHsWR7FkewoqrLI9iyPYsj2Ppx7EopRZaiyPYsRZHsWx7FquLV2LI9ixFiLV2IxVC1Fq7FkexZHsOKLV2LV2LI9j6cexZHsUVxaiyPYsiWIsQki1FkSxFi7FqLUWotRYixFqqWosRYWlooliLC0tGi0tLSwt9ynMtLSxFpavsMXDXbWm6H8Nux1EzXlPaO5p/WivG6ilUm3KVpCFqNWVsakY3eKYtXxKMVw/keKcYi5JcPPH+VKkDRpHTFNan8hUweS3xlsyOyx9WLIbY+rGWwsV1PGXl85Q2x9ax1Ol5Q2fzj/kXxjqdLyhvLGeS3ljPbL1/rKO2MvLL1PKOMthY+eUcZZPdZN0zYuEtjTU+mlDY1YyrWIlqy6qIpRCbjqOsWI1NO+ND6M+V0zSir37cIquu/bhJVRBU88dXTvjQh/H1JK2Wp4SEYx/k2ryWDyW+MthbY+rFkdlj6sZ9LFtjHqljPy+cobY+pY6nTlDb94/5V8Y6nS8WQ3l84z2/eS6pYz2y9eUdsZeXzkup4sjjLYWPnlHGWT3X3WLF5MhGleCglKvDUvp4SHviyJbT+Sn3WEslu8ZbC2x9WL2IbLH1Yy2YtsY9UsZ+XzlDbH1/rGfS8obY/wCT9Y6nTizT3n846nl8rKO8sZ7Zf5HiyHTjP0/OS6pYsjjLYWPnlHGW2T3X3ZFpaWe7LPct92ULS33LH3LX3LX3KFJdyku5SXc8fc8QqniPGeMrqdkeMVx4uxdP8SsvxLpfiNt+RV9i5/iXP8S9/iy72Ynz2Lv9WX+zL/Zl/sxyqhSL17l6PqL3PqRLlWpfE+pE+pEvj3HJEZKhfHuXx7l8e5dHuXK4uXcuj3L49y+PclJUFJU3Ll3Ll3KruVQnzZVFUVKk/L5yhtj61jPbKG37x/yL4x1Ol4s095/OM/L5yjvL5xnt+8vW8WQ6cZeXzkup5RxkLHzyjjIWL3X3ZCxeXnksWR2xeS3xlsLYoU4+ooUKFCWxFciiKItXYoiiuKItRZHsWx7EkqFq7FqLI9iyPYsj2ElVlkexZHsWRLI9iUUqfJZEsRYixFiIxVCz3ZZ7s+n7ss92U8X6Lfdlj/Jlj/Jlr/Jk07dyj/Itl+RbP8ikvyKS/IgnTcpPuUn3KT7lJ9ykr/0ePuePueM/qexO+nkeM/qex/U9j+p7H9T2IKVZfJ4z+p7Hj9j+p7Du5V7njPH7H9T2PH7Hj9hXVZ4/Y/qex/U9j+p7E7qczx+x/U9j+p7H9T2P6nsc7jx+x/U9is/YrqdkP6nZEbqFdT2Kz7IrPsiup2JV5FZ9is+xXU7FZ9is+xzqVn2Lp/iXT/Eu1PxKy7EXLsVl2Lp/iXS7F0vxJN9isuxdLsXPsXPsXP8AEq6lX2Ln+Jc/xL3+Jc+wm+xe/wAS/wBi72LvYk+Rd7F/sy8vLhyLvYvL/Yv9i77EhYvLzxZHzxZHGWS3xlsLbFdeMtmR2WPqxlsLFbyxl5fOUNsfX+sZ7ZafTj/k/WM+nKHq+cZeXzlDeXzjPy+cl1vF7ENljLyyW+UcZCx88o4vJ7r7shYvLzxZHFkNsZZR3eMthbY+vGWzI7LFdbxn0ixjvLGfl85Q2x/yfrGe2LNPpxXX+sdXpyh5/OM/T85Q9XzjPy+cl1PF7EdljLdZLd4sjjLL1ZRxlk9192QsXl54shiyO2Mso7vGWwsfXjLZkdliut4z2yjvL5xn6fnLT6cf8n6xntlpdOK6/wBY6vT+8oefzjP0/OWn6vnGfl85LqljLZkNsZbxyW7xZHbGWXqyjixYvdfdkVLvYvLy4uLi9F6L0XouRfEviXovj3HKPcTSLl3Ll3Ll3Ll3G0RpwrxkLGO7xlsLH14y2I7LFdbxltlH1fOMvT85Q6cf8n6xntlp9OK/uP4x1Nv3lp7fvGXp+ctP1fOM/T85R6pYy2ZHZYy3jlHd4vYjtjLYWPqyjjLYWMt0L7kvsUKFOFOZQoiiLUUQkikSkWWR7FkexahRVCxGrBWM0IqWmmfyWoQ5bkNOkY9yxH04n00fTRYhQLEWfJZ8lnuxx9y33LP9mWf7Msf5Msf5MS5lr7lr/Io+5bL8iSdNxRfcpL8i2f5FJ/kUl+RR1fMpL8ikvyJ6qhOMHLmyk+406blJdzx9yk+5Sfc8QlLmeM8fsf1PY8fsSu5fJ4/Y8Z4+yPH2Kz7ELqFZdis/xLp/iVl+Jzv/AEVl2LpfiXS/Evl+BJumxdL8S5/iXv8AFl/+rLvZkJOhf/qy/wBmfU9mX+zK+P8ARf7H1F7n1F7n1Ik5I+ovc+pE+pE+pEviQkki+J9SPc+pEviOXT8l6L4n1Idy+PcviQkufyXx7l8O5fHuXw7kpJ0L49y+Pcvj3L49y6PcUlcy5dy6Pcuj3L49xtU3IvkXLuXLuVXcqu46VRVdyqKoqu/BPm8ZbEdsZ7Cx9WUcZCxe6F9x5eeXniyJ/KlTT92fxoWaMVxZHbh/KlbpM0o26cV7Gr/U/kacRk5xhGsnyITjOKktuLaI4yyXU8ZdLFtiup8f57UYxfqb4S2yj6vnGXp+codKx9b+MZ/+8tPpxXW+FOM/L5KFChQoQS//AEoUKFCW8fkoUKFChBKhRFEWotRJc4/JRFq7Fq7FsexauwkqstXYsj2LI9iyPYcFTYUVQsj2LI9iyPYsj2HFVRZHsWRPpxPpx7FkRRXMsR9OJYj6cRwRGCofTR9M+mj6aHEsLPcs92We7LPdlvPct9yz3ZZ7ssf5MtfcjEtfco+5a/yKPuNPuUfcpL8ikvyKS7lJdxp1KS7lJ9yk+5SfcpPv9h5eeS3xZE1fH/IhA/6jQTtvQmnwZHbh/K5y04+/DRVdfVZI11PX12km1E/j6b09JRfD+T/J+kuSrJ7H05PSlqa+9Nux/D56OMhYrqeM9mXwXJyR9XS/+yP/AJOT4VVaVKpN14/zPH/L0NP44S2yh6vnGXl85Q6Vj/kfxjPy+ctPpxXW8Z+XzlDbjO6127+QtlUl1QyhtjLePzlHeWMtmR2WL3WS88ZbEdsZZeeUcZbCxe6+68vPJb4siTi5fyZI+hoQj0miqR4MjtwnoQm05V5FKIhpKEpSruSNPTnDVk/TLi/48Jav1H/4P5VfpNdzRjbGmM9sl1Yz2ZLQ0Zc5RJxjqSs/j6K95s/j6H0YUrV+Zrz+npTl2R/G0qf1fOaR/JpKMofBCNsIr24R8f8A8lJ/j/8A5wltlD1fOMt185Q6Vj/k/WM//eUOlYrrljL0/OWn04vrjlDpxlvH5yjvLGWxHbF7rJYy2I7Yyy9WUcWLF9S+7LfLzyW+LImpoTc7oToyGhKt2pO58WR2xllHzxntkup4z6T+XGb0PD+zR/lfxoxUekhqRmqxNTTWpCUX5kV/NglBKLS8zR0mpNzdZcG6Jvsj/wCPjy1NR7t8J/8AvKPn84y9PzlHpWK63jPy+ctPpWMeuWM/T85ae2L645Q6VjLeOUeqWM9mR2xfVHKPnjLZi2wRLLzyjjLYWL6l92RR9yku5SXcpPuUn3KOu54jx9zx9zxnjFU8Z4zxnjPERuPGVmVn2Kz7Du7CuKz7FZ9isuxWf4jqVl2LpfiXS/Eul+JdL8SLfYuf4lz/ABLn+Jc/xJN9i5/iXv8AFl7/ABZf/qy/2YnzLvYv9mX+zL/Zk3VF3sVh+H/4X+zL/Zl/sxPmy81JV05qj5o/i+DQimu59Re5KRei9F6PqIvRB7l8T6kS+JfHuSaqi9F6L49y+Pcc13IyVC6Pcvj3L49y6PcTV7L49y5dy6Pcuj3JNcvkuXcuXcqiqG0ab8JVFVxj1yxn6fnLS6cX1xxZp9OMt45Q6pYz6WLbF9Syj54y2FjIWPqxZHFixfUvuvfLzyWUcZC2xe6yjjLJb4z2yjvLGfl840I+fyUKcKIl1RKFCiKIaRHYoiiLUWoS8TLUWosXYsj2JJcvksiWR7FkexZEsiQinFH00fTifTifTiKKukWI+lE+lE+lEcErfksR9P3Z9Nd2fSXdlnuyEaos92fT/wBmWf7Msf5McfEuZY/yZbL8mWy/JlsvyLX+RCLpuWy/Itl+RSf5FNT8hqXLmUn3Kancpqdz+p3PGJOrPGf1PY/qex/U9iV1BXUKz7IrPsis+xWfY51Kz7FZ/iVn+JdL8SsuxFy7FZfiXS/Evf4l7/Ecn2FJ9i/2L/Zl/sfU9mSl7F/sXrsz6i9y9F6K+IvRei9F6HJEJFyL4lyLl3HJCki6PcuXcuXcqhvmiqLkVRVFV9h75eeSxZHGQtsXuso4z2yWM9so7y+cZeXzlDz+cX1RxZDpWK65Yz8vnF7Gn0LGPXL9Yy3j85aXQsfXHFkOlYvqjlH1fOM9hbY+pZRxlsLGXlwoU4+fChQoNEUULUWooiSQki1FqLUWoa5otRai1FqLV9h75eeLI+eLI4sWL3WUPPGWS3eMso+r5xl5fOUPP5xfXHFkOlYx65Yz9P8AyWLNPpWMeqWMt4/OWn0LH1LFkOlYvqjlDzxnsLH1ZQxnsLGW6yXViyOMhYy6l9175eeUcWRxkLHzyh54zyj54y/95Q9XzjLy+coefzi+uOL2IdKxj1yxn6fnFmn0LGPVLGW8fnLT6Vi+uOL2IdKxfVHKO7xnsLH15QxlsLGW6yW7xexHbGWT6l92Rci5dy5dy5dy5dyvMuRcu5cu5cu5VCZVFV3KruVQ2RaKoqiqKok0JoqiqKlSqqVXCpUbIYzyj54yyh5/OMvL5yji+tYvYh0oboqkZJ8V1Sxl6fnFkOlYx6pYy3h84s0+hYvrjiyHSsX1Ryh5/OM9hY+rKOMthYvdZLfGWxHGQsXuvuvcoiiLV2LUWopzKItRai1FqEi1FiLEWocUJItR4G6FiLEOKFBFiLEWIsiWosRZE+nE+nEsiRiixFiLEWIlFFiPpo+mj6aGooik6liPplh9NDjsWFpZ7s+n7ss9yMdyz3LPdlnuyz3Y47FvuW+7LPdln+zLfdkVyLfdlj/Jlr/Itf5McXcuZa+5a/yLX+Ra/wAi19yMXRczUTpSppxl3LZfkWy/ISdXzKS/IpP8ik/yNS+7q2KS8NWUn3KT/IpPuU1PyKT7kbrVzP6nc/qdz+p3PGK6sj+p7H9T2PqTvpyPH7Duqjx+x/U7Irqdiup2G59iDlauRdL8S6X4l0vxLpfiVd65Fz/Evf4l/wDqy/8A1Y5ctiMuSL/Zl/sz6i9y9DlzRei+J9SPc+pHufUj3IyXMvj3L49y6Pcuj3JtUFJFy7lyKruVRXxFUVWEMZCxe+S3xexHGWT3X3fPhLVUSMruK3yjixcNXlKqIuqXCWwnjXxUxZHGfljqPxmnthUl5fOUPP5xe6wrwhthU9SxlJdyHSvgk+ZBciq4R65cZOiqRV0iW8fnGWzIdEcY7y+eE3SJpx8+EuqHzizT6Fj/AJF8YvZkOlYvqRQoUQ6JEF4yPmWotXYtXYtROKoWosRZEsj2LEWqpZE+nE+nE+nEsRGKofTR9MsLPclEs9y33Za+5bL8i19xrnuUfcpLuUl3KS/IpLuJPueLuePuePueMdwqnjPGVkVmOpWRWfYrLsVl2Ky7DrVFX2Ln2Ln2K+xd7fYe5OVEKLm6mlybRqvwml0laPBs+tHYjw1mzTUvPgm7miO3Cc5XeI058lw15OlEKc15mjO+I3RD1ZS6T6ko8mRurcQdUa+q4Lw7mnrTu8T4eL675kdsZeWEpSXkc3I09jUnqPVonyI7GpqO61D06RuqV5QNWTjDluaP1K8xtJH1nN+Dhp7fvF7r54SdEeN7DblOIxSpp1IOsUxTrOhOVEWz5SIzu1UMvudEJUNRn0/DzE7NKnmQi3zJOiLHIq4eZHqkTlai+ZKV1DTjRGrKlvyJ6m4pJ8JajuoiXS/g0+iPxjDefzw1XV0I9JLVSPqRk407kZxe3Ba1XtwZp9Ecf8i+OMpUkic6CTabPrNU5ciE1Ickj6kxOqJzpNENS7jrS8jRXKrPqKMW/c0ta/fhOdqITuRPbL1ZQ24VXGQsXvlHGWxHbjqyoabbXMeT6l917mrKrSIxohcpk3fJISoj+Q3dRGjFqPMnKiNKMq1qavQzThJy2IcNTY05VRrM01yqLbhqqsiMUlw/kKVTS0XLm9jRVKn8luiRoadI1NSEnqkl0oiqI1+U60NGF7u4ajX1FQjtjLdfOEtjTRDz+Syk68IaLUqt1JqqPxJxuRFUP5N7SS/ZoQpHhp7YvqjwmrlQs1Nq8iC/qDGq6R9R2qNDShTmzVXIjfIjGmoa7agaEaRq+E41Q3OhGDaTfCexe6UoOLrzIc5TNbdF9OUSMHvw1uqA5NmlvwivEyXSyHRH4xh1T+eG74ermaltY29zQhux7EKKdHwexp9Cx/yL446q5GmnJ8yXS/ge1DQ8xtuQonkL+4qk3H0mlNtcF4pcK+I04+KvDW6iCSRPbL18dSdp496jZpvkSkJeZHUldwnNEWyepTYX8iVeaE6rh6so+fBzSFqRfCclQhOL4ydZEOSGXxXmJ1wfUvuzIQrKr4aqe6NCL3a4OFZcJxuIRoiSqiKoiPCcXIhG1E4XCjREduFnirxkeQlQonx9XCi4M+lFENsZbrGlCG2Mt45Q2/eL6o8W6I0uc3w0+kosPWsWuTI9KwaIdUxxqfTjxmquPyURFU4LrJdLIdEfjGG8/ngo8+E9NSHpJOPyRXIlKglWVeD2NPojj/kXxjPpfwfTUkhRSJRfkRu8+E4O9UFpPzIxoS6WQXLhpdTrx1t0In0ix9XHU5sqvIpUhsSi/I8RCPOo9j6UruYifJj5o0a1fD1ZQ8+E48yEY8JnJGlKVxN8uC1WTfItqaSoamvTkiMpyIj6l92QqryKy7FZdisuxWXYq6lZdisuxWXYrLsNvsKpWXYrLsXT/ErLsNvsJy7FZ9i6X4lZ9is/xG5FZdis+xWfYrLsVn2PFUrLsXT/ABLp/iXT/Ebl2E5di6X4l0vxLpfiXS/EbdVyKy/Eul+JdL8S+f4jm0tiEnTYuf4l0vxLn+Je/wARt1XIufYuf4l7/Evf4lz/ABIt02Ln+Je/xL3+Jc/xG+aLn+J9Zdies58kjT8C6Ryf4kXyXIvf4l7/ABL3+Jd/qyviXIuf4l/+pd7F3+rHLl0ik6bF/wDqy/8A1Z9T/Vl/+rFJ1fIv/wBWXv8AFl/+rL3+LJS5x5F/+rL/AGZf7F6XkxzVCMvCvgv9mfUXufUXuXojLnL5PqI+pE+oj6kRyV0T6kS+JfDufUj3HOPchNWovj3L49y5dyq7lV9T9FUVRUqSfJkX4Vj61lprhPUUTnOXCe2Xr4TYoV3FBIoRXLjThLjNcjTjTh55RGMgqcJ6YtPkQiamxUhp+bJojHg/4/MUacH1L7vnk9Sk6YsXFzSdODI7YvLzxZHbF9Sx/kvkkaH9tYvqjlDbF9cOD0VUjpxXBkOlcYazlqzj5J8PWvjGXSyOyxj1Sxl1QKqtMJdL+CPSvjHTo7/nhQoUGvHH9lCiLUWrsOKo+RCKsXwWR7FkexZHsWotX1P0WRPpxPpxPpxJQSTLEfTR9Ms92We7LfEix/kyyX5Fs/yLZ/kUn3IqXkymp3Hpyfmc4KvITm+xK6nM8ZWfYrqdkV1PxKz/ABOdxWXYd1ekul+JfL8S5/iRfsXv8S//AFL/AGL/AGGy4vRfEviXou5l6L4l6LkXIi0VXc8BVFy7jYqHI5FI9uDyfUvu+fF6kROvBxqxbYMjxXi1BtJcyWv2IdKxkSuqqcJ63O2O4pzVK8Ja9Jn1/ElwbSKo19Sioj+O5Nc+E52kJXcNTVSkiGqpcuEpxjuxTi/Ml/U1CHSfXj5EXVV4vqjlGUYx5svj3Kn1/wDUTqqkmlKOUdWEUk5c+EnSLZox514ev9YVJ9Mvg+vp8kLgpJ7F8a0LlG6pHWhLjcmS64Gpp3zg+w2luOcUq8NTol8EelfGGvKrtP47dz7V4VnKW/F/3IfvCc7SUvA37GhK7TQ2kXshK4lNRIakZan6xn0sWy41G0hSTmqduP1I9+DNPbj/ACH4KdzQ6Sfl85erFkdsZcKFChQ8yiKIoWooJFEWrsWIsj2HFFqLEWIsRYhosRYi0sLfct5lvuWvuWvuUl3KPv8AY8+EtiCVefCToiGLI8JbGnGhq85UHFXUiQ6VjqukTSq48+GnotTlJk1WaHsfTldsWO9V4a78SRGNEOLlNmnGkeGovHF8JbCfiIw8aG6IseoxpQ8zShTmTlTSFpWxrJmh08X1xy0/6mv7Imk9RKH7NXlAlJW2x5snL6OijSg6wlLfJKNJyn+jRTUFU134P2aSpHh/k/XHT1m7pPY0ay1XI1VWEvg0Ix5prmJUVDX6P2KUdOCSNGPOp1ak67JjXN2o01bCKbNdyUOXmyEaI1JU1NPhR60m/ShqPTHvz4T6JfBHZYWVkzSSV/zwbpqcuP8Akj8PDV3qTnVURoKmmvgrKc6klSJpobq22bS5djTlcsJ9LFsjUbS5H1OQqyZq83aQThqL44akvIjpV3IxtRqTc+S2P40ZRVHx1PFP4I8kT8vnJdTxZHbGXll6so4yFjLyye/3fPj6+ElUWLI8JcxbGppuWxDSsQtsdZN0Iqi40514LqY+erwemnO7hRpsjsidachLUnL242RUkU8VSfSxOa5Ijpeb4am0Tx6jEqLj61jrSpH5NLQjYqkYRjshqpGEY7IcVLdD6o4sUK2s5mv6Pnj/AJP1xl/Hb2kQgoKhrSklyjU0dNrxS34SjcqH/TruUoj6d05fI0opcnzeD/uQ4LS1dq8jT01H54T6WLZYUNP1fJK7yFptcf8AJH4eDJRVHyIdEfgouL04scKSNNUWE+li2JKqPpOolQ1ISrWJGMvqc+Eo+Konw/t+QpakkaLdvMexpx8+E/LJdbxZDbGWXqyjjIWMvLJ7/d8/uJ4sWLoVRUqVKjkk2aXOVSpU5DoJ8jlg3zRU5HLg2RpacsPXi+er8Ihti+pYshsch0fH14zfhYnyRUqVRUi+r5KoqiqKruN+OJVFUV4T6WJ8ljDz+cfWsZbMh0R+MfX+sZ9LFtj/AJP1iyC5cacJeXzkup4sjtjLL1ZRxlsLGXlk+pfde5QtLSwtLSwsRYixFgoliLEWIsRYi0tRYixFiLUWosRYixGpDzQoynIjpxSLEWIsiOKFFFiLEWosiOKqWIsRYiyJYhRVCxFiLEfTiKKuLUWIsRYixEY+FFiPpxLEWItVUWosRYiyI4IjFULI9ixFkexZEorv0WRPpxLIn04koq1lqLEWRPpxLERiqy+SyPY+nHsWR7FkexarkWRPpx7FkT6cexKKoyxFiPpxPposRGO/yWI+mj6aPp+7LPGiz3ZZ7stf5FkvyHF0fMjF0XMpLuUn+RSfcpPuUlfueM8fsf1PY/qexO61ivKz7F0/xLpfiXP8S537F/sX+zPqLsz6iL0QkqF6L0Xx7l8e5KUeRdHuXLuXLuXLuVQn4mVWDI7YvL1ZRxkLF+WT6l931ZeeLI4sWLyju8WLHzx8hbY+v9Ysj0rH1LKHSsfX+sZ9LFjHeXzj61jqcoSFjp+fy8fWvjGXSyOyxXW/jGfS8vX+uNODI7FCiKItXYklVFq7Fq7FkSyPYsQoqrLEfTRYj6aHAjHkW+7LX3LX3LX3GmUfcpLuUl3PH3PF3OdTx9zxnjPGeIVSsuxWXYrLsVfYbfYTfYufYu9i72LvYu9i4vLz6iLkXKpci5FyLl3Kr7HqyW+LI4sW2Lyju8ZbC2x88ltj/k/WL2ZHpWPrXxiyHSsf8j+MdToYsY7y+cfWsdToeWns/l4+tfGM+lkdljHrl8Y6nS8vX+sWQ6VjLeOUd3jLYjti8vPJYsWL3XGhThTxFC1FqLUU+x6slviyOMhbYvyyju8Z7C2x9WLFssV1/rGWzIdKx/yL4xexDpWP+R/GM+l5Q9X/ACx9a+MdXoeWns/nH1r4xn0v4FssV1y+MdTpeS/uP4xZDbGW8co7vGWxHbF5erFkHjIWL3WXq+76slviyOLFi91lHd4z2Ftj6sZ7MW2K65Yy2ZHZY/5P1i9iPSsfW/jHU6XwqkJp8Y+r5x/yR+MdTollp7fvH1/rGfSxbLFdUsZ9Ly9eL2ZDpWL6o5R3eMthbYvyy9WLI4yFi98vV91vmXFxcX+xcKRcX+xf7F/sX+wpF3sXexd7F3sN+wmXPsXPsXPsXPsNupV9i59i59i6XYq+wql0uxdLsXS7Fz/EnNi1vYul2LpdisuxWXY512Ln2Lpdi6X4l0vxHJ02FJ9i5/iXP8S5/iXPsJ+J8i72L/Yuf4lz7Em6PkJui5F0vxLpfiXS7F0vxKu7YrLsVn2Kz9jx+w7hXURWZ4+yKz7IrPsK65lZlZ9kVn2Kz9id1vM8Q4SZZNClqPseP2I3c/k8fseM8ZSfc8V6+Dx9z+p3PH3PH3JqTiePueM/qH9T2PH7EL6FZ9kVn2PH2Kz7HivKy7F0uxc+xe/xJvlsKT7F/sy/2Zf7MvQpeJl6L4l8e5fHuazdjsaqKSpuXLuVXcqu/CvjxexDbGXVHKO7xlsLF5eeLI4yFi91l6vu+rLzyWOo6RZou6OPnlHzx/kp8jThG1csfM+pDuOcVu+MthYrrljLZi24z1VGSXD1/rGWzF0i1IPzE0+K6njqPwvjKZp8I+fzj/kX/HGfTlp9OPr/AFjPZi24U4rrlwoihRE1yKItXYsRZEsRb4mWFhZ7lj7safcinTcpLuUn3KT7nj7juqjxnjPGVkeMV3Mul2Lpdi59i59iUnTYUn2L/Y+oi9F6HLYuLkXovj3Ll3E1UuXcqu5VFUMjjIWL3WXq+754fVV1CToiDbmNpH1I8NTWjAhq3iJ6yi6EdRSE+H8h8jRVILhra9vKO5oTlKteD/kP6lEiLquOo2oum59P+TPfkaMZRbx12rTT6cG6IrPUlyPpJKrZq+KRDlFfHCewuOpK1Fs5cz+O3fJYz6WLbi4p8PX+sZdLJvwpH0xOmolxXW+MZO/hqvny78JvkKiVZEZRltw0/V/yx/yf9uM9stPbH/J+sZ9LFssV1yxnsLFdTxlsyOyxe6yj54y2FwoUKDWxQoi1FqLUJKpai1FiLEOKFEsRYixFg4lpa+5a+5R9yku5R1RzPEeM8R4jncVkVl2KyLn2Kvt9j1YaqpKpe5ciCP5HkRrUXKJbfMUFFCJ0WpVk9SvKKNBNR58NbnNIjsibpFshDU1G5UNLTsQzTX9Z4Npbkv5WmtuZpatz2wq3uS5sh0rCarFojKUW1QpKe5CNZ8Z7Ya3NxLJmnGkpYz6WLbhJ0TZCTa4f5P1jLpZP0ktanJIgm3xX9yXxxj4ZcyWtHyKeGvvwkuRPm6GlCnCHq+cf8n6x1Nv3lpdOK/ufrGfSxYx65Yz2yXU8ZbMjti+pZQ88ZbCxeS3xYsZZeay9X3fVhKCkR0oRFuSgpbkdOEdlw+nzrwiOEXuicFcqIXCnjrwkqqhpxceGpdTwmjCSnV4akL40P+k00acYxrRYPSQ40eSXiY9jSXHU2wnGopEeqWOp0sXCaqiKouHr/WM+llE0j6USlOK/uS+OMtNSFoxrU1On98Zqk+On6vnFf3P1jqbZafTj/k/WM+li2xj1Sx1Nsl1vGWzI7LF9SyjjLYW2L3yW+L2I4yy88vV931ZLfFkeFOMhY+eLZF8K8dRVIr3414J+J8EkivCeUN5Yz2E1QqVKoqiq+p+i5dy5dy5dy+PcnJOIpIuj3Lo9y6PcuQpK5lyL49y+Pcvj3NSSp+y+I9WC8z6inIviXxISoufcvR9RH1EXou8RefUXuXo+ouzJyqi8vR9RH1EXohJJF6L4l8S+PcuV/wCi5dy5dyq7ly7mo1axNURVYR6pYz2yj1Sxn0sjssfUso4z2Fi98lvjLYjtjLL1Zer7r6ij7lJdyj7lJdy19ynMtZa+5a+5a+5a+5FFpaW+5b7lC0tLCz3LPct5lpYWFhaKJYfTRYj6aHEtLCxFiLERjzZYj6ZYLTJR5FhYWFnuWCjzZYWIsRYicaRZYqFiPposRYhRV5aixdi1Fq7EkqMtRai1di1FqElcyiLUURaiaVP2UR9JMWnFeRRFDT2fy8f8n6xmuRThQoihprwlCiLUWoS/qfotRYiyJZHsakVay1H00fTR9MsFHxMs9yx9yyXctl+RJS7lJdyk+54z+of1BXXMrLsXS/Evf4n1P9SUuRGVEXovRfEviOSqXxLo9y6PcuXcbRFlVhPYWL3yWMtiO2MsvVl6vu+eXniyOLy88o4vKO7xnlHeWOp0vJdb+MZ7MWMeqWOpsvlZaez+Xiv7j+MdTp/eWn0LFf3P+3HU6XlHqljPbJdUsZ7MjtwoURRDSuRai1FqLUWojEsRYWFg48hRLX3LX3LX3LZdznUpLueM8Z4zxCqVn2Lpdi59i59hy9iLfYv9i/2Ly/2HIvL0XovRdHuV8RciqKoqVK+N/d9WS3xZHF5eeLI4y3WUN3jPyyhvL5x1OnJdbxn0vKPVLHU8vnLT2fzj/kfxjqbfvFmn0LFf3P8Atx1OnKPVLGe2UeqWM9iO2PqWUMZbCx9WS88ZC40KElsUKIocqlEU8RRFqLEWIsKeIsLS0tfctff7HqyW+LI4vLzxZHGW6xZDd4z8sobyx1Nsl1vHU6XlHqljqen5y0+nFf3H8Y6m37xZp9CxX93/ALcdTpxZDqljPbKO7xnsR2x9ayhjLYWPqyjjLYWMt1h58PVkut8V9r1ZLfFkcXkt8WRxlusWQ88Z+WUN3jqbZR65Yz2yj1Sx1PT85ab8BXBPx4z8vnFkOlYr+5+sZ7YshvLGeUep4z2Fj68oYy2Fj6so4y2I7cPPjLyFj6sl1cV9rzLkXIvRei5FxeXovReOQmXl6Fqpl42XF5eXl4nzLi/2L/Yv9i59hMu9i59i59i72G+Zd7Fz7Fz7F77F3sRe5d7F/sX+xf7GpqUoyGrcq0L/AGL/AGL/AGLvYi9y72LvYvfYvfYk3TYq+xdLsVl2Kz7HjL7Z0PEeMk9Qj9XzZO6nM8R4zx9zx9yku5GtZFJdyku5SXctl3JJ8ufmWvuWvuWvuWP8iz3Oojp8tywsLC3x/osPplhYiUdvksLCw+n7lpFci33LfctfctfcSd7+C2fc8fc8Z/UJXU5njKyKy7E5yUdiE5NbCbqy59i/2L/Y+p7DlUvRei9F8S5Cl4mXLuVXcqipPYjj68oYz2Fj6so4yI7Yy3WXrxYv7j+76ihQ1P5EYui5s0ZSluiglzKFChQZEofyJelGlC2CRQa40KcItOWUcXusWR88f5DrJexoRpDGPnjPbJ89efsLYqkcuE9so7yxn6f+WM3RGhHwRKolNRE68ItOb+MZen5xZF00032E01VcLlWlefBf3H8Y6nThq7EFyKpXENaro0VSE0yhIoiiLUWotQoqrLUWIsR9NEo8hRLH3LZdyku5SXc51PEeI8RWZWRFsufYufYv9i/2JMUi8vL0XorzLkXIuXcuRUiyqK8ZEcXusvVkuv7vq4M0dOP1JVXF6ii8WR2JyojRjfJzZP8AkRg6EdaMiWLIQpqVJSUVVktRz5RIuUZU4a2pb8n1NVRqaU3Jc+FS+uxratrXc0tS4lK2LZDXUuGvqelGlqOF1xGSkq8HrxP+o9htSkhUSRXCHn84SmoktV0IuqNSdOSIX158NeeopUWxowk6ijTzJRepJmn4Fa3w1Nv2sZyoKepWT9yEro1G6I+r2ITuJ7w/5Yy5mny0kWM3IrkavkaUbZy+MZ+n5xZFV0qex/GdsnAnO1Gknqa1a+dWTlRELrm/YjKvIcqClJ8NWfKhCafGXXw6pyI6Q+bIxpwl/wC8lONz54z2Fj6sWRxkJFChQoU8Rai1FVfaWItQolhYWFg4lC19y2Xc59zx9xp1PEeI8RWR4jnUrLsXPsXPsX+xcV8RcXIuRdEuX2PVx1Fb4iLqhkbdSTxZHY1+xGNsKEdO6cmx0c1GB5Cw1NRQIOpr6MtWnM09NQiJXajfDV5TrQdzjtyNLp4Tm9TVotkOkIGnG6VxoacouTkavRI0Iqzheo6kmykp1kfx1/TRrdBo6apVmrbSiIQ5pjrKTIN30whhNVmamnt2IqiNVc6i24avkjSXVwblHYtm5JiNTZfOM+ciCrKSEqI1rhQtgaaJ76f/ACwYtiCrpxOZCPPhq+Rp9T+FjP0/OL2IdCNT+nqxn5D1Jas6Ldmlp/ThT/yajV3MWornQ01zqS6xIZqNo8SlF8ac+GkqSnwfXxl5fOD2LnIjpc2Qjaauo1saU7o8NTpFhP8AkRi6EJ3S24Sn2NOdza4TlQhq86YyFxquHnwlKiIRrO7gyOMhcacH1LL1ZU8RQoWotRavserjq3ampathKiNW63kaMLFiyOw4VknwnoOWzoaWjHTQ8ZablOpHfilTgzUfKhp9K4Q0VF1NVVgzSVKLhN6k3bQhG2KXB6MK1oKPhaIqiSNSNUV1FyI6bY1ziiaa2NKHm8If+8Gqk1t8jdCTlIiqLg41I7y+eFC3nwn5fOLimacaXcWUoS3h85afRHC2pHrl8LGW8fnFkOlE9NTVGaWhDS2378JRT3IQipvhKNRcNRKhTGG8vkaLOCnWVCfl84226vIhvIexCF3NkYqO3CewuL2NDSd0nIXX+idbWKGqzT07eErmzThwlq8+Q9iEmo0HOVyFw1J+QlPmzSk3U8+D8TIqhOdB6s4vnsabquGo6RNP+Q77XwkIc0hNPi+pZevJdT+758aLisWR2xeS3wcqE5pI043OuPqyhti91lDGfl841Ivq+SqKoqiqJvb5LkXIuRfEuRGXV8l6L0XouJS5x+S4v9i/2L/YufYg3auRc+xdL8Sr7FZ9hVuZWRWXYrLsVmSr4fkrMrIrLsVl2G32It0Rc+xc+w5vsX+wn42X+xei9F6Jvl+y5F6Ll3Lo9yq7kWqsqipqT8kQj5kvLCdaciMXXmR3fBVUvbjPbJdfCnFKhAa5ENOm5ONYkNOm5JVkLhqvmRukQhaLcmQjw1LlIlGTR/HVILhOsnQhopc+EjUlRF1T6koOqIuq4PqWXqyXU/uvc5niPEeI8RzPEcykiku5RiTKMo+5RlH3KFCjKPuUZR9ynMoULTUi61FCUtyMKIoWlpaynMoWstfct9y0S5FrLX3LX3KPuU5oo+5R9y19y19yj7kUWstLS0a2+S0sRaixFiEty1FqLUWoktvkoWooiiKEfP5KFCnCW8fnFkOlYx65/rGW8PnFkOlYx65FCh4a0LUTXL9lBWstRYi1EY7/ACWocEfRR9McS19yku5SXc8R4hVqzxFZF0i6XYk2XF3sXF5ci7xFyLkXIqh0IYyQjUn5EIlFwXUNVFxkiHBwmpciN3BmpC6ItCZPTILlwfVl6sl1v7vqyWLFi8lvhQYiTojSlJz4+rFkdsX1LKOMt4/OUXv88ZTSPrew3cl841T8yHn88PrRqVKkt4/IuGs2tKdN6EelDNPojjHrn+sZ9UPnGWzIdCxj1z4Mj4p14T2JOiNJUTwh6vnGXl85R3eMihThQoiniLS1FpYi0jEsLC0tGhJn05OQoyKSOZzqeI8R4ishtiqVfYufYu9i4bFIuPUXIuRVVKlTlxXVl6n931cHJIU4vg2kRnGvBySE0+DFjITKlS9cPM+sqifCoxbGs+RoLd8fViyHSh6jryPqFR6gpVkuEtREa8GQ2x1JKNH78NTVS5Lcv1FzYtuEPV88JOiIqr5k3FRoRqox+SV0p0IRa3Y3RVKz1BpxZpOqfyasnSgtMlPxJLh/Ilbalu2aKajz4NVVOEtmaUp6k4vyQnXCPXPCeqol6m9P54OcUfVjwlsQ6VjHrnw1JeRGaQnUn/7Jc2IlqUfIWqvPlwjyu+T6xHUry4S1UXXU+SUlFH/UPsQmpqq4x3eMsvViyO2LFit8WR2xa4UKIoUKcyiLUWlhaU8RQo+5R9zxdzmc6nMqyr7Fz7F3t9j1cJO6Rpx4fyKmhDhq1cyWooqkT+POUq1GLHV2IztNOL3kaxyXmQdUTNPTEqGs2oic1zqR17nQWxq7mmqRXFdWLF0CfMpczU8kOhpLxmrO2Jox83xZDpwlLxc2ajepOC9zaP6NHSdayJq50EqJcIer54ateQ6NUI6Xcn6P+Q/7nDUdeQvCNSkaS5P5JxLJsjD+o+Grz14e3CTacffj/JlSFPyNKkNJfBo87n74Q65/rjN0i2KLbFCk4fPCd09Vr3PppRZodLXuPZkOiPxjDrnw3mOCoaT3RqbfshwutnzRqyc9iFVCNSSbi6dzS0/OQuczVfkR0+41SnyavN0HGMYH8et77cYbvGeS6sWR2xkLFb4sji8vPL1Zer7vq4KFHx1peRobcJQTJ6UUaaohix1FU09GkqvhKNT6K4U5kVThqRuR9CbZ9JQ2FsairIXH1Yy2K+FIWmihKNRaaPUakL6CVFTiyHSsJaSbLFFxyh5/OOpzt+RQ51G6IjHzKLhp+fzxS4SSvjwlznHj/J3g+1SN06IjSKoVRci5EWrpFy7l8TUacSM40RJ+KBcisK1JyVDTpGJKSoyElauZciqKlSL8UuEk4uqLpy9iEVE1PL5FwlFSLEuEPP54KKRNCJeXyakXuizUZCCjxju8Z5LqeUMZeQsVviyOMvLL1ZerL1fd9RU5FUVQ1EjRFUXInzItUHJCZci5FyLkORcXFxei4T5lxeXl45CkeZeXl4nzLi8uReicuRAuRei5F6LvEXovRei9DkQl4S9F6Li8b5ou9i72LvYufYq+xBvmXPsXS7F0uxWRK7kVkO5yPEeI8RFPn8lJdyku5bLuWy7jTqi19yz3LPcs9xwRGCtRYixFiLURSukWotRaiyPYkvFD5LUWosRYiSSiyMFRFiLUWIsQo+KRYWFjLH3JJ8vkpLuUl3PF3PGeIjdzPEVkVkXS7DZf7F/sXo+tKOrz8y5EZLmXIuRVFSeS6sWQ2xlkt3jIjjLyy9WXqwfD1/d9RaWlqLUWiXMtLUWoohoSKFChQaKFChQoLcoUKFBooUKFCglzKFChQkiMVQoUKFCniKFqLUWoaILwooUKcH1LKG2L3XzlDz+cX1RxexDoj8Yx6p4vqjjPpYtljHqljPy+coefzi/IoUKIsj2KIity0tRYi0cS0tKPuUfcoyjuPEeIrIrIbZFsvfYv9i8uHIuLkXIuRUTVS5FyKoqPYjjLyy9WXqy9f3fVlHfFixeS3xeS6sZbC2x9WLI9KxfUsodOL6o/OUNv3i+qOMtmQ6I/GMOueL64Yz2YtlgyO8sZ+XzlHF7rKHn84yy88ZENsWuZQoUKIoJcy1FpaWjiKJaWlr7lr7jqKp4jxlZFX2Kupc+xd7F/sXFxdzLkXIqivD1fdXVlHzxYsXkt8WLFdWMthbLFdf6xlsQ6Vi+qOLIbYy6oZQ8/nGXVDGWxHpWMOrU+cX1wxn0sW2DIdUsGS8vnKPni91lDz+cZCxXU8ZbENsXusljLYi8ZCx88KFCniKFqLSwtKeItKPuUl3PF3PF3+wt8liyO2Lyju8ZCxXVjIjssV1vGWxHpWL6o5Q6cZdUctPb94vrhjLZkOiPxjDefzjLqhjPpYtljDqljLdfOLIefzi91lDz+cZZLd4vYji91lHGWwsZEcKnnkurL1fdXVksWLF5R3eMhbYrfGRHZYrqeMtiOyx9SxZp9PGpUfVEqVRci5FUQkqFyLkXovQ5eKJcXl/sX+w5Oj5EW7VyLpdis+xWZ4yNay+TxFJdyku5SXcad0Sku5SXc8R4iVaMV1DxHjKzKyI1rIukXPsXPsXPsN7F/sX+xeXlxCRci5FyLl3G+aK4wxlkt3hU8hYvdZRxlsLbGZDi2I9WXqy9X3fUVKlz7FWVYqlWVkeI8RzFU5nM8R4jmczxdzmUZRiqczmUZRjTFU5lGUZzFWpzPEeI8RKoqniPEeI8Qq1PEeI8R4x3CrRHiPEeIpLuUdxRlr7lvuW+5aQXItLS0tRb4kWotRaixFDTXhLUULUUH1w/eMul/BDpj8Yw3n84v+5H4eM+li2WMN5fOMt18lChQoNEFyKFqLUWIa5osLC0tfcoxVPEeIrLsXPsNlxf7F5ei9CfMuRciqOQ9iO2L3yjjIWMvIS404erL1Zev7sep5RxYvtrF5LfGWwtsV1PFi2x9axZDpxfVHLT6cX/ch+8dTol8EelfGOnvqf8ALF/3I4z6ZfBHpWDIby+cZbx+ctPpxe8cobYy40KItEubLUWlpYOPIUS0tLS0pzLX3KPuUkeI8RGp4isir7Fz7EpCkXl6L0Xob2FJdyqw9WXnkut/dj1PKPniyO2LyjjLJb4yFtjHqeMthbY+tfGUOnF9UctLoxf9yH7xn0S+CPSvjHS9f/LF/wByOOp0SFssGQ3l84y3j85Q2xfVHKG2Mso7vGQsfVlHGQkUKFEWoaVSxFiLCwt9yniKM5niPGeIq6lX2Ln2LvYvL0J+JlyLkXLuV+zHqeUfPGRHbF5R88ZCxjvjPYWyxj1PGWzFssfWstPpxfXHLS6cX/dj8PHU6JfBHpXxjp+r/li/7sfh46vQyOyx095fOMt4/OUNsX1Ry09sZeXzlHd4sWPqyjjLYWL3WXqyXU8WU8RQtRYi1Fq+xHqeUfPGRHbF7rKPnjIWK3xnsLZYx6pYz2I7LH1/rFkOlYvrjlp9Kxf9yPw8dTpfwRatXwVRci5FyIPf5Ly8v9i/2K+NMuLy8vRqPwsU1QvRei9F6IPcuRcipUk+aK46e2MupZae2MvLKO7xlsLH1YsjjLYWL3WXqyXW8l1P7sep4V4R4VRVFyHJEWVRci5FyK8y5Fxci5FxGRUuL0XIkxMuLi5F6FLmXFyLkXIkxMuRci5FURfNlUVRVFyJPkJqhci5FyLkXeIvLi8v9hyIvwouNbXenBuhGbaLn2G/EirKsrLsVkeIhW1HiPEeIpLuU8X6LS19ywsJKkZfBGPJFpYi1FCC3+ShQoUP8i+ChQoUJrwMSVChaWlpBdXyWlhYWEo7FhaWlpQiuRRlH3PEeMdaorIrLsXPsXexcQdC4uRVFUS8hPGO7xkLH1YshtjPYWL3WXryXU8l1P7qXiZaULS0tEihaWmpF05GnJ3OLIrkULS0oNcyhQtRaUIooSolUVGkyhJFChQofyXRR+RI0p/UnPtHkWlC1EkULUWlpaJcy0tLS0kuRGPItRaUKFPH+ihTiyHSuH82kf4838H8f+xp/wDHg+tZQ6Vj/k/7cdb+3L4Ftjp7ft4/5f8Atx1Olix0/V/yxlvH5yh04vqXGhQoRXIoWlC0a2LC1lrKMoxVPEeI8R4iTYmyr7Fxd7FxXmXl5ei5DkiLRVFeMhYvdZevJdTyXW/ux3fHU/k06VUi9el0/wDwJ1Q9SMKtktXUlKPlXDV5fyIe5HbGW6yj58P5UqaTNNUhFe3CWP8AJ56uhH/YbopP2P4a/o17snrQhuyLuimVHOPfhVYR3eM9hbcZSUVVsh/Ivq7fD3NPVjPVaXkuE/5MYVqmQlfBS78HrR+o4Ly3HJxjHh/8jzjpaa9Uzblw9axZp9Ecf8n/AG46vRIWyx09v28f8v8A28WI1ehiGLjp+r5xnvH5Fwrx0+nH1ZQ2xluso4z2FwoU4eZQoi1FqHFEYlhaWFvuSQkzxHiKzKyG3UuZd7FxeXFfEXIuRcivBdTyXU/ux3fD+TJx0maelFKJ/IlSNPNkprS01XsaKubnMbi/5EPbCTu/lL2RHbF7rFkPPhru/X09P/yXLhIrQi68ZKv8uHtE1/7ep8GgqaOn8H03/I1tTnyTOUY+yIampras6Pf/APEUt/kqEdkuZOVkHIhH+l9ST3NKd0K8Y7vGe2Gv/V/k6el6VzZqqEdJ15I/hUc5tKiSouCg/wCXqN1/pxf/AJEqclw0dT6f1nLqlI079aUW+UY8Nbxf/IaEfKKrx9a+MZbM0+hY/wCT9Y6nSxbY6fT+3j/k/WOp0ix0/P5xnvEWOntj6sGVIbYy3WUPPGYsfViyOMhYvdcacKFPEWlqLEWItLeZR9yj7nM8R4hVuZVl3sX+xeXfYh1PhrQug0Q1nFUcXUjG6d7NXR+pQjoe5paa+s/biz+P4p6syG2L3WLIeY+SP4v9TXnqFi3I6lZNU2NaVsGxzm15uUv/AMR/G/sx42v613sON1UJUjQhBwlKnmTTcWl5n8fQWjCi/bFptampPuakbo0P+mfqdabI0IuOlFPgyG7xnthqaLcrk+Z/08p/3JVXY0oKE5U8yfS/g/iz+npWWutRcJ6cexp9C4LTb/mS1PJQSXH/ACL4xezNPoj8Y/5P1jqdLFtjp7fvjXh/k/RUrxntjUhjLqjiyG2L61iyPTi91lDGWS6sWLGWUupCx9byW7yXW+NCn2Y7y40XFeZDTktRvy4/yJW6Umfx4W6K9yO2L3WLIeZNVi0Q0paWw/5D/BmlGfVL/wAE1VD04qLojR5aaWEerGWUN5Yz2FtiuvhRcZbMh0rH1/rhUqiqG+RFqiLkXIuLkXeP9FxcXPsXPsTbtZ4jxHiKMoyC5FpaWlpTx/otLS0tJrkWlChRlGRqeI8R4jmOtUVZVlWVZUg+RcXFxcV8SLi4qioyG2L3WUMZeWUd3i9iO2M8pdQsV1vJdUsl1P7sXzZcXFxcXCZUqyrNTTnqTVelDqRrQ5nM8R4jnU5niPEczmKpzKMtKMaZRlGczmcxbnM8RzOZKpzOZWRWRVkXuVZVlWVZKpVlWVkeI8RzuOZRlH3KMaIrki0tLS0t8f6LS0tRaNciK8KLShQoU8f6KFOOp0vLS6f28f8AJ+sZ9P7yh5/OPqWLIdKKFChQpzLS0tLRrkJcihRniOY61KsuZcXFxFlxci5FyJMTKleK3xlsRxlk+pZLreS6pZLqf3YrnIoUKcKEcWR2xe+UcZZLfGWUd3jLJdWL2I9Kx9f6xlsyHSvjH1/rHV6HlpdH/nH/ACfrHV6f3lp+fzgx9SxlsQ6Vj54y2ZHbHz4UKFChFFCiLS0a2LS0tLShbzKFH3KSPEOorisi5l/sXDkXouiXIqip6sl1PJbvJdT+7Hd5RxkR2WL3yjjLJbvGeUfPGe2S6sZbC2WP+T9Yy2ZDpWPr/WOr0ZaXQsV/c/WOp0/vFmnt+8X1RxlsQ6Vj54y2I7Y+rFkNsXusl54y2FxoUH5FC1FqLS0t8RQoyj7niOYq1ZVlz7F3sXl6E+bKoqiqKjI9T+7Hd4sjjIjtj55R88ZZLd4yFjHd4z2yXVjLYWyx9f6xnsyHSsV1v4x1Nv3lp9GK/ufrHU2/YsGQ2x9SxlsyHSsfVjLYjtj6sWQ2xe+UfPGWwtsZbrL1ZLqlhQoJc2ULUWFhaU5sozxHiKyKv7Ed3lD/AN4sjti98o+eMso7vGWUd3jPbJdWMtiOyx9eMtmR6Vj638cKlS5E3t8lxcXFxUg+RVlWVkVkKtz+DxFZFWVkSqVZVlzLmORBlxcXlxXxIqXFyLkSfIjsV4V4erGRHbHzxexHHzyjjLYWL3WXqyj1Syju8lu/uw3llDzwqNkXyKlSpVDZcXFxcXEWXFxcXDZcXFxcVIsuKmpq2xbNLVvjUbKlSpUqR8+NSpIqVKlSon4mVKlxUk+QmVLi4uKu4qVKsqyVaEa0RzOZzKMS8TKFpaWk1y/ZQoU4w6Viup4z8vnChQguRQoUKFPEUKFpaSXIiuRQoWlCnMoczmcxiZUqXFxXmVKoqVRLYjj55RxlsLF7rL1vKO8so+eUeqX3Y+ZzOZ4jmUZFFChaWjQlyKFChQe5QoUKFBeZPlFs0XfpqRQoNFChQoUEubKFD+fy0flo0NO3SgvYaKFC0tKEVuUKFpaNFChQoUEvEUKFChLYS5Y+ophPpZHZYrreOp5fKxZDpWK65cXwn5fOUNh4V8f6xl0shtiurGWxTkIoUKFPEULS0tGhIoUZzOZ5nMqy5lxcRkXFxciqJCeL6lkup5R3l85R8/nKPVLL/8QAKRAAAgEDBAIDAQEBAQEBAQAAAAERIDFhECFRcUGhMJGxgfDBQOHx0f/aAAgBAQABPyH4XlUtoY71POl3qW03Kljbv4rPOnw7pZ5d/E7WWKVf1TZ/aWWPul2dEUekWuqIq36UsuomfoJfEvSqzpmeVNi7FRInvptLaWVQ7FlN3b/yGystoY7KXVuQqLC2l2CoZ5/GvpXrsVDP2+J2MtU+lTYu1Sy190v1On1i118StdKr6axd1fkp9YtUsFQzyp8OxUMu0tDD7Kl/illqm7tSz8vxQRQ86tlDGF8S7oVDLablSzz+Iy6lcqvPul0lylM9ZU2/1CoZ+joY/Q9GtfWLHVPtU2LpVfSJsu/kytdUv0VefdPh2KlXU3i2l2dUu1V+lL+bwWjnO8a1uB5y7HNXQkT+ToieDQPdbQIgwYyR804h3Hcdx0ZvZ0Z0Z0Z2DxZAju1bOJlGQ3ohPZmIcjaG9idJJGtSxt+1Pj3Syx90/rpvdHpU+lTY7VX6Oh1DYCsqfYp/FS6l4d1exS/0Frqnx6pbGlPunw7FSr6bhaqY2PFLGE0foKh/OLRNtEKLdxI5pIALKGTvpA5c81MDQ1utY0QXYghwYiPA5FsYBAxYwmAYrZEjyyHLOws7kuRk6vsU57mAYQlz0XKTwVD4fIIDGSSCYbtJe47CAYfoIasxSRENJr8mYSJnjQYuqDiUPyLkMiMxhD5j22Q5IECUPaQkkgQGmIRCIcmYzIa8n2JmMpimIJd4xNFnMxMbg50+/SxM2F9nOimEtKskdqBGXRrmdpRsthsp4SeCJ4I+8/nS7ojmMUDYyEc1osATbv5FDSAEUzcykciOS0CRuJcRkRHJGERyQ15iORHNEFhDULiQ2ZAQEc0JebQu3shdH8n86EJHIjUQyfDaJto5iBa7NEtkJGNWwRf1hrgQCGyxgWaJUdlEM28E8CSlZSgpB4EYvOrPKnx7pZ+tPj2Sld0M/QNYOSNIEOCEQQhdwi/kQIENCr+aI8GJGJGAKoW3lGIwIwGMxhq3yzEYzEQkIrA3naduhswRYTFpHxiJ2jBpsQwiZtGIYxiEOCFwJ7EIhEEHj3S0L9tN8Vqf+aXVeHYqVfTaWfEZbT49/wDkdpYbOoWWdNI8RdO5MpbGNLyLS1gP2IVyBGkQ4CEl3Nx6E3xuEtu1K2mZzRtbETJAlKQ1smoT0Wvum5d6JG2yDhfdGjXEJvbacoboq2e2m5UTy4EEU/5iSlL0XnPySjc2KRS8v/p4Ee+4kalPbkalNPQ/m/gy9pH/AIYqR2RHnySGSNt7DvBytttqUz0FTYu1V+j+Lu0su+Mr9KfHuq+muCpX5psqP0F8StLKXSdV4diof/gW0SUIWTccH2aRuRWN2gLd0sWDWRmwIMgcgSp6RapwZJaJE4Y1sJCghSbCITgi2p2asc26HZjUpMnJAabTeRjRnnT4aLwN2QhLbTeBxPA5vJcslXl76IPT8gxVk70Eabkzfgh66RHtyPVdUd+BaoLbCvIdS830VzO9to+U3GzYNnJNuuXuWZbLYWaGfnps6Kv2dDFRPRVDEk0oXwkz9Hxq+mvCpV/QlhIotqv0F8arKf8AilltPh2KhnpfNYNix1YnlxJKhZF/NJBlMplMxEZjIQ5IDCoJJJGSJJRJIxGKHA7qp50+OkWrI8nKP5GjHGcmxIhO61/QSTs3EMazJ39UtGXb+auMim6nYdhIpzpBDYgZH2R3OQ7hOUepq6xYulLLNDFTXhUP5MFztTd3pZfVKsqV6vjH6C+JWUmf8Ustps/oqGXevn26QQNIaIEODEYh8QlkxGMx6SBBAjkacs7svudmdmd2dxkZsXO4ydeIktyD/J/I3wQ3wI7UAfJGcEuR3EOGdxMJT7GczaxJldi5DMjGMiGUCIJJJJGE63SNkujc2YVy1Q9JNHj3S7Fihi/FP7ioY9J7tX7vWSR/tEydW0Op7EkkogN7CQgQMhDkSTIcmYzaKFcTBmMpkM4twLk0M5k0ESMhnMhk0S5jOZhcxmIHKZDKZB8gt5MhnM+gti5jMZjMPmEpyGQyGf47ZUVDLqllDFVW0Mdnxl6pgVbkODAYDEIlbGIwGEYRgHkYdHsOwcVCzHadhkYhNcRCO7If/Q/yZ2HkmZBlmfoEPNq5/wA0YY1yR4B2Wl1Ek+6CeKJ4CeI6Dykrn8k4k4aH8CtMcn8Ecx3RHEJkHo/80TOzGeNuDMM4b5QZpmaVLkbm7yOXkdh2EOX9keWJc9jYdmil+Bb7MBjMBgMAkMBjGEwiE9iNYxGIxGIVKEnBDggQ4IcCQQ4IcEDEIiwgjwRMRiIHEYjEYiEWEUWMRgMRiFcC4DAR4MA+ISQgQ4IEIhfFVqbhUMuqWUMVK0sU+FTzpv7VeXdN6qspfoFReLV8X/BS7Fuhl3qn/oVDP2dDPZfxns1ftTZ/RfEHYtqCoZcpsLaioZZTZ/RWpL8/OVqXdVL6tlDFTtLFLpnU9ylnl3Qxt+1T+xND9FO0lZfFvzUu1IZc6ps6KrndPssmhh5T43c7pfZdi+J2MfZVFfGi2qqVtNn9Fal/yL5bkJonSdHcknVl9VWoYqVpYqXbSzy7pv7Us/ahj79hUM/bRav1VZWVP5qfwUukM9L4x+7JJ0Z+2llv4iz9aGfkF8XvdFj/AMF90soZ/wACosLaWFlP/AvlWdBHJ2Z2ZLmS5HsN2IiZYQTXIXKfyfwfwfwPnUQUTe6NLLmT5k+Y9+Q5K479BDh6T2DMYGgxBw3F8kOSVySiRtndLH9tZGe+RQxPcgS0Z+VN0VlT+D4o7Hp0OoPwD1Y6JDPRdNjE0n8DdeF8RvFurKiT3Kb9X/n41Z/S2hk+ovlepKDn2mYGi3TNitPJAoWbQIrwIGVlRUMuII1tLVpBGkaEODEjCHxI4xjaDCR8jSUdhHn7aBilyJPIz9BvH/dGzmWgjiI5IjkhnyjwI0J4iSSC3zBIJJIEyTPKQnFbIniP82f6sX/7C0jI0iQSDnLkkH+S0DF9Bo04kiTkzGbWREngxDC1EWkHqAy6Z84hQfOij/JgWmCOGhx+RMO4wv6GNh2FIQyP/wA9I1/+Ap//AMBs3yJ8zJJllGUIbJiF/mz/ACenaYLgaXDMMniLEX8PB0RjoGo7tCx2g76L+dJrcMjmht8kYEckNc0LN7kc0d0RyR3QrreBBbNEckRifzpNd5/B1R/B/I15wbQ+h/J/J/IrboNu6EHRE8UN8ERBaT+DsiOLRYf18Ls1aKZ4ALTV51IvN3LFotj4HlUsVDpGWlq+Mem5UstfdNy7pdV/xT6xYqfarCCCB+RPoIRDgxEeBU9uyRiRhMIwiVtEeDEYjENOBMdjEYkYRDgT6HohEIgtYv1EEav0Olibabu9Xv6xpeLHxBlz4wyqGW02CFQ/4+Z69lDflEICVEFG7GSbNUJhdRkjFQ6o+xaqGeFS0VFyFQx791BUOq/4qSsqfdpuprGPNAz018XY8pQxel03uj0KX6qrNN9I6nay1T+8VPsUtuLfjrabRC1Z/wAi/wDFehFtBJJC1dwXkSFS7oVDLqixT402FvxBlr70evv0ssp/5pvlnzwVjpjPzUvv8UzE9lL0D06XZ1S7TOJ2scCm7vV7NL7ui3VV8YLPjLKbBC1bPDr5nNBO5JPkLdY6M7jsEyd3whaRnM5nMo1kXOYRjGZDXkVLMyJRI3obZE/DsqrFLPPun39F8I/5puFlPsfEl7o9Shn5qU3JD1sdCdc9A9Cnw6pdi3T7tV3en1i1qvm+LaX+BUrKbKDGOzr/AMYxX0ggTJiEQQ4MRgMA1mwl4MaGhm5mMfGJHw68+b7CMM0CovZjypGiSDJJ+Zn66YA1gLDZ6E8VoifmhuIwNTMgm8x++1GygUrIekbaXK+x3Hd9DYnDFiWNSlsm8mMSi88QZ9cMQcWzIboYhiGAYRK3K5iGZGRErkV/clc0N9Q/1aToxvUSSTo1IsfVIZ4vAidXjqPUpnWklDKGPtIckohyQ50mHKMhmRjGZCj3eR8yMIwjEGmhkNIZEYWmwByCxlMpk0WcmDIZUZDKNNuKJbDEMIwjMiAzGEZkYQmLmyZjMjMjMNKEcmYhyQJQiHRmMhhaLN8DqGKpbQx3WqeLxoZ50wuuhjRB5njWxU2WVBUMsfesa1CmloIE2EUCHBiRgRC4EvUhEOCHBgFQSXBiRhGEYRZPkxNBgEsKZXod5/szMyBPd2J9xbRS5jAZz3uNqHBml9HuLkjf5mVpXDu7HnJ0PmmfoM4T7Z7CfSCWkI949jzjsdxHn7EX5+wlf/0IbcHYZfsd/wBnYNSsNI2YjFo4hFBBMbTb7byYWkwDAENojNjAjGMQwhxdjAjCMJhGAXLMBgMBiCfAgWMTTYTGQ8TEYTHpnwkSxiMZj0CguAwaLGYhJLiMBiMRi+adZZQx3Qh4RbCXo7D3Ej80S8Gt2OEsDpNzbKonwKXpqWw2kt9GI78pywEkTl20SG5F6VOqQKd27ORuJd9xXBpeNLKFfwXBY4kK2jgzL6HhmB7J3kYfuo90LdKprtV+hOrfbTe6PQoZ73xNYz1KVdT9VnqU+VKxlml/fSx9+1WtVPpCoZe+6bSz4tlRYK1D0S+Rl7pdbZQx31Dve07ESDoiZcI8irZMILY0lduaElz8QkO1GEjoNjvwZKu5mRfFUiXmNxkj/wDEjT8YVdMI2SPOIrKy2UrvxI1lp+TwOzbidEPvBJmbNz4Fq89ByQyBb8ktkLh+EWEx/jWtjLFPlSuifxR7NPpHraSTp79PsOm50N9dEiup+mepQxXUrnR6nx27vTfLVTZ6pZe6bhZS6bsPtTaK1DGS+RjJMlckrVuus1nRthuMTUvAg1rbiFoUxPyISluDAi3qiFmVN0NIGRA2GJJokRDLkUhbVhjaOB6WW4khDXDNtqV4Q10oLKtnCinDEhyi8oS0XWr/AEOQkTiSI6Rd7PRFCGskIhCWNE0OyHJ78n9tbGW6VSLoviL2afWPSp9yn3HTt6D1fiT1C11SvQqWjoH+oYn8Nu703S2l29UsvdNhZ8VltNtJ6FaL4mIbZjMOj2DRc6PcT5GSZRyBQ6FAZURyQwRgfyTwRPATxHEqHrnjmUGXLUKHAV+GYh2fRmMw2r6Bm0GGYg5iTGMIxjIhoczzQxm4ahikiErLWxlun0Kf0FTdSfsq1qh1F+6hnoC/Xo9fSaQJaq1SvUqfUNnV8RZf2pbcWUu3qlnlTaWfFdqtlJ6JfK8vjWKh1HUUTZEaQNCMEEIgRQKhsYEYFpsIdoMJiaCAMjKkwnedv2d2ihy/sj/9NRtt7zabqYoCT9CiuDJLpPcyNd/9lp1seRHERxfR30FxifB1E6Asb7HeaBAYH+LP92Z+jJNqSqimzbPozBlJgnMHYFsRKlYnQaiU1LdEuepMmkw6mhNJTMofMM1mSJyruNI/D7H+TN+z7GZpQaKjYPjfZiGCYI/ARhaJhE8BPEXbXP4MInij+TjBbdoJ4ieCJ4jqI7YP5OqJ4oTD+BUaND+CeKJ4I2NxbLIwIngjCjAMZJYOhwxgiVqbS+AKhf8AZILYw6CeBPFE8V84sqK1DqMs+KdTYWPibLNLpbHVvRVP6Vfup/RT6p61N5xQ/wB9Y090J9Kp9daQQRpFT+Sm8WqX6CCNWWvt03hU/wDFLPMii3RBA0I/5pZbTYIjV/MLKy2orUMVB6LKbCyh1NrLFL+ML/emxifVT6ap/VUs/VT++n0yx1T+2l+l0+2PW0es/wCdK7/BU/mp9YtdUu3qllr7dUrU/wDInQzyptLKf+KWWU2CtQ9KvksLKbCyoqHSeiymwVqVTtLNL9VLLdL/AHp9A9aleqn9KWWdlPpOn1SxUM/XT+qn1z1KfwU3u0Kn81PqFql2UmW0/sKhn/IqGWU20nVsLKbP6WUPTr5LR+Gv+SZI34E/B3HcQ5GBko9yIfkymTQZCJymdGMZkI5EckOSHJJI6G2pVO1jbKXZ1S7VPh1TeLXVKu6p/RUsTd26f1Ur9YrKhn76X63T65Y6oZ7ypvdoVP5qpYqX6KXUW/0VPn1S/wDwgsLKbf7SfzvZUVqUIEOBHBB4UB8REYjHosA+A4hhHwi1gWQavyyOpkt99QGSZRB8yMgZmuMDEG+8EcRHFrE+cHGE8dCYZyqTHtuYf2f7s/2Z/qyYEP8A9mUZRlGQJysS5jcJ6BnVmT5kP/kYPoRX/wDAwCJtvJj+h2fQ7Nn4H0i5X9D3naTJoMAxB2JyKFbDCMIwDIhNzGZGZGZEORiQ5IcolEof6DYRJAlDaHX9DYlckrklD+6EnJDkyIyIhyKu8ErkhyZEZEKmQluYhkRgGREfPwYxmRmRjD4wuDMibyYxiDQv5FzIzIwDEMYUjcXMjGMyMyHzIQjMQ5MhkQiCFdGQgSidCVySiUSNsOoJJJ0sE1BOrGJPSSSfhW6TAmnZ6rNG0iDsyS8NCGtnolo3FdpGKgx4RdDvAoT58fDMbdqxFzot0zt6pZZ0gjR2dCovfGK1doggggaIw+yCCBCE+hkEeDAYBSgFBYxjGG/wMA+4GJRBoFpbSJtAxEIXclubBgMBh00JyYdJiMQtb5RPoGJrJYJIMbWJ8JChW2gx6BKHo64YTCYx4gx6bAMA2m3mraAbxQY9BgMI+EeMRiMOmaFYXCYzEYTDoMRhIERoI04ZI5IiYEmTuzuyHLO4cUEhDJ2EfhrC3R0rLG93ckEkro3EECRCR9iIpJIS06eEI0pJD5YsDhDFRkbt+WQLxuxo2qrOrLtW9Imjx6FRYyzS7eiRa7WH2VDPy6Tr+Sln6Ol+l1JWoZ7ilv7VD0SsqGN9hJOti7QqfeqVSqZ1X7CpVIy2lhZ8V1LBfG+E67S3RZeODzjduxJJCG0ilCaIGNy0RfQeYGlF4QJMEQuDYC2DJsxBKqYLPdqyBbmZZj+F5ElML4Wy/TfLdP8AyKi11bx60VAsdUOpfgpZ+7pb+pk0XRWoZe7Uv2akrKtE6SWOlXuU/uhU+XVLZbFReSodfW1FlLpstpt/orUP5/fYmmraRqkjny0bFu9OBmSU7N6lg28DQeHxy6WutFr/AMiovVL/AJq1jqhnsU/gpZ+7pdtTK1DLnbp8ad7+C+JO5aZUe/T+yFT+FSxTcCoZ+ahaLaq1fFY9UqovksEsEeXoOzTOPlnZk+ZkmaZZKb0BuAjmhJ3O6P4G+K0BvySHhsieE/weu8FMDvmWZmgSJibcT1FokpmzIVumYPod5h+h2fQmcUHcZTLpn01PgTWXqFhmILyPGixDBMMmYe5BbLGEYRjD5kKv7GZGZEOSHIwSiSdGx/Z0v1U/uhWVDL1KVSGJPb4k29FLq610q/Cm1lqm8l8VZZTYW0uk9Cos/tJ6RfJYWVF8Rl7+IM8RWpv6wiBNwmwgQIRAl6ECBDggIk/QuJiMRhGIXieDEPhRgGISuwoUMZi1AZExabYHAk8D49Nv5O/7HP7ZD/6H+zP8novHLE9YAjJJpZm1cjL0FsP/APAWPzLm0wx8P6MP6Nhz5EcBHF9Ec0RyCs0uHBhGpPiI8mdhRyO60I0hWe0I5LWG9KtL863byE/JCWxEot2E8BPETwE8AtzmNKeAw6AaDkNvEC4NSJgkrlyYRjmKY5ii3nG5imEf4M3LPscZhUrCWEEhUC3lHA1uzjMMklPcQeRLmdx2EtjFFXEf/gQ4ZDhkeGby2YsxDhkeR3EeH8OxVF8Ri+laWVFahl+m4Wqfwp9I9KlX9UvvLFS/3U/mpZ+r+K/VCpb2dKW6iy9/KWX/ABn3UtoXR8YudVK7trGjLlLsWU2VHr20Z5dkEEEFokQQQhqiQQR8OyotHqqjzptpGXIVDqV4sUr8U+selT6FN4ban2Kfx0s/d0+NL9ULWdD+zpu6p0b3QnrIz99N3WSTqy6l/F8bvdVZvtpdeW02CpdlXlTYKh/OFlRUqlaNem2q8exUOtVip/4p9Y9Kn0VTdF8VfhpZ+jp8af6qln7uhl2l+QWj1t76fw0saf60/i+OekWaX+4VDPcptdVaK1LsFRJ5902llDHND+QttmdxDhkOGRyNJI5O47zt0VIZDIZdA0hMbmMYxhGEQroZFclcohySuSUNuhlBK1dh1/Wl9xYqU/Sm4elT6FUqb6S+kZa+I/dC1Yz9nQz0usaW+lV/tTfSs/TT+X4161W96liffTeqv2LKXYKnz7qrKH86EiCNGO6IRDRDghCQQ4MBiRgQ+I32w+JCtoeoDjsOJsYRFseCCFzxIzhDEm24bvS7DtG3k7hEs7yPP2Ow/wAGRq4W24kE9SAbNSZpnGeZAk8uxBbOZ1BmWvNuEDCDepGGRw/Rh/Rh/Q1zRMi/J/Gh20XlRNkaHREkngHwhkWFsYf2Yn2f4M/2Ynvxvov+b0OR9j8Nu4uQZxuaEZlLHccQvgv8kR/+At9x4EORg+hh+h3DSV7i4fodn0dn0NHP0Pm9DgnyZNNlNqZFtwYymbWZ8ghud2oV2KOIvyNN0MMwjDMUVlZhGKYpgj7QlhCSWYRhGMYw7b5iGRGRGASuRVzySiUSSMpDqGs6N7FlLsJobGvRJYWUP58qhjspYqjy7GuS4EMYPe+tpY07BtpcXhVuzxG6Ig9HdqhdpFzpsFT6lPqFj4Ap62KT6EtlXXhFF9I9dGq9WmxdNIIIIE2dsggjT0URohEIVR0kCBAgQ4ID28iHBHgjwQ4ERoEOCHBDghwSG3lmIxGBGBCAYES+BjGIYxbY3jHMAxBVmvAitjAMAxDEIHGgxGHTReCV2MZg1xRMY8jtI8szMSPLF7XEkXZ3USSfmO4kUtIM0Y/JkmeZWlXQT1sc6jPQ0unkjA+C8VPhS6iw8h+ITlnkUhBKcrXb0bhmFEbGJ9keJtZIhWL0nHGkWvEhNC+14Bmhvmmyp6VStjceWf8A4ITsNPrTcQTwSFklF2JpqVp0ps/6/wD5p+gqGXUl1M6svVps6KWWKfy0/ipZ+718f23WkRqRLjdntur938Ye1T6x6Xx+/tTcLFPh2K3x/Km4WUPTL5L1V4UuosLX2TJaTgdpd+Tb42nbXY03vlkOBIhKyEmbmhZgRxJ3HNtVl7bVvA2t5JfYmL4qFQy71Utn1t3LRs5l5nqRF3HLDUt9jsQsm3NCyzduRiHRjSv0tH7CoZd8QTqCupWLpS6p6yp/LSz9HT+2q18MTp7VN8sdfH733TcLFPh2L4jLKbaT0i+SxU7KWXqbC19ke2dCv/DNbSxQxt12KhrB+1QqGetTcItO6gvKJXtl4a8kmG1N4a/TxFBPIITcC3U87W0zeP6HPxjnrfS1dBUMvprqR2qnpqmzopZ+6n8dDLqdl3t0r7xUOqe/TI/2VKxT+yq7tUrWjGMeHYqWVTZUNtVF8iy1SmjhjEjkRwEcRHNH8CTOyP4P5P5HzggsTwRhRgGGNHdBoqEYJg6uTtbU9BMCs6FnGeZw0rkLmalTdaCbNwd4tEkLwrR2DY5e4QCAbwjfD3I8MSpkarckX4nLPblmH6CWle5AlKZ3/R3nb9aKV/R3GUzaZts2ZlMumwyCFVlmIYBhmISmdoMHTYhiH1gxjGMyMyIVxSVPlmYyIlckjaUkkjbhJOrYy+zJob2VLFL/AHUR8Alqrqn9qb5atHokeFS9OwtptrVfJY+My90sspsLXxBnl3TaKiC8QQRqoggggX7iCFqm3QQQQiEQFX3ECBC4MAn2kCPBiMaIFhVHYxGMwowIVHHhGMxmEYAttV1MGomIg8Epcbjb4MRiMZGo2SRjJfHs7Psg5+xxdvAzMj/9D/8AYHseLOkWly9NIJaAbPLdMic+/Wq3rx+dhlXNSMWWMjJInunY4PUwfow/ojgI8oNqQfzoSE8Q95KDxEtUTDMEe3tuYB/o9YmfdZaT/VmWZQ8t3RAuJc9B2ECljcbPLSMAauTvEsnB2Hed+m0hMGczGfTOLY5Gs2EZkKPMZTMZkZvgs/GZe6bC2mwtfEGeXdQrUMvdP6CodUfmpZZ2U++6bKh6ip/HTePR/wDK3B+p02Ore7VvdJdLVLqvPum8LsiCNV37CSIECEQhLeQiBDggIEQQ4MBgMRCscIwGAxmETFBgMWljMfwWPkLqi2m0tXxBlnam0XxS1d0svpL6ZlnZT+mmw9an8Pxw9On8/wAXOqP1um11L9VV3em+WKl29UssfdN0tVPuipuU2Mtp8O//ABjapZNJlzpsLabCxUu2ln6U2Luq7vTaulV1JfTMs7Kf203uj16Gfhp/DUnu8UM/P8TOreg6b3R69P6KWe7TfLFrOjs6qsfdVaqivi17otU+HYrf+K3Iy6bGMYfAEvkZTCMIwh8yFyzMjGMYzCIuiBczGZGZGZHKIS3RmRmRDkhybEyErkhyQ5EQPfslErkT0bZdm1DH9qWt3rOjITTPFIzz7p/TTe6PTEMbwIZWv4qG1VLHVvdofxIk6em6bWevT+qll1NdLKXb1Vb/AGqsVQVDL1Nwtp8Oyyh6dfJaMRi0WMwiXwMRjMZjHwiZexjMJhMZDsRrD4xLkDCYyMQVsYTDo4jcMJiMGgyaW+mzQd4lHej2nado8UtiyXJ3EOWQ5ZlYpQyQ5ZHlkf8A6EP/AKHZ9kl3k7KAFznuzuJlIpA3JrlPlk9IMwSgyAZpnC5RlDhe8Y3i2L4uSfeoM8fLMLwZg9JHhQbFxOl/yWjwPocTlBdkI4Po6DoO6F2T87nYZsbz8i0XuL7Ek2DBMXRUINK/1elzR9QM4yCQTB7bdYj2mI0Qwifn6EOPwd5m1Sl2SiG5+dBgGIYhKwyAtzCMqMYyI/MyGRErklcjY239ptG2pbaKhl6m8WU+HYrf+LO3R8lcQkobSuSmtqhlzpfYt02TCdEjBEUxuCpPs+9J1f2oRNCLF7snWHJdpLVlvZT7tDROJGfu6Icj/elFPDRp3IO5Fd6fh1S8OXPMsjSvSZ6lfSzFTLT3H4LSCCx62NX7OkEaOv4EP5iIIXBAi+8gQ4MRMMnkKvsYDCMYxlhQmKxhMWkxnFMVBUdh7cZGQ5ZHl/Z2GxdiyDcs8yDLGwQUdK/eaxAQEcB3RsixP4P5MKMCH27IwowKAo1hrCgz5EufwWSTY9MMBA2m03GJp2YxMgUk7F702CQgtw7CXgFgdiaSWsKatF5AzUONkdyeY5gb8UviBZBLhFpr06Y/am/tRYJITlwXOyUJI4HbSTdUZ5AV5yPTSbEXL7DQ24SFBJtNyIQ27tX2/Ce4w8vMxo/tGPeeTZFju2NUL87jUcMaE2bYYAxJJeRzZsxymc+A5lYlmXZasPLOjdCVypHqjUQbn5YzYvQKIrlPZHoKHr0R4IWEGcM3uswx3DcKTZbNLGetS/b1er4YvYh034IKLYQklCmWOefBEMTB8Jlk1D18P+jV5jfok68oRZpD07rwbkXxWp/5oejiTxTQsps1XPum4WNdhBOx/wBi03021rRuL4bAxKbWM3D0tpI9Dq6F02NzsM10EysFvoi3M/hjEkkMbMWtNhgQUlpvCQjigbCJIeTcN2WK4bIYSAReGag3Utk9OffJb0jVaFsd4LrLewUiOskdCuSIjkiCALY9iDlbjLnbp9zSVFgCV1ZYQEcjjENhicg5pCE2WmkiNeGbB8sfCQ3panuheMeNGBJJJIWTHAW0Zb6R/EkRSD+jDTW0fw7SJUkthHLRReiz0AtXqC32RsbStNq2TuGJgkuuUJAN9L3R6NPmz/SdGOS8EoRwLHeGhWEYiWdhSRZiLkcyd8vJvJ7obhSLdEOTed9hsYaNsWin90K1P/GqkubtjDtngcXWkarhhEJ7C7idxpWLe4RRbfIuRDHZotZLu2lyYwhPRBxJsyR2JoSA8ex3AQkp0LQL4WaZMaCmwNWmiZdIUDImSiGuR5aKIRsAkbHqNnxaqmhLYhLOPI7xCUW0aUNGy6TEkrCSoL+o9uhqVBBNj9qfapZe7U+5rMM3rhDsWTAqH6WbPVyQdR6usLgQxI/gLvEpzfRiZYSrLVvLtWPVPUVy1O520wxGe7ECI4I7t6Xuj0KX7pGsHthzvhCGEi6v0TPP1x26Dek9gjl5J2ETiWexGjHYj9kWUM/5ETBDf5ElQJ7mIXHKDns0yNgjbpESPkJCFllCO3sPE8DHb1Sy7to7cXkbjsNLciW4hlpexC5LT2EGlBsRiyXBNHmRI801fDvZ4Qx6L/wqt/SfdCp/HgiJSqs8hCh0XF0+KT4aWAIQUW06Uh9yUsuZw4osctF/q9MuWO2W+nzBcsyDOFPJuzMMsyBP8zw4+YNV2IhlIlCmc3Y2rh6UpGUZ5kidg3kkZhLkT5kwa23IWXeTCZNkUyUepyS0KnoV5ZcnoZy8hbb1DjbOxHOnYRDH9DAMbFJj8jt+ju+jtJuRrc8mQbfJB4aKG4SxuZwY5hmEYhsdzkRkIckORX8j6ihjf10sRDedLnfgv2riWyP1QrU+XWnhPEFiQ9ESIIEHj2IhcE21EDSCqGXvvQ8kLSeWmJQjEG7ZI3ICdJZGJbiRJOdhSQiPmDpMZsthUIXvVd8npZWVSqdnxlzeZE14IoEa/u6f2aMSmBrN3qUI0cVWCekfcp29DPS1gZ7KI0jRPuY1oz3dlRt7Qv1iCEQhwkPIRhEOCBDgQaHBiMKGbqxlojA1Exlh4/8A7G7wYCLwYhhrgTkjv+yHLIwG0rSfA/GoyTNHo/Fs7mH9DCWg/EEvIulDhLn8GFpWIY32JzON9PLJhIGSbNw1LyMgnyO87CeNmJeGNXhk3J3aMN5lMxlM4+QSb30yg7ozI4UFQPBbk8hyErwJQ6FGk6P/AMAsQdxaSh6KrSJ0vLR2LngnTQb3AaWVG4LzohMwNIbngTaHZtnpdGJ3k5Y1SWYUw1ollvA28HpYpFpDNkfwilHuXQJUmv76kiNbibZRolLFJ3xNxSE8k5vml2ETJCaYlx4ROv8Af3p40YTHk94JW54uMmk1ZjcKWKZaUTPPdCefkKXDiOdU1CZ+k3Rg3RBvptMfeoeiovCEriqFoJxZgUxuM9CgiOzYhr8zpKL6x+JCULkzZVL0T1tWiEktwhiNK1NbgJp2IJSMnt51RMEg2dFSuI1gsZa0ghEIS3YkiHBDghwQ4GkcRiI8GAa8C+DHoOTSRLCgsYdPu0l7aWZkeWd2dw9jdkuRmmX8l+UoLM3EktMnMup5aXyE3yJEz2GJ08iQindhkXo86LHKITesG4U2MF4JExSTa/aRClpMxo0P0dhtj06xMMkXP9ErvZEb+S1XexOXisTn3r+iliqZ22y/nwshnCsIXW2RsQJve39LqWm/hUuwhIXcPw9UCx5RH97Tw1ouahEsN8sgYZWxhCEWyHa2+YF0ge3def0SU1AFNGwPmRwRhd4H0R/Mbj1UplvRNeUzYdana35PWPSVDSZybIWlDONzwMdGbdjaDZaFGyGuu7EU152RsivYhciucD2WsJB+7ej0T0CV8iPchy2WVzebbw0fMf6KSRtk7DtgZ7HjVnH4C7HyZWMt0/sKlhUOTeRRYWU3dhU2+hfI7dVv01Sw6nlosBITSCMhapjaXkgFqlyDPSHSFpKDfWm0FfTMkghN7Jo1KJkluJwSUaRS8hGwjl8JsUDfbyIQlZav1umfSug3vJdxTCkISGS0aFSSnDk/RTYRk7NC5HgK08Nb6wiOv6+SC7xXN+N2i5wp5ZhEjeZgIySBbIgjRVJ2Owk2opeeWiT1nrUMW9ojKHg85/dGNUYiYmxJZnqDemFOt5QqBcUp6JY6NmEuE7CEhEhcY+vlArDJMtiYdmS3d5soZXzGhngkbEH6CodRtZYp8exfDgZbTYW03dqrYvketJLVPclaSSNitySUSiUMhlBKJRK5JXI8jIQ5IcohyNOR6T4FTGZDkhyTyQ8BUCeRK5JXJK5EFDknkj+SVyIgmSYNlo1klQ6JWkkip82BklUkqj9JK5JRK5JXIyi4yiTyQl6CVySuSVB4JXJK5JJEfxFfwIEOTMhpyKkMiMyMyMYVLNpMyMiIckrkb6RT6iUSSM/cTqxtT4ZJJJJ67G+hQyE26CoT6SxTF2qNEQrw0alQJEttcqHV7WWqfDsVqd6TLaq3WdLu1cXyJJiQI8shyyPLISQMjMjMzGmRR2HYdh3jQJKa10ki1DFyFaviIRC1TEYCAJfBj15wjyTQ/wBhsOBksh3acMiNzXO8S+dQsJjMRwSB20GHQYi18DEYDGYBOBeBRrYwmIwkPgc2aAUiDsvhmAbBi0STlwKG2n2afeLalyO4yMfIyH/0HsZdmf6MkWcZArc7Gxntr5hmH9ClYEckd9BINaIaC2Wl/wAXoM42j4kueujv+hsXkShuZTLqF5zzoMIwjAMiFXDMiUbaWsfZT4ip2lS6lpZTufb/ANAMXyBZTeu6WQtU2lipdgqG93Ra+KbZ9HqUv1ul2PQ+K9csXxU/S6X/AIixUMsozH71Pqs9Kn01VVqiNIEITYVRImIfEYxZvnVbBpMI0hryY9W7BCTuchn+jMkzTPEo3o/UBBR5yOA/k/gnAb4oj8UrbxhD0mfI7jsHkFgyHDI8MwPTcHQzmUxjN8p2qbCyrapvXdLqV4tdU+NLsy11SrqXqHq0v3KbGejSqrbPih+t6RRFZfCZkb+VPqnpKhnpKmrUq+lY6p7FLPbpuFinxFalU3X2aQQiBQSIIEOCENIEDAYDARrYqTL9Nha+6bC1Tf2pdTuFinxWKdqZ6lN2l6R6PxG50evSvV+PfupfvVNWVPtaGfup98etT6ypK1DqC19Fun2BUM92m4WKfHsVKupsZIqbCz4w7Ovl8KXVWFlWxU+xS6pcLFP/ADSklY6p9JU+kelT4073R6lKqiQ7xlket9I/cp9Y8U3e1PhQZ6B6lDPzVdWVKv6p9Sqe5Sz3abhap/YVKupsLKllNgVLt6+WA9WR4ZHhnYdWbljqzsOw7x5DESHcT5E+Y+A2LUigQG1MTLM6t7Um3ILdQJsE61E/zvUlRpowUcwzjOM0bOJmXMztH0Zr4P8AB6kXd0GOYBhE8RtOxHFFjAidIGAbptYwLQMAwBpIKNi3wMp2LlQWxaLwo5HYd0RyRhjV0I4COA6jq+hwTYlCw7o/gkJLwYu9EwieAwC243ijn5Y1vuEEtzNhRKIPgZ49+DsM2ujapCLkZO6DCMYxCVyQl0TrI+7ot1BU+7TdLVTehUq+m1ltNvyA7evnQQQQKBBBBAxCCNZob7RA7KWPLpNS8E8uEootN8G5Ah/ILfesNo3/AMCKPWLGrMp71npEUk8DbZSyPX0lSr6v3VNkI0m+dP30/s/ab3aq/R0rTggg9ITYQQIRAq+ghGIjwYhCcxabCYjGJIMEMndndoSSe8jt6o4PQebOyJwJwMKJ4IdHDnRf7vT5pI7iIO4wM7BP5ESIGYy6jShhGMZkZEOoYyglE6sNtS1Ix29f+HcxMjJl4EktmQTkzr4OBp28liyRDtpEq5erHuSFXodh7xzHJbUastZhsLdO+zJ6c0NjV3kt0TD4JlWacWaEreBIfCaXaHeuxuPYeac7Ut9Ba61fy1XeodhQ32hDP5j19Vauup20c48Gjkgs6Lp0s7KGeNL/AJ0s/V0ql9c9Shj+mm+WfEk+r4M4o3/0QQQQJuLCCBDghwKkJDEYzGYCUMJjMJh0So1LuOzMzFmx8gyzPMge4MiNyOZ2R3ROJaMC0mLRZ/yIoqKIiezwTIkxYETa3ybERaSNkfYlr11wSFYMMIVy7kkJe7LRSRHmhA20I2qTYJdLW7MT7b+XGgSKThZBfSYlHdEtVgCgjwL5u1PoFrrTpQ31X+oJdgQiluCdPt6+o1huoLRpF/Ymkwkhhjt6ftoYqf8AFSzcry6GXKfqFioZ+Cn90Kn8dPrFr4z+lN8sVNyFTdFRYW0+HYqXVf8AGsEEfB40L4ZuqRfFcatNkTHYsLcMSXsSJCGN27IVif5CaPGivuUtUudwmK6lkKioY8sRHkTVDEWi50Rb6/qhaxJNuGe7ULFoyE27RU/rm8DdmBImy19RRC02+BI/h+67h/RW0/TQy7T/AFVLsW/7SqX1yxQ6l+qFZUSflp9Y9b4mzz7pvlqmwKhlym8WU+HYqXbV/wA/L40vVnVi3Rq3OsBtkTqzxJJJRKNgkkkhySiVyJZCUhsSiHI2hQNpq55AgSixdiZOrSG+6iURmOJuQIcoyIyIXmDCMIwjAGRJkO9Ekzkym6RnoAzSRwMxfxuIuY2iUyHeYWYGYmK7HgjwzAMTJAsCZHhmJnYdpPyQkymYzaRIlOjYxiGAXQX14MxJKGP9lDP2FahjU3oVZ0jPPum6WqhlgVDLlNwsU+HYqXZ1V/z8qOopqkwyUCRwBrklyNuSfI7h5izO52Z2HYWER5I8sjyR5GpPJEyM7jIxaiOSJGdacBsmlDlkRHLELYyPLIcsjyzuIcsmXwR5ZmZkZvzuJYVxRqN8JKbeDHosemtoUNjCYBjMBbfhGIwoxIwIiNvAxDcbYr2GIgIgoRCIIElIwQiNFfdECCHBiGnAiGxDgxGEfAJ/zyYDCYtIm6CZHaZGQ5ZHlm2zYlzHzTJM4jb+QoxhHdH8E4UxkpciR9mRKhmJneZjMQLMlEmhXFIyEokkZSH2oZZFQy903y3TchU/81f8/L41KnYWVF8Vlj7pvXxuxd1e9UlZU+mqVioZ+L55CZ6Wm10pdqYz/Luhn5hWodU/RCIII1kEaQJ9Qu0hEODEYkfxTMBjMZjI/AhrSiQOzOcN5M0ytW2oThHYkTiNxsNTm3c0EhLnoR4ZHkTNEOHquXSR34MhmMyIckBAkn45pOsWVVSqq190+xSz2af0+Nm3CtT66qCsqfxU7V10s97SqRa6U2M9Gh1K9/BUM92n9EKh1C6WKXTMsfdRZS7ehU39tYILBdiCEQICJ7EDAQI2YMRDw8GIxaDOAt5EDb5E3JmGV8DspdZtqqhip2lv9p9yp7NL+1LPcqVan1VSxKyp/PTb00s/d0M9DTY6U2s29dN7/L03u0JbUvZp/RCodTvlin8KWWvuqsoY7RUMufdL7i3SSSRvt0ej8tP+avQ0dvju2l1dpbVVDrdv9p9imwu70/pV7NP6oVqfw0/uhUM/JT+GlsUkl+WJHbSRsRPoknSR7BKJJ0tLTSSdG3/7fSdf3Fal7VNn9QqHUbpbS7eqWWvuqspZVDLn3TvZFih4NzFmr0n1pbGU9H8VjtpIGSSSHDMBgZHhiWRohwxqUtCuUQ4ZhFssdDox4M6M4R1JDsJFsD14JapJh7TYnqEZW7QYns8kxPmTKYRWLyJiMS5HYdwycv6JifPQ5I9uC0xxtJPBE2+TJxP4LJQKi2CDeIjc7EBGg0eJ286v5hkka5sMkyjNMobchNolOxEksdmR5ZHlm+HgRIcsjyzMyHbwIEeWd2bvIe27J1ck+Q35GYZRBp8dDBdz+B5eguBh0TkxusLbHnSJuZ2EOR7okLc7zKZB8opSPRYxmRDkYNsqGf8AFLLP7SwtoY7RUM8qGNsyxpGsgWnnSRfjSaG3o1V/idhAacEVwY2UNBAgQ4IEBEIoIFu+xJEBQkoIIEBpDYkQQjYhDQmxBBBB7xBCIIQiFT/oghEIhEW8foQEIghDQintrBB+gqXkeIItDuGkbt9P0VLPfVN3VTOdC3LweCSInyLWUNpKWQHwp/LTYK7IJAStPDsNPX03u0LW0uSBSa2Swkd0WIgKtuxcRiMJjHwDXZTUQMNauZNAyjykctMnEOCxwNR5czsJVYiViHDIcajHeLnM+myoa8iZZkIckoktLCSaEqYpMTf1pJ5+J2aWEvmc7CSXgZvMTlTRZoSbPE1PY2zlnmoGFRaPb4EkIRwyJDMQlYQRKZ6GiuJHhG8kCQYu9zEJ4mNH73xDL5sICEngbjQxE/IqZiTV0pRkZlG0kWxreQuG20hNHMeM3djwZz6Qmw5nbR4/0vShckPCACnNjkd8vJ6qmblnFcN79yJTekLq8adn8abGRDBrfzuje/PgRJNpB3RORKfkhQbbE7EUHKO113CyEmrkYnLJR6nxCobRGeQmnai4W0Mj1FSt0jSBVH9EQQIEeCJFDAYNMw6CiBAjyzsyBC2mQMCKAgtyOWmThJ4idHHZczqxb7wR1HMZPgdmsyDggXyhoRyiBKFFFmhJpL5ZHcEZOl9MPdkNIqUNO8kiRwqglcgQ/IaLI0i5QQWF0mc7BJ4RuXkuROyIb3BGbaNEJcuCHFsMRu08edhoDI6FJv5bJi7kbObidWWPujaOR7hPhsQKICdNHpDsIn/GjVwJnbuWIT6H7TuexniExUCEaElsTDjcjcn+zFG1Cbj+SItIWb0aoy7rpudHolsbL/0UUcCFq87tyxDiEMZIbJxG4ciEiw2yPIkg6+ca2HyuRtDwka/kFq8MyTCZNu+RqNSMocZM76XC3Vm1km9bNtPGHsPGkfI+DK4tJS8kyW/0s0km8043bqtps1QREqRBAr+tIIIQ0hJPohwR0MBgrY7NVVtLkQuCRled4702aDuE0cigy3fL0qiQrISIaMXpVCdrkSCYy+bcjVC0h21QYMdlmxbUyJ4wdGJCKhFz2QhILYbBi2NWWugkQfwIkwMVttwRK0Q06xAd7Tcumm+CG7RqkqBQUo1I7M9bVjZtxYph6TY+j09LEk97eWlvG2fhadERpX0es8oi4qKQSpzOkp9CwFqxwX5vc9gudCJAkjU2apLLBArzsKlsCNFceSzcPyx7IR5rdDXDZZFgEc29FE0OzZbo1bDZjIwxFuET2LEAa0ISPILW1o9kPcfROlpYeSLI6AqVd1Sz0PkZ46wOY0aLqbK6vgZFBzm5vCwqPDRJaSOx+usKtMsfdEjeg2NiUSuSHIqdwzIzGYzCI6DMZzOQeSewlMOw7DAyPDPBiHDO07DtGxCNUGNinfwpMK02MYEPPZgYEYddYDCm141/QRlzGpseEdxiZ36aWnQXOZ9NiGMJbvkyEORFzfSfoLVWQboPY0WNGh6CtQ4Pw0SLRjXaLCRhreRIJDl5EZ2WjsXCPAL7yXR4RAtJ1pXHeRyT0aKHUri0NNt5EKwiX8AV3X/jUzGv7EchKdyBHMyaB+V6TLos2mb8kuR82kzDInE+SfJLkXSbGsyIlInyS5JcsyMsonyZDMJ8htFx7GTUDMG1/SZ2jy9I2L+TIT5O7O5GwjQRhF/akgR9BHgwGIxEBPcRIECBNNBCIRYL9WkEVNGuwQQJs+j0CNIRAnrIEeD+gwCvoIcC76gfGPh0kN6U0jelmzyxyjfyKC7UKOZ30yThRh0DC3QmSsdx1ZDhncJJvGnnMhmH5DKLkoUapUdlghKFyfdiV4HBcNsJGkIS0JtoyMol9bIlc8zYWtlcgVaWKldV6HyM8KWXOpbTdSy71RDTaiRZAW9o1VKwt/EWW/GG5TCoZXAlE6NpCtB+gkaICVqdDGZO2jIxD1Cx9HoU/wC7FLf58U+gerQz8mjQj+Xp+i0yYcvVl1A6x7OsEGxf0QgQiA+AjMhpR0GgiCOnuS5G8kC5KNiXkyEcxKYkSZ4mIg2HhaiA6aeAgbOYgyjgiTkhyTyJRIwVK9XyMWi8se7PRZuxpoelyZZHqtpYS7DQaJSxNsxicOWxItVpaIY8kC1F+abdEyCjEoglIkV/fog4W7Gdb1ltLySEU5SY1vDZM2HlGMTfQ3Ye5t5IEFRFIBk7uCn8BMtWE9J6abQEXbGIBD04iJ5e9JgLZDJOfhMSBO2LnHhxR+SjPm0u2jCGzc/6JypLnR6tDPyaxTuhKSh9l0JLQkIdAHNtzJI0GG6wt5XG4QhZC8QSBjU/Ja9Ge7Tb/RWoYr/kWyhlyiC16UEEEaSSIGIjwRGkNYakCOl31igO4t/Th1zlWYh4Hs7Hpzomx+BG706kUmeLnAGi2q3Xkf5nZcDPZI2U7hkrGe6Qpy3uyJBsgWJ9nhDJZYopM/Gm3RiC6Y0A0dt2PU3wWq7sS61hYomfYSYli2Q32boSahyEViIcIZdoeAIkmwmU2k2voIpGtLR/R3PYZ2gjTmTxAvIhC5ONF3dgnNjc67WJW7QJ96GeR8BmJM0ZLL80jC9gpdu4HeBsPUPUUM/EN7Dk3B/FG2dBPOkHEx2Com3SPMaQ1Ly8Cbq5GWEikI2BJIbJiYIlLw19mmz+oVqGXabKrwLKGX6bS2nx7FS7aWK/qpfmiCK3pZMti0n2mx9LqNLC9nRbTAg9JaJKl3IhG4N6agt6cLkmbeywRJYtVf1TcHtAot7iRCSmePQ9k8ClcNbXTJUxRrnVJaPVQQuNF2StSOdMmcjFpZ36wTnR7+goE6O+qNo//oRGPaBFUMyMiMolv8abINcMi0+Bcysm5M52Aw6TGUUlxeBRTTZGQzEORpFxX1jYm7/JAsO8Y+3WbUSXZCYUIZ+4alFoGvdDSi4GuQn7i3Inp7tNi7Fah1BllN/aky/TaWU/oKl2VK7oV9W4JPPokn45QhyTyMhkG92MxmYykIQJItAuKQJTggRI8HYR0UeCHBDhkOGKaNgcORAgQ0cSGsJkPO7Ijs1iEX4g7KBVwxKQ7DsI5IcMn2/JIT5EwyskLZ5oQGA3O2jt3gUVCg7oa5kTd5UpE3zcyCQlzO4hM/kNDDo4yyfK/DGYzEYBt+X4YDGYTCPGPDLG8UlC+qB5MnyZjJPOeGsUF20pKHOnCY9C5tbaEeRgYomUMbVyR2MhkMyIcjbLsToY26m1lim5CodWsZZT+wqfClnAV6CFd18rUiBDWoCZEDAYDEIFQR4IkSPAqUJCJDggMJuIECBAVAkggQIENDDggQIC4EFggQIESH0I8UALhif4EeCBAhCfaQRpA0L7MgiioIVFnZT7r/KdrdHqKfaVPvun0T1qGflpaP4UugQQLv20RMQ37tTELnsQ1iItIWy5Pl6TPMopR2J0GIhWEFbWHQjwzeWwloqaiTC5zIZiHI6kMoJou7Cp/wCKvLqh6K7rVfEr6WXKltN6pZcqq1DL3VNwtdUr8U2v44WWqXqVztT77p9A9RTu7VS/soZ6R61J/uoYk/yFT590+6Klt6bw7Fahiv0gjSwskEEIhCIECBDjSaiZGIiRI6GydyfLMgh8hNm5kHmTgYNFw9BIdhEiQ+pkFyGYhyShP1+W5S7F1RbTcqWX6bSxUMvdU3D1qblK4eh8cP7un2qre2n2nTc6PXp/04p9x0+qWuqa/bSv69I1Z+1PuiodUspOoXDxaRSJ0nS991GxT4d/BwQtECEiPBiIECJeWDuzMM0j4av0svfxi5UuoWFioZe6psPQp9Cm4ep8SZ+zp9mll3tT+yn1meoqGSdJG+5k0eoetQz8FDrJbUdUM/ZT4ditQ6VJeNiE/hSLnTc0p0eI8uh74F+aWXeqWK/r5blLL3TaW03ql1C0saSTpfpsqXrU3j0vimG9iSUQIDr+hDkzGQyD5hSLM+uyCvuI8Mhwx5CQ60YlD4aDEMA2P4gjnQpIBO++oUcyOYu+fgWHfwMyXwGEa2MFCdfOzyS5HcdWR4GuRCWnnM+iV/USckk6M2T3TauxWodGeidxaLV6qNUzzpuaVhOdfDsuoEP+Klf1Ur+vlThifA340GMfAPJmEwEmS6fuw1MjmQEczKZBJMjmRyMpl0iciOZlMpHMSffT2Ox2Nm5so7HfW3dHkbTk+sOx3I56BwNzNoJCYedD46DT+tFWAivAhr/dCPBgI8CokIhEEC/aE+oRRv8A8bfET0T1qHo0EaNCIUCBEjwIFP8AojQQv+pA7E+dA+UXwfk7k68nvwJkrHcQ4eob7QymQnkNuH2EoknSyKnzptZbolGqy6E5MSP+alf1Urul/wCIMudS2l3pZe6qoZfIovFihnqU2lqn8KbC1T+illjt0+tS9geup93T6Lp94eqvndD+OzE9iNIIQtuxIhEODENBWkNSJA3hsaZ8kuSXI31jZCOY9DPEx677FjEQ4OzRyiWxwRmJRK0/5pYr+qWeh8jqLLqVpapuVLLnTaK1DL9NpYoZ6VNwtdU/spZap990ssdun1qXuD1VDLu+n03T6x63zuh1a0jqvDsVDqdjLaXZS6MEIRRoQImIwEIb8xvoQI8k+RPz8GYjmRzOyJKl66dxHhknJuxmMhhEOSV8tdi6lYW6blSy6lYWKhl2m4epQ6n6x61P5UuxZ7dP7aWfq/iN7A9VQz9YvhN6Z6VD+M4dX+wVDP1pvJUM9um1lvxHVvFlWVP/ABTAhQQQQhBJLojoYfnqMvpWFv4o7F9K0sVDL9Nw9ah1S6elT40rHVv10u1aZOuxuNePgZjOZxkhd5EODo9LuHaPB1IcMhnQW+sjOtReipTzZkMhHkjyfYkOSUSSSMZ+AyM/am/uKhnsU3iyn/mpbVWVdU/81fhpZ6H/AIBKIDaGUslGQzGQYQmDMZDJoNYaENSaQIlkSFBOyiBHSYKkyNESmhMaGQyD5hBZjMZjKKkLJvSBQi8EOCPDOh4DZsPsEuBbZvb24EVwITLfJjMekwEshtpbXjnppRU7iXOg7HYnGQj+BHQwEeBW/MgQIEBoMCJHgjwK/iQmxEhwQ4Ggt/1IECBAga8vV7kuSfI13GbTRyI5adh12mHssbojpZjIMpCCSSRs9ym0s+LZWFlWVP8Ax8g9L5GSDLkb8nc7kS+RIsiZ2eUYkR4IEOCImBEjoQGsCZZAdtheWIiKgWwgQIjlFtMBUshaW9u5ZAjobIljQgNCAuREiRIiZiIdaECJESFAQhEC7MX6iBv4F9iXbtH97kCfWyCCNHYT6qZt/wA3qa11Qy//AK3pnYv83Joc7FTv/t8IM8FrWNPTekECAwoRGglZEjY7GYyGYym8+zvpkSYO5DtppcEhPgZQ4IaGcgXI1zMQJJLf6PtUlTO7qp6j8PyM93V0l3DdCPOBAvlCj+BcifW1tkJbaMsnYt0t9gnQy7RnDaSMHJpaKj7gMdMyKS72xSSUNmpITEjjhJIjJ8JvljrV3jJDWkqWw3ffJoysHkWqtZoxubucEM+XGjO+v9fokkSWShfwk/N6TrYz0Kf9f0esnpHoUMv6D0Y7KBtBYqBn6aHoDbanpYpdvVLsWdHomMapufdNjsTYggQGkJbxIYjBoQLCGiBHQnXkM5OURyO+hjIDYwEh1IcMaiTfgzGcyIjyNjjND+NTq/26RhduJGBFl7Nh77CPJZIkuWeXzey4RuItEjZFvBWqGe8Kiwu76LRcyN2J0tGqbsSsq2vZhjRBzI1/sj3UUYUBeD8FHxJJLLt2EsvCEJG1de5BR0dOkvnGkkpvY7xFttwWc0O9HfhFSCESISUJaKVNyX/B1e7Jc6f5x318WWi19A9GlaK19MsdUMvUTPHTGt7+FiGLRlndQxvsLB6ss0u3qk9mhOjEMa1kku7aTrZ/S2hiupsZZTb/AEs1jXpEECENBLPohpYNKPItzczNFHPQ3DTsRPkdhDhka3QbEd4gzyPhC2Zt7ClMsdsa2GOTCLNPvU2abyMSe52N+Vy3blyMRqWkTeWW+Al9mjI08ZJinZ5IrioGckp9x7kNILnm3PINQ71HSJt7Ml3aiYxCW6n90sqNwVlqmwuRIUqB2wMk1q8jxesSaTejCbgKls+NGGX2Q9f0UI9SoFT+mWOqGOp9iSUQG0SECBOj+6E1BOkjD7PsknRnsCosdX6ND02quqGNfunxF4oZcpsY+2k6vsuxMXxAvRS6s9bBAhwQvizMBAx9w87u+9eWIhdsgvncy3pOvsU2H6D1nlCdN7ECJng3F12TwjaCECWok3tdSidGXKqWxGrPcpuFjqhl7oYleNfSPQ0lEolEopXJDkyGYVLoWVqUdJA6EuNYnJFsJw0RzM4+Yl/t6O+v4tX2JcjFf5QsifJPkfMMlaeyORHIihtxmIxDeLDEux1Op1Ij3mCBAzEOS0aolQy196rS/sLRaOlMvFilrditrJJY6Gp/BRNcZ+f5GIRwGujqPAdvsT4MRiPOssbFjZU49iidx5m84I5jcJzLpJkJXkjmRzGuQjkM9tK0ycSdJgHwjJ0GMxGMeAodtUnQS8ngjmZdFmGw9xv8qahAQI6URKboX/AgR4IkRJIQ0QiNElT/AJM/E/kpZZ2aQQMf6kEaQi1ig9CGpgQIaN5pp8mUjlpaESVYwE+DqdCIhrGUTt2JIckCRjqdNwtpS3YqoqfRVXuVfj1XxI/sRIECEPYJfsggggXYs02KWeVRUMv6xpbpBGjQoQQQQWiRFF3qm8ep8R6zPRUq6l+D9qt9/qlX0/wCoZZ2VGqLnVMdX0i3RA0Y1IDQVBExECBuiFKrc7J86bJo23JEjEYCQ6lrsQZjIZiA3P8AIiSdGfnpZ79L+a+/S7Hl3TZVrFLLn8V1awVDsXd6hU3eqbnR63xPrHo0q+lc7X7Sz9H7Qy5rjT8gqVztQ9FBGtzo9ahiosuFj4lj+Qm99qbhatIIEBVIiYDER0/gT5M2ijnrrDoJjpoJPMZkZiAx+AXxs92p5902Fml2UsuqFah1a2k6xK1DG39U3j1qVTekenT6Wnf/ACFQy1Qy5T/ANSvd0MdN6FIYqDG3Fj4lrLFNoVDLu1N4tU+xV/xrFUggQFf3I8aUCAwmvGQ7acBirdVZY6VpYpsd0svp2iodqlaKh12VqbvVN7o9Klfin1j1KGxP6BJAiZRcdJAgR4Og34GI49F6B9UJoCM0di0LAYBnBCv6T4Op003xEhqCJDKBAlEBiEkjY2WFih6VReLVS7RUM8u6b5bVFany61nX2KvZpfy9jfZS2foSSSiHIqBECHJAhpbqIECBAaCZZAiQIk4hDRAe03GQIiOPP7QUJCPJHkgNR9+5JKIEB5QkIkSJDQokSBE3Bto66JcEuDg+CfBLgxGMaXo+i09yOZmGfwWtASiknQgR0wOBQgggaPSRto2jY/AQQRoaCDAgNSJa60x40QN0bDVeihbEczvpdwMSExPg6aEcNKPJkGQsRJOjHaKnypvFtD0apXopZ79V/alnsfI7DuY868COY+Qudk+daJCtdiRIiKBAiRIEBdw645SSF5IEBUCSCJAgNNIiRNxHhCO8fZtUozu0s2teJEiIl0RIECAm7o2HRBBBAl66IIIPRZ6Spb6VTYJUWOnM9ZDE9CLegYtGNjm4T0bFsCdWP9BZGToy4QQQNFwWghogJJESBAiRJm2TMxHMjmOROgwEuBtwYNENDMMmhUEomgKh1J1Qy+mZ7Cq//8QAKBABAAIBAgYBBQEBAQAAAAAAAQARIRAxIEFRYXGRoYGx4fDx0cEw/9oACAEBAAE/EImo63NjN/lpWiTbDXCbcOAYhzwGOhDY1ZsmfDz80OBYlwdGEeCbHBsm7yhqzd4obcGyK9K9GP3PBU+Ez4etSpmfQStK02/CBjgEo+RKlRCJKV90pKIBEnyE+GlSpRGNt3OBhoeMDHCz86VKiQQ4eExEqGqsegQ4L/UT4GhGJPvobcCxN3loGiRwbSXpcYsgcG/NiOrNvxoNd6bcOEzbVYsfsIPCmiStb0WUe/nheGbOrozgMdGbZz+eBZ8qLBwYqO+E/ZqdNs3068DpNjgZ8/gdI2aOm2fc8DPvtB1+MzN+2pGP0o8FsUjbg2R23fwJHUzlFhph5EHrQ1YironAzKIcCXPmuBIK8WBjWokBBXCBx9iGl52jPhMHBsm7yhqsEthLl6bNAaXFl64WYsIHEIRgw8KdJNjWoMRNffQMHWta10dNrGQMvWlTZ1ZsiKRaLLixHiDosY4bOB4n3tHRmXmhB0ZmMefPS9Rg8kNjg2S319LgxZn5YcCz7qGrH8sqVKlQ+hg9GpNnCRm1LZq6N39M61BBcStAJWnCh6DgZl432lcAs+sDbhBg6+G3x4GOBh+LStfjT47gYPc4WLHm0HRis8EFEWXq4jo6CygoQjcGLiPFBDXcn3Hh3eGBRAjCDEx8pqcIa1EjGCjqHlHlfCV/jGNolAQ2qk3N6QekDgkuS9RA/wDSNOT7lkgCHreDbgdNNfAXOyxv64uNz/GIr/nGggwqZkiVH/KVIk8qFkH1Dpek70787SYciQSoSCNbCLZ2HudtKW5M9vCUgnWUiJg8oJUuDosQ2AeB0+LS9dkr9RrcYjw6jT5KVxdHAs+N4f2XWGDVYw5/tnW9Ce5okrRWJ8SHA7E6NTSmHWRCVqWfNq6bfDKlasz8bgblCR8dB1Yv0VpcslwghIvmgyyXFIvgiEjKhFKjJiQSXL16KmNGJfBQlwdFifJdFy9GX4YitLlxYh+vUDguBxMqHOVJ7xaln3eRGrHTIvSnBdtErSVwEBllT6VhCpuiQYlElSpSBAkVUogCIQqhckr0nbTsIvyeoDEmLIhsHeQrLMWro7wNtPuDO9XFevuY/wDpH8/ADj2yrc3mAxRrxLv5+4lPY/SYLVGPI9Uw7sDunuYOSn1uN1QM4qBBbTtPc/ax6qflUPkpbEOfKN4CNROgfSXJTi41ov8ABKn+M/iQZqR2GQ6RvDYdIn1nfZua9LLj/LGstViG8DQ7WX3RhITi+ow2T+tO1lzWTzKG33CKO/8A0lnJHrTvTvE7KV95WVj1I9QghVqTdXIle4PLHoPc/rToUJZcp+0QNnuJcvuB7+yXbe6JIDRYBZ80OimcAMTizhiAXNO6+o/wMe96YN/jKzAA7N6lg3PpOsf0iXP8GgXGz5Itqq5JlqXfe51X7jfj5wmEIyAcEFsX6w/OT+1Fd/ZAY7JXVLnvFWjbuIsyKm56IdHOlDs/U60FATGzRRyTtpfufWtJ7OV8s7JOiK8S8sMUFAdKjCayTyJFWZU2G0ejhzpBcnqZP+UOsYeXtvU6Q9R5UubU3xHAgbch3EeiEUUjNSqWTt/U7b1Oz9T9p/5XelSJgMbUVg4IRAa3RiDdglEPQYBmyVTNiVlfXiB1ZXMAY2JgnVjpcV3iy8GXkTsxEdEV+sjMsVZfTg2zZgaMcQ+Q3gKpQmGHuolhptm3z0NXnwQ0rXk8CzN8UTFAPWBAiaFS9LepdSWl9alJURUJ+tAVO1AyrlC2eTPoBFNydidgiOk2ZB6Kfwp/GjVXwQ9Q2p2k/nTs49PEICbs/wDTTtt29xaDaD7l/IXYICPufuWNo17SpulilCOJSMRfeSXPdLnQZnX6kX5Y9NCUB/hBUcifxIfiJXt6J2U7aE/XJ2idqI6SkFnilEqVMQNI0StKgBPEOErSokCIStGbJn9UIa/bwYjq7TONaVr7XAxfjA4FiIfrYMODG2tRMTYeIcAf+ZuwdUVrlo6DI8S3Shuxl9HzCpzNsqnJsTfmiDlGCzO8DL3nYytwiRvXKT2COv5uIjI1bVzFfMuDIgGiGu3g2LeagKE36ENLKqLZCO2IyFXZqNirBjhB0I2hNgC1gKvlO31hkGCbrygKQVafswTTlDReBBfIhEi+QdWEqxbBEFwRHc0bWG79iJBFPSMVbBbB0MwGzCKJChI25YfOrYOIf4gW6nOpynK1KczER7AmQ6qJmCBWHaiJi8sEsAtWViI1hQa8XC+xOIWdDRmxf6OlRIwupytfvRdGP3H3htqzbHXnxSOvwUJcvRn3eq6L44HAzf8Adoyoz5h95tOBm74zHBueIVF8O+G3UjPm6VoExcNDStfsQ4Nk2Proa7PFNhoalfjIaVHiNWbJtwUOsTkc2Dg+kg+1vEPQXme3JRS/ejpRsiyVkgu8sBKgSJCmLyqvUNyhW3pKXAn0EXXFF4Fp2W5QIw9cGxixhqdmbVmWpxvltu0btlTdOMbL7jTbNnlw7/OG0ToT6cCEBymJdYgDex143yiGsYRfWb64MeWb/TBMTB9ZFRuy8PqW1bX9xt/FJusG7zoLEjQplc1INITmlwUdqgPEG8u1u96Kc6/KtGs3yfoRZLvmurAOMAeMDqqD6xWvbhGl7aGOicHAMYaB+l6uje/e8eAgT0SbDV04B2V9iEBqz4rhE2rhL34IMNVl/qOG2DqTaakY8PbK/Ra/Vy6UwgteGOxw74beC5t+8ODJTa1TRzI1Jsn3XQ0qbfBNnCw8aEXR4HiwgG6y7vIOhPcmxA9x/HFIHKGAXSdpOwipthzGIdBO09zso9Ug1OYSkrKRERSIOc7kpoKo6cwSXLIEZBlKqN4SzXZFgd4QjLht84bQA8qpkTuQn2I0LEQvdUQUugEQUCdHRm6NPyFX2h62FJL1IbErsLqGyXQg6Xrz5bY+EAoeZUqwDZhFd5ezuQwRmy7YcVZJpu0CfDPjIOluUdp8c1SMEQOH851dO/8AvfgYM3ibNEiaaUjqhqwQHAzNOv3JcvXL62G3C+Q1uXM15IeCqG07TheGChwvMNkrRhPlw4BbJsIf+KdE3/LoENNjwixLl6bIMvZCMP8Az2wYyiUiOkpbQx2h0Z207CdrKG2XeCX8keg0D0IAxEmYw7kIkmse6bZbSU0t+h0bGpniClUw6anWvGuY6KTHr9y+meQ98otk+sTNRzDop2s7v3OqTFpbM84EZmF5M/jxDc9J1z6go3m0S3gh7SHTRNaMdDn9af2J/agtxLgXNyvWUlJSMs6DAS5cNxvnQXas3lqXqXLEfT0GWRlRFPQIQaNR48cHBLNFm94nOwZcXSq/XnLJcuLNw7NVxdI0HDaXL0WZ18rsGXq7R2mVxYCMYyAlINyzQbxinWU6ketO4QaHUSkZneJ3ydp7j00vq4og/JO39zt49NF4Bm5pO0naztp28Yq7Mpx3tCzDbQaLE47OXx28YYYYL0R3DRtptm+udrO3htVj00oQZmKo6xl+xZdzhgDzJTyYdLOx9ztJ0SBTcrNs7eEVm096P/g8EdCXqxZIMcLd4GLHELU0dGbWZmBrs0VRI6bJkPngSD2wCpRMSjpES5jzivJDpfU7Sdj6mGDeWckV5fWuYiYBGCmbZdD0n2xf8pR+UEK6RWL/ACZ+xnc9p/diqNq6y2Zuuso/6x/MNGys+eNXtVmPInk24/iphbfolYVYEacIlf4w6WHl+iKKfVBSoDNEf5Zj1Ra4ZmXPsZbVBTI5VHl+6dPRBfzY10JghUKNujAd/Vj2wiKSbJTDnQM5c+hiVwb4nX9cMe7BOkfUybYIKvW5AaAciFn/AAI89DwEs6dl2hHdPII35XnKwq2J+tlOfthPYa+SLNvCCUd37Y/3S4pH2zYoMEM0hXtnazsYoizSYhYViidtoB0s/kQVQ2lTYZ2s7T1O09TsfU2fznRp2k7ZO2jXslxidpOuJ2yHQeoSFDadpL+RAW6zsPURGDaKck7edpO0iOxF5CKck7GB8s6AgDEKNk7DRPQQ3JLcrkQ6ZO20gp2uC+Bjhw4HabM2cPdhqxTY4gaMZuaA1Y403XZNo76mjrhjtNvDfJg6XGMeflhvDX5TQOvwZ8IgxdcvKcDpAStGb3iMXOCkGfqfvElGjKAX0QStE0EV+2ZXAdF1+1qaM2vLwOmBRwMVnl4drwmzStGeuEuXOem9Ch0dLnyZtJcuE2R35YStCbsyHAs/54CTazb1uEdX7JtcCxFl4wdB/wDPcTa4FxPnQI6MWJu6Orom3wbJ9qOlxdSGrH7GDGGhxDQ+eKCGuybdRirWQxYMYivKGUuLLjae6EGLBitdp8cgy4aGvMfbioYOixZRmLpLhq+F0dGWO596EWDcWMYp3xdWKv2Mah0olw63Eiy47Sv1GErVjtO/Viz0OLEvVZe3xpelx14JdrMqL3TZoQY7T5kNE0dJjacDF2dpsl6M2TZ4SVvojwjosVk20xL/APNEqW5KdZehZsQFaLix4itQdL0FzEaXotdjo8opDB0ZueHbNmo6C5Dg2TM8vDadWEd9A0ul5RR0JGL3oaEIL8U+JqRnztF6MdGO5aEZceGK2Nk0NFH6Oia4njmxobxSLN+TFobRR4NAa7Vi9rGOnKZeV4GYRWvLRg6LIIKHB9jremPncQ+VDQ0vEd+TQ4Hsxly9F8I3I7PBcpfkiwlxdHaOzWNL/wDGgi25Oijwz9zGanaCTlMdc0jsUwixTxHpJzZlyyA5WDq0F9Ep7D6QQFAzsfcf6Z1Zea4BBXK+aPPiwU2Y1UeSBC6D/DO71Q5/rl/X1BszUrM0hIE5NIRgWEsQZnbe5207xKQt2DaGi1FiFh3MdAONBqEitXRAt5R1ggfQUqVwT42qS8Q+3QS4sWfFwM3vDDRRWg6PjOBm3XAggqE9mOiijsohDXBOgwDwv31Vp8BhwbGGj5ZerFSQ3HAY4IsvfRdCfHZQHocOHlYsSzVoTfQPBWG0lxYRi4wbGtzIZtS9FlxnPyRYsvRJtmVJ2aHAHBcuM2oaNFZSXHWIFDDeobxIrjlCOm2aTsSRSM+pEKlbdI9IJeijRJS4LJRKlQEBeIiIkSDKAgSkREOkQjEB0i+4n8aP4CAMeqMGxvMdQ7TTiLPkwu/lhy0eFiv+yFP9oj/vEDfjtaKeTGqgp3/qZraulQHe8WVavGAqFP8AmV/5TL/zn8OBciEi1Ld4t8FPrc6PvZ/Yl+/uY54GTHKZOT5Y8v6yw/Ms5n2s6B3Jna31nW90b8Fh5QfpnN1+iFYvtidf3kz19bE6npln+MdVVjVx5gOoQKCjH8iIpfsQ+F0eUBmAZa0lv4sF2MW2Ez9hAMaIM5Lkjv1iJcUnV9hlPJOZWomgmJGjHzbKovyRXmVFJ91EAhjTsiyNmnduDt9jNvv0ynf4MIIkN9ylwOjkaIr+KAJijUtKsqJNTycnxpzZy5dtKtVLc3EfnMGEsXl4QJ+ceDXI3cAf9p2Puf3o4K+qxY/6wCgXeYFt9kb/AFnV8kVdSVnmLH1yVFqR6YecU9mXDEYpLyqdinIsqMOqGbGWM6fqgfhTPOo3I6dtKI50O7OMbt6QQbMINMaSdc9hCLtXtAcaJlw1hnmb5CLzxPchymBUFzELfEf6elUUvBLphivw5ngdH6/8MGjkRiHoOcADYN4eQWhyRMS6oxDrLLdSNxKHVLWbdblx5JsOFuaJEm6PKKQy4sWCI0ddkwQ0dPnwhokMV+RwJNnoqBGbJRKdWBqysXWQIqSB6jgYPQlaVEJl2DK0ViIALdIM3aIvyTt/UR5fUGvyVx/HR6WfyJVt6ITCMJ2U7T1HoI9DA8kycZtj0M/jT+BEdhBYFOk7UOlKQG1yYT4mmko0EyjSpUBUDF3gEqVKJ70hiVqkPrfbgBB6WCi0qVGCvrQ2lGoxPny4aMtaLBqkqDE7cLbKo4fukNEUNTs6QQh/5M2IaYRhycyAh38oBHcukCczhiGCMI3niUYN9VNkySbDhbmqSxM+fHhL0EGg1WXNmguDPz6DRm2YvNL0NPn8LZDR8sNWCUNDDSyR0nxosXMI7T9Ptqxl8HRpcuLPjMFHbjEdGKnxQ20uMeJYO799bji4a+SlMPRw5efwVHafdPt4f1O0OF8jS5cuL1s3HbS5vGKZcDDoB0uUJNmXq7RCviG2rNk2dHX702EHBsCQpcP/AAdUwgQNdsEP2FQ4ABLi4jeZcD0U0uOiPqRY0vTbN2DLjMyDDpDVg14WDo6LJmd+85w0qfMhqzZB7MDgMp6wcB0WDGcoNX0sGXHBWNEgR4AZUQREXS43F0Zy/SDDVfsVouMWGD1ENotaGZsZQp6aMTTie/763LjrzY/Xly2Doj6vhAzQkG7GqNGtumhr+/2gcDLvkmhr7lHa9tSMdfUi1uLiO/NoMuLMkR4a3Ljt8Q4NnAOir6ybdAxdJ0hcGD/4sW0E7L3KvynfR5gRqgg20rzgl+EOy+kCyvpiH8SZ5jQdvGFr2wxRvMrlkn9jSP70aYHubiiP+0OUysCo8Y0oEslxYOPiDL0Y6Uyv1ZWYaOjOA4n3ejKjBfYgmzVUS9eBZViQxpWdNlMAQjCcuHWHQOiTLzoaPQajX6tuBIrTGw0UwsnwGD0wdSw+Ro6XM/M0LPA58/h3vEOiaXDfYg0NFxp7B0YkogJ45cYoxV9aENGMd+XheU25fApLg2Tb0WOgr6yDBAdNmjDSXoY/8XgK02w5SpSdkgEAtI7N13ZT2J23qL8s7CNO2V2yF5JcSTNmAqHTyjNtxEtpmLaef3EN1eIrIG9sXGjYikLzFVc7lKx7p0fZKpg1U943Yn0vgQPceo2Y+sSvlg2AF84hcKJRz/rKf9I8+4iaoDcB39k/ez9jEud4Y3rKAwbnlFEH+SU/DP5MClKvHWUDPqgtLNC0F/BjYDRe6HlmGAFE28YbIzqFDaFhVLeCV7/F0g5cWqFxMQFieweWDFnug7XzT+xL9vdAX3PVP6kt/wBpZt7pdsJvQxeD8ml6e4SySwlJcU3GESkRFhSCSxmNHT90y8cAJcUglepixKaENbdWjPo4suDLmR6H/cslynWd4loE2YZbRHop3iI7iHRQwh55h+eh0vuf3p/Yip/2l5HNp+XT+hP7mhFYOJgBYbRnU7h9YnyMaJKKsEOlh0s7P3E9wR6OEVd2HRz+1OznYyuiyyg0qz/Sf0J/ejXbh00/sT+9P6EusIdLqdh7j+Wj+Wh0kMATeBMiWcs7KLYsiXMg/OzBOSB8sLf+k7adtwXwbJuaDrsm94HTkIkdS90ol1E5qi4M2xZ0Xoyud0D6ztOom/jQ8Db4ds+/KlStFj6rAaIazdhzRJUYQlfrMyIHzVjywCtiJhCxFYpbyT+NH8VO0gWwT2idlOynaQjQNyKNku39UPx06/qn8yJwmqks3h20YRMCDQUJMuzL/wAmLc/ZHe+eGu3LdguRUYGpf88yDFMqH/Ig6EsL64uU3bZ3Poj/ADR5zwoNje+IECWxD4qG38RHkr1CNwjeJegDYnI+ggP+RO49EebMKu5uqDV+lcbMQ/ry9r8ssDSW7LOlNmOKfLP6yIs+5P8AVE25ay3zLzf3Y/mMP7U657MUIsDzYDlqRTeMkPTfcA2kphhW5cZE7CWJYa0JHYS1cOVReHaT+VP5UcgCEzkuCW/5S3dPpP5Ur/whDpkYPv6ofiIdLF9/RETBIu45w6KdnKeWfzIFUZVY6FTsJ1jHoY41NoNuIdPM91nbQAtYrKFWSjbO3lGwgmDmRIWWdOMt0uPOlHliSrFQWwh0MOl9TNt9TstCPAx2m5EhZrtm54uxGOgxHXmigK9CEJuebBOseUO2OzFqAumYuJXu7KzXK/ohj8hlTU8Blaa1hwqgiEAja8ECCoCNkI5VNG7AR9732nMZ1gle5s4QpB88qtbod1HR5vTrMEZxlTGM2wWtGfK5bRPRC+orD1LjFbJ2NfdHMqxOZakU7lKE57lPRQdNj4dexvRU9Fy9N93IbGpFmX79pei5c9x0vRnzUTl3ppcXSr8P7cCz9HtAhr8RjtwqLl6Ms+L94a3HU7bdDHVh8D7w4PhM+LDVlR94NVguI28mcJ9U+EaXq/oKLGl6nMJLl6YtmxwvP2hwbkdh4djya1xdC9LNkP8Az2MfFefgdDhjLixKpl1LfeUolY4CxCXbovLtO6ow9NDwBiYIXrRvVwTpYyMG6KrutmXXGUxVod6pPuOo20S9N7vqxr14jxCota5uVcdkoIFrQs3orv3dGLBi4oxNlF2d8CRqqjbjlAwoS5jplnDg6vIm7I7WnWv0jSgoWSd9CnL+xc2X0LlR70el/wDZdS5j4OErB9TRZcGCz8S41YxxMdLnykHGly4qTvmT9RBjlGFnwP21WMeH9KlY0vT5qXeBHbS9FXwvvLOD5GfGR4D9L76LoMftaBcs0Z97Axqx2itO/S5cufBi9XCGMlxgx4i97oN6tlmIxdcq9tDXenyXS5ejw8k2uDZGeUdQ/wDlsjiX8k7xLJZCqIlxYx0rDRYwuNQboAJ2iglLG+IWPPN6sM7AplBtcj/s27mX0TVnpcOyg1iZIcoDYjU1yZb8OwlPc3IBk2hFkqqG4LKh1YvYtwslIXUwXEMIGx8x5Ta8uqSoq8TO3BSyVZ36sdRSb1A5p0f8LguMJN1dvUxQ02PwadtzASHaQgB6JaIdEf4h9UtfVr7gzZ8DPjIy9Cfb/eHBpWjP0e3AkC+d9obcCrzp8JBia5eL9o6MdGEdGJV3StJpTXLsCO8uDEjqYetwOsg1sXdLPEjmCDbGD1sNtWLifNx4bseOB24mWJ8jQKjoLZMTomr09JcNdrE0ZfAGvkixqzbPjMeIui+B4dsBE0zIFsJ9Z3PaAYfaWc5+lnQlRtDLf0JS3s2xkeR8Y9J6i3+UrMyQFS5QYvBHLTrNas+yV2glxHlfDE/znUXuMUbKJVMmI82Cdw+kD+CfzoNcbxDo30nc9ku5vTMm70xRVmujDAWmVbmdnE52GPdKiCF2kF2T6zqeyDbewg23ulDchCN1pZ1lks0AEvrCgLEROowfg6DYJcuYt2dPWixZ8Dwsx7JkaXo8KMGfv9kOD40p9MgStNkCeA/HCqPrA6Vo+UlHh8JYYVG0E0fqnwTgZXSjRnzkuDsiXG4aOvrQ1ubIKo69V0olkNLIxYT6qBK0CbY7+qHA6TMxow0d/iG0JvE0tvDkPMGNXR08FSrgVCXxsWIreIGNWOkUaJKgxKxgYlcHa+ZUTRJYT0EIqU6QKgF+JSI6TsEp0jlgjsCfyor/AJTsp/MlYBVM7GLS7aG2MFmkwJF+b3H+iL/km3n3YkC2s3O2+FMv/VCm3ul/yxO07XHXrxsM/sxWD071AudGAIaZmHY9TpyyX8BHN9khjbg5BANvFRO99ER5/RBQw9J+knLZvbUcVeuIOPrxX40w3X7hdTM4S+Vfc/osC39kHc09oDqFb3cJgpSszsILC19Icv34PuX1IQGuKdIg7nip+mS8/wCpMN/QiQBLqKnPxwGzzmylyod6IoNwyke863TBn0RTtJCYgVAl0RK6BN+KOyeoSnESi0A1mXUgN7mDEMoo72MQMfUQTcPrCndgMo/2T/gYfLjlqOsDABOsAJoN7ljCEf1Ji/7Qqz7I0rYDRKf9Zlxoeql44pyTzOTIWdh/XRrt5+E5mA7REUrXONuKNNH/ANpb5Ew3FIuN6UehhvuSsoyy+mkvlNIkUrCfSMCoP5OOneLv7I22rqVGAyuHb+4X59kSInzc2y0f65+th0nufuYkzWCIOr9zu/c7/wBzqPuZXV6QpJF5PcOn0j+l/wCGybn/AMk6NqVo6DZwM2ze86kWEqDBwbJv+NTR04NY0+Aw4HRPnPAzaedA1F+JnxIsdHSVwZcqYPw+8NuBjs7C4Xj/AFjS41pQTvnxGlSowj5kpKIkSDHARlGVKDfpU/YuUoiHSIRIDvkAJSUjCr6X3hKDWtLI/rEZUqVKi9p8MlSpUSD3JnCCJoH6XPSoafbQ41qJHbqSVoovloCVKlLTIJSI0L1L2QEqVKJTQCVKlSlPMJRKStBF9QYGJUD/AML1Obzw7eM7GjGbJsaVqWGbnngWKNjS9NkGfjh+NHp1KjM/G8OxmJO7wM+PBwKvGz0SMrR4MVo/0dYEOCELcE6KEY6L2I/Shqs3aBjrAjCMbEx8OLqSeLwQNVnyfumw4Hh658pPjuBJse/h2Q8Nbvkhwhqx2vAK039o8PsapEqVmwbaVGbYsNK12PJNjhfCZs1OJ1cb3nU1nhwM3zYaujl4WybnlhqseybXAx/Hh35jqjFnznDsYrbu8DMWOkXpenzk+I0ZUSHkcsIErT7KbRl6Cb3r/wCNVIip2h+qGo4MdEVdTWRI6V658JokqMvd4nrgZXJ+jNkNWLWMqYLHxTh+e0NdkF/XKhq/imzV0c2gcG/s8F6bwcI+2EJmVobDwJHV+zUuGn7ibNT/AMdyBMFiHN7nee9GJTDLIQM5Y3mk3j/JnWH6QNlxHF3CYIKaT2EVMFmA3B9jP7U/sR/PSns9yu4bw6L3OylJTSAimXLIMWIt4hLlxlRITpXpU6ma0rTem1oujGg+6ErX47PhuB2lPoIHAHZ+jwE2SruN74QX9tIRIkuPrHxCGjHiCg6jGZB0biA+lpUrR+w6cJs/0ubYas3+t0+JPjHCGzv4VRFf1vBcdHwmzgYBZBwCbXzw7kGCGrpNWbk2eHZ8JsNEhpNt0WGpL4nQYYKmpUolQEJSUSiUSjpBsxCjadtAmwiq8gnRIclLuWdjHooyg2Mpt2i8093udC+5Tkv3AKpjc37T/W5/YlfyS5t7ItxUGbF9dIrmQri2IhEMbSv/AAIflE/eQPcepnqtmY8pHxKf8Z5w1TljS0lUUq9bieze4pt7p/Rh/uZkk0MFyvmx2v0gflJH3rCex6wtNsEZf+xEP9CPKf6ktx85LUV1tDnzHsmgCVEvJEpCyZSfyZ1hh/NI76J/FQbD3YMzJT7EQ+vqhuwvAoY2RG3sRIMBbEEs+1lOUyzaWZNrfMBBSbDLtyCD7e2f0oqf9CNX/aAaOWnif3p/aj+Wnbe4N9lWFvBOy9w/KTvEesQTIQW/yJXrO5LuZKm5HZeSX1E7L3OwneIOHk9yiYTsvc/tT+1GnZ7grSDhDpp2UfzU/vRNKOOsJcRo5yn/AEJ/an9wl2zfWIlpRRn9Cf1p/Wn9slb/AKS2FCf3obYR/Mkt29kUCuyNP+0/rT+5P7hP7BBKjYn5dP7Ez/8AaH56fm0CbYdDO29zt5/anMSVH3p2vuHUJ3iJreBxgdYQXmTuETBtplJSIlkq0slZbKSyXEQjzsCiWSkr1lP/AA2uogWtTKA+JceJsS5kFqAsD4ZhGhMXzg5BOpLlp81Hpsr6Io71XFBZZeJYKcEFzSBthl3CEW02HBsgPDCiy8OrGGP3Q20YkxHV0lIkLjjZKOkqM6DlK0JREJWnwiAaURJU7kqSkpEPKBW0CY6pWV6TsxqwEFwbRrLdwzspnuvqUkBxmu8oSu0/gS/f0QBFjpURqvVEGOh3SBN3CIm1lbJsIutM6YlF1PKUlbmoXBRieRK9pW3nlQ6tgEUm/LDCDdb95jX9E54SrYT+JF20XAOSJJtSEdwJvSemgOxhgxqOsO0X3E7OLbiCbJZSiuXvHpp2E7OdnK8lkRkHLOznaahRgGCIKbJ20V3EeigWwgz8AJ2su3ENK9zWEKl5ivJO1nbwvukeVFbbFuXTXGYAgCks0DommIi5Z19zv+0qN/aBc33DDL7jjcSn543/AN4k/wDWJ/LDyVvqzuJfz9pk39p5Yd7hNGHKYnRiFDQRToeVmSm03U/DEASYVOLnDmIgNosg20OeWEoKS89CcouUwsIXkHrS9K3FjCW+QJc6G6D1W1D4hFgzk8w2NBpsnx5ejBzN92mHiQy1Ylt0hx1N+JmA6XLiwWvdLRXHRW+hG4Y7Loag8cbJuftmXwKsGlcXRVA0OE7T971WLMDoLBs0KnOk+McDqWvpEMZstJelxY2vs+0Hg3u6HzNkHVicIuXpcUfzYcCT6M2cCyt/jQdXoHAw6jsaVCMWvpg40vTbFjgSYfUTbqxjPqQ0GDoZtTwXBs1IamzowRm1TIpFKEMhQR1OiYJXonZgB2yKlXYEkrkl3ncmHqNoMvleAerBidDZrRVKTzI6Gmc2BoMRivo8mWVWbdMbRFIETR1XmGxoaleuznPjzPw6Do7S7EOXr8Jjtu2qSo/PgxZ0WLL2nxUHS48T7QjoMubOCVoyv+lw1YwfKxhA6MFj3PvFYjcHRymH9HVjFh6fc1GMfwfefG1ZtZ7dtCL0fsOsuDo6Z+F9tCOjr9W82HAwT6WXosvgAWGi+pGzQ02QfDqMGDE+7pbBlx5Ta8QdWbPiXBly9Ft3V4dnwm1qxQZO8NTTHEzaygykslkuKLCKQEIsuVLV5rJvHfaKSMwthkPMidqK5lRIxgKgpykzYF0YxZPeG0qBo4ItIlRnxIa8aOpIOZBhoxUvZgou2txm485ULgxh+sQelwsU7IymGjxxBjXgll+3f7wIaLMxiEMeDjg0rjpVr3feDpUWB+p90WI6M2My8yXrUDS5feiamMV+L9owc67cthB1WU2dsGDrgLMtEVhGe1OyGjLVMvJDGDo2MT76mmCnxtKjFi4+IwYOm2Ej5hqk3fJNuqxI687FZqcF63pvxo39x5Y/WV/JP0sK/wCkfmvLLoYvDOj7dDI1EmvmzoaV+slXLGnPqg2guP8AJLrPIrHm+6MMLww+M55xVFdO8Q5Y6w9x2Le49ZgAMo/uTrQeRK8/5R68hCRb8UR+CDKIfSCQHkqGZhdCE4dL1lO8DXuPqlBD4JTuj6Q6n0zJv9Mz1AUuqgaJidtOxlWYWFnulG7OaYbpP6Up39sGwe2OE2M5Bj+hD8nP6Eof9oK8FCmDgnun9adl7nZ+4LUeRneJSVlkCAunSHRY/fhUxowlxaGx7XPiSyNalj6KXoxYkF5X94SyDGEA9vvCpL0WbGI+ogQISphRBSocC/6OUZWjOroyQYMuLFg+rAla/GYrnUDXLsRs1YytHNbjGbMGPE+9w517zY0uXFix0CBpmTFTvwvtpsI6Og35ddf+DphGzK1YmybIarLEQ0SVNkRrLGApn3nWoI6fKbXA7RCMolGkmGyN8BHoTsztREFzN4OmTtk7aHTizRumxTaPSTt/WiNeDEbEdnFOfVP4UCceqEpBiOwHBOxiu8LNwxM2xQpiwqdMTsNKHtAAFWDHeSm/+mBFA+2Cg4HeJFD3FobcjyPMZBLFaprm7fWbfVLl1fclnI+sB2Tyw5oiLSpQ+YntgTFjyUQsu/omVfUUZix+wRYsKV4u6YkWS9mp/KnIBDRmSzOUfylO3qmLE2z9fE3b9U3Sww89YBAX1xP5sy5j6QUbF7jDmzwJBWxbcI9MQO76QyZ+UxMvznjgVMOPXPL0YPO+rLBWPPe5lWJN8MUYvRF05n6y+TLJ9W4Tg5EXcuio83CBuVBr50F3hiwMV3L5Be4wDm/LHkJ7iCoU2lxijTvOYX3D81Oj7mHM9sNaBAldZSFP9Z1fbOtFCvuS3/aMGk/nI/kpbyxUao6wvYjMLkw7Pco2L9ZgzJ13uBczPWGKv9Z3cOe/c733L/8ASNa6zop+sr2fudYpkz7JcYgTqUNEqJzTO/0zCG5GC18GhD8fP4sX/wAIjXVfM0VD/OfxZSIh/wA//BUaZ1Y0SbDgYGENF0oJkmiy4sVKO/r0NGYJ50nVYjqZw74pHVyRbNJrz3VPiNE0YyjodGGhHhnwpegxnqX2g640owS5cvQ/2ddAjpuf3vA1Zy+v3pt1Yy5fvmOrMl0P30K0RGDJs/dKo4DD7ZKIwYs3eKEdbi8F/YlSpUSbQuwhpelwZexCBKNPmtUENKERtKhFHSCA+rKJUqIRZRlYGlSogGOZAUSjQCUdJWniAQJUUSkBfmlICUiJU2c4VSkppAQH1WAdIVKSspocRweZt8DN5wAxcaAy46PDFnQsdCqmX1ajNkVD3jwVw6X+Ia1pz6SMWXLmzLB1D9TMfA4GKw7YaMGC/oxqHQjoRcR3PcuDo9sFgx1b37Z0NLlvY03LjLbP0dFxdQl/tmXoxiVu376LUJWNYGr+9FlxdGyC8YEYRuKoBoMrRXD1XDgeNUau/ES4OjPnp8bQ0uYGDbhK15Xox02M2YOg6bXmbZerH6Ia3FxF8mXB1+8TbK4Hy2G0umHBfFtJavAseTzNkIkCJjVuXcWOky6VjoTdhr6tajMXxTacGybiENd6fCNajCaaGnyk+O0qMdpi3ahmBEvT7eHBwO0a6AYMZm8I2TK373DR0c/s34S3/TMNHStS+7fP74NkeN6fvFjrUL2fbFwrzRiy5dzdAa3DiOMNg4cwcVl2qlMNGKvIg9eq6MdyNkvQY8RYzhL1s2tRzoq+sm1pcuMb2qmzRlxjf5o6XLjjY4dAdV1Bg6JxMdBKRcq/h0/+fL+XpGHDKzaK+XrBPwne9Jdi2CvmcpXqIbyLtLAiAMcsCGmJ/Wh+WiVUhIj3pnZe5XuI0YSF4WUDZO4SzRAmIoerS5csgUM+FwMuR04XP9IzB0SyWRiyv0cNF0FogwcDtHciaDGVR7YNnBemVxdXgZin731DSn7Oc2HAEOL1T2ytVGI9IJK0BDYzCEdHEV8HGJn4THV0hyfwQhoy2yBoxiRfUT4NTQODqnPdNXWzaOhNkTRujH6Jsa1Am14TAHD8SbJcuJGfdaGlTBeSbUqVHR9zFgjAhrXCs3HmBUp0lOko6QEI2EOlO0SnSdtGrYnIIdNO0i3+WjHNs3AbwGUoZZC6syQ6CdpBqiRYSsY76sJwpGPvO7bhlAaEkRGAo5zDv+5ZmvaWflBqX3iJh92Nvv3Crc/XRlPzQEwOi+WYBT4Z/ci7fzxTY/rAP9469wGYq4OUzZxdNZIC6YN5DaP4gm1l6mLf6IXZSdKJiWVGZkw/RDn/AAhQilFbC0XBrZfpCrpuVQA/4aYNOeo59cuxHhdsXq9J2vowzz6XTK6IgSX89n95lf8AtEG39ZUSrJcz8qK4joYx7HxFhyXF95/KxxVzwZ7XuC7j9Esx4MrKXY6xuRPvibbB1xDKkJjx6JQ1i1JE5iJMz3DETNadmKrakK5ypfswXyQfnEE2PWVCUDdlTmC8wf0owt2+aYYO/KY0C9UTFu9S0wvTEgV+mDDYjdiDbMtW9TNX17wRQzOzE0E29mUsXgdAUQ6WHSTFdYM0QC76u1ARN5l0Epf2Zft7ZWoWiMRr7kT/ANZQW+0gu3thmhVswQAxD8xH8iQf/cn9iYzoMB/0J/Sn9qV7+yNd0mSiO4TvEp1IjrPpOUC5iWdYB5yyYFdEZXS5cWL0QFSzRqBUPC+cuDpSZS8JZLJcU+OzZqV/4MrZ5mw0dTYG3BsjtSuDIZmQY+kPqS3Nkvq6rVHoOWD6zGuQL5csPKqzoPnBP7xiEnZUp0uAe0aiFREuHB94mZw/DaVK02vVT4poaMp9E1FhARAHei5g06n3gStWbDp/xGA1HqwJUqVDiC08/eVoqVEVV/TQlSie19yAVor0lOkRLP2MyvSV6RhIL8VKynSdqUGxFim8ewTsE7BOwR6KY2IPQRXkj0Up5Igq5vtHoTtpXyRXcR6KOasrNz6nbz+NP40KABdGjtLqv1R33qhMet/SU7eqJNLSTdhKf8Z/O0YpAiqOsLgjrXNTtI5gDdzsJ2MWbc5e2/JlLEosIXgCey+49J9xeLwdYIV9otz9p/UhR/3nMH6wm7dHCSfyxP8AkyvL2Qw/7SoGKucOmD+Wh+Wj+QuddoA5meUD0aOakOulwWwIoT+UTvvUx/4iZgze6wpxT6Tt/RDpPU6B9T+NxseHmbDgSyJAOE8+Bm5Hjzjcj08bTFRae4DMmyPCN3tWWXHBKxAZpX4BmPixq902DMaN1bXly0KXRLrKHUhvrK1NMbdzgVHaJ+l4UlXSBQLFglXLGiyQlmdUMGXgoltiweaSj9i0APcAIIliNjCJ3MJfXfiFtWfaffhbI/djqQetDR0zJTDwu8f9tb0H7fOF8MVR1fvwMyftorRjAwkbauje1ggZbEbHUwIoQUULWWXq7z6hKiaM2dAjGY664Ogz9n21Iz5yH0OBnvrCOqxrZwvjz4mjrcw6Jta1otHxLl6uCbfLQJWu2JWjNkXycDH/AI7bvDbgWL7NXVvQ4MFow8IBTpGRcpuymUopZTtGbNcWiW7EHHQUEZXuK7CS4DrHmxeArRgU+BttRrefpqhXZIa3o8vJNpB4C9fhwbtD15osDBu0kavIFoH1IgXRdL6HYh537lgjxbjfcSeQjsNzsBGhostL49FaX0RY1YsRqPRhHgx4Es2OuCVoynt+8rg/X9YcG1Y33ffgYyvu8DN/dA20dQABy+5rUcR4YNuB2nyX7w0Y6Ey5epWXZ9o8GHhnx0YMuMz7awcEWXq/alcA9c+BpcuLFUNpL4H7IQOAaXlgy5cuO4eCLLlzZFXdubNTV4kfVho6MpKyXotRYikaMWItDcBzns3EOoPYCjAArRUopXpcUomWOAkyHzN/AXobDTOmyD0OHa9aI2PBt4Mc40F6vViMAGlgL2oRkqFL6Mxz4P8A9RR0DdliQXtk/ouZ2BXfU+8rVhZcubJVU0VElR0XUyq1Sb0rAdWPh50PXhtkV+b7tWMybsfjhNqDc/Zhw8+AmWL0OCSbOHMdFK40WCkIB7I4VTT4ZGMuLiPFA8LvyoOOD4k+JqtEcOgTUHS5ceyLEuXouNddLiy8kxNGEZ95G1/6MMYGf5mX/E7L1Hlj1P50prsyvYx/CTp+ud3+kSuWSukudkE5WGk30TfsjIqfWdF9Dyx/oxiqHZhiGqn9iP5yJl19y7ce4rKje0q2DDmD3P3s6fzizLPrEa2tzE+f3P60/qzH/wBpkWRAhklBARqvvibpBSQrp7GI4W+GWm19IzI7lLAoWZYEDL4JQO9SFnR9Uq530lP8UyvWDwET39cpQR+CoaS8XK4Cbe5KsKAcnSXAN8qgnL3T9BBfzRcwvpmXXls73ow6j0x6r0wf8GC5Va4iKWi+zN2BCwQZos6SyoOIBiIR/JaMJt7ZeY90xKwlz+pO2n9Kf2o4YjTQQH5J/Sn9Kf0oJNPcYCmz23Ox9x/NRbYRPWGWJkJZ1JXqSsTCH6GUrRcWVEzI4Wz50XLjMDcXLlxY0Ilu6v3hWly57HHtKYFaExMe88KsJy/ThrX2YOH7/Ri6PDMSl6M6WP1TIhB0ZunICG2hpuR2vPC6+ol6IStGfGYIRhwPC5mhoxMJRKhps0VapNszfmBKOkolTdlHwStUh90AlSiBNsJfBVK8vMgNQiIS2tFOkpKIRR3ICiUlZWICBZXJKdJ2IhEIWxcKyvSdoh0CPQI4w2kdCAcidpEuSCnRV79SzkTsotuIl/lBrHbpMrFpmK7mdrGE/horbD5J2EWdk/iSnaRhApvidrO0ivJHHRiRYSza2jdoJ197fWOcV7YnlQnnTIgXQ3umGq9k5CVUZDkzYofrK7oo/sIjY8lKY4u8scoWuB7xbsZ0uf14VgeyB11+sTJrF8yoAhOzhFKoIFBzMfSBysOUIOUwRBhnetEpYz7hMG7PgIU71Xsjy36wzTJPL9MOe9ZzNDHoZXlg6EnOnddwqIjkOc6GgTyvfMH/AEjtu3jMC50rdsdp7nZe5S2+4RpfKVc3uPUQ/k9DYgEMaSUmZ5f5TDf1w/AzYxp5kEDP4J/Ih0b6QK0+kuWG3rBWVJOuekp/Cdv0ndfUU0vrQqN4P42Xy9NM4XmVYo5ILsI/lI/no1hKLgZkkOlg+xn9KHKPvQY6OvyIbQ1dpycLxHr1pvQV9fAzdnxOBnzuHa6Y4NybGpNsHD039H3mw1NGUDoxZvmNiEdHRKuqXFj/AEOUuLFjNyK07cCR4+BYqu8JZAasmHh8DtCi9T7ImqzIe/7aujMvq/eBqkrZz0a0Z8CfB0rRmfnQNGVpVXcStWUI5eLhfoYBKlRIhK+/SoyiEmG1KMr0lHSUQG2KRididg0npQ9qXcidknZTsyolSoxDpJZyTs528AKBmADCPTzt52Ma9sKLBuY9s7KPTCdpDp46rq6Y24GcsNUgxxZ4ZlrYs358LgWZ+aBjW5tmScM5+SbDUiR+04aJPRDUmzTF4PdEMAQ12wVIZcuXHadGLlxdHl4eElm67cFm3D+mjDRYgounAdp8v7OBgteZrZcrUxw9fvwMrw6q8TMfDpcYk+b9nC4JgffrWrPq1CMUw8GyZ+XoRjFD43DlwgxRNahqQxhL1dGEbDh+5hrXC6XHRG3BthhOBZt4Hcub0zfnS+B+NpcuLHj7y+DbNvAMQd4QccC1Fk4WY/pcIRNFxNx38PonSuA3RnRZb6tvXCPanxvACph3oY6XM4x0NNj4ZRz27hDP3+zgZuP3jRjptYr+v95f/g1Z81M+GZ+fhbNJrg+wnxtTKo8Xsv8AV8LznxtXT5zNsqVozLz8Lz6pWtKhtQdWfcQ/8HVYgZh0s7Cf1tESQySIdDP6E/sRgVce6BZQJ/en9if2J2nuPX3oKqJ2PuH5Kf1o/kpQqk29Y6y/b3T+lHpvcem9xs7gnL7nae52XuPTSwyQSq5Y7hEuSC8yKQvoINDJLOss66bICzsgy9CPpwYONFxYi+pS9WGvFBlw02ygd7YMXRiK+hBwfJaQ+mArA6y4sZ9LgAq0Ljz4YIQdfiMdv24Gbnt+DS9TxdX9oMWLopX2feXL0LNhG9WKvEyoRF6sTt8LZBVnNarFnyCbGqFjLg4cs3/LS9Gbh3NNerFpDXAZ8uDB1+HBjw5ktjQ0UGbpc2f+DqwWD1g25nbztJ2cQMGNJD087GdjOxlPBj7I7HR9nph2IfDoMbAwdoRMQ8CJuhXRnovvQ1EoqG/Ddc9x7j0H3BGz7iql5gWxUVyYNqn3Dp+0KpZdLmLZi/5Tue0C2fdgJYXBcyg3zve0y388PzrD8zKQWmrbAT/pD8nDkexFG/RFTm+VOdCmFdp+9nd7mKrHuhVcve5tLkTLcK/7y8wX1ir/ANJlv5Z1N9YwtP8Agy1/7Q/Nw5/tllbQBju1rvRP6egjcrHlzJmsMSrlMDAtVEYgKC05xpahT/4EeQhyPW5ncUVVMz0I4qZ9CIu1VEROxGu0eUfUKtkB8nqF0GQIrpHORZYJeGUbvmE/Dldb9Ikp6AcOYjjj0Q/wyV2aDVwLys+plTe1TxzhVgjkodb2sQQxc240cTvcPySOOrnmPXMIl29x6h9SGtzvRKN/dMGdHkGrO8og8ssY1xWEn8eJ7l9JUZ9U6Q+Yd0glcQ269IdV6ZX+DE9/YYLsHpAcK3U7OWYJVyEkqjWzaZkNiP5+f2p/Yn96FjnBAnL7n9KdpO0gdYV/KWQrqSzSnuQqy5ei4gUygcGBPnwYS5czDqQgYOjqDhwO0Xzw/wDNhvzzYlbVMKxNtUdYWSsg03LlzbFG5ZN9AtHjFga4XeKpukRKkxgpGXoul4AvONS6UqXM9cXRUGJY6mDpcUUAsDMdv3wgRihM9UvzMvGi4i12QDwMkXowNFgxAXYlJ+v31Za1S+lz4uodBdF2xFv9E7eGohqUq4sAR8xRN4HsVX1EgYjKdiVm3XhJR+3aG0rVU5+xGPi8DCPVpfolQed7HlimFoxqbXr9xKyiOgPVM27StFSoL7H3IBUpERKlQKtUFjqYB5SnSPSRHSbJ5R2I9FOxgcBQTyu1isjnlu50z+dEOWAVA2ZgxYv3M6ZnbynYzCHkmLEdpj033K3Z9woUT6zdRyx/KT++6G7fbKSXZN2Y9vwzk/ZD8/OlFpnbSe8IKcHbvO/ndRozf6TyhE9h6jXgepWf8JVomy0m1JHoZvplpzEh27bhAAqH9DRdb5zB/uOVo5olMI83uKN3uJ86D8Qmm56MBWYLy43IId53xC1vqzDAIPYJ1IqgsBlsQrzm47XQK1BYRbRMRlrYlFVtFBoqjcQTYIkd9LhDrEQva94BKhvDR2JXZPEBWLSAQdRnd4RbptXRAo1aphtCtrs3T0gy8oEuEuMfD0ZbcdJnVw2w0ffNshI51OfWozCPNmeBcx5Za25EU4iCdWNWlzIwlwFV6EHUMV+cMDQy4xZuTa6Lesy8re7olkMBQlAjut/mWDnSLjPsZnzoERwYWzlI+TApBd2CWQUc2HQRWqYz2qUqNZbBXNMM00fcLokvJ65WWgic5cQlmLyxCueAlO6L2I1bmBzYFgqFzpkS+xEoFTdzRDcOTfQJWCj3j/Q5RVMvXZPSP20QD8sqsycXtFXzBfiOi2mCi2C4SIFqHR14mGpDVj/Y5kGXKCjuQVTMWgZJ3hYQUhBJcSYobtp3dIZG25CVDkGtVeaFgclCFrRdRlxDfgGECyrWyXFKRyT2k+82uBltZNF0LUwfLKSxob0qHH10GtBjiVfGwhK0dpn5UOBU0EKjiOCsxzuXOSBZKZ4EHqS4F/UgGhhprV1Yx1LqAwhpmWFtNullCF5ES57wNZzsS9G/KJupOYqBmLNQG4gDo6P6CbyZwnPgYsNsOxHaY5A6RDMSEy5LCvBvDRlAwtXLMCoOTE2fE6Q2Tcg9FjToCFSvCXL6pKKgHQ0pkzSVKQjLz7LlMqJAhclKrZvoboBX2wusSgRdYZLcRv6cIAdmyUpU3f8AbQ30MmzgNUJ819tMqUuzAlAeUCA3ZnSQQVE/MNjmnmIAp2ESrkZX4x0lExdsVxoHIDLm1rkzUuOTUlkWcpWkSHcIbFAR0rqNQOUPWWyZZcOj9sC3wPQbu5sI+lsRKJVc0NZVHm1sXEBbV5Zf9raLw/8ALgbI/T+05MLyi2YQ3PnKsREcDuxF5dS2+YSkTkNPnoKDgLH6T5tC4OPNovGLu82BUP5SjjdTIAgJVxQthAmeGYhUNhqAUAbJ7QQVptsR3KbsFFsEdnctsIBHu82BGZTawZZ1QBANGXeVXhtcDLzk0Fm5g075c3ojCyu+bgSnlFW+WBsvMwmDCW0zqhMsLnMBO24CayWnwYMWlxj5iOCcgpvey8S3WCAbgGMEsRneiEKV3xjwGDrBpiIMEqxiF1LikXFcYwxUa1Ly0GULGl3RcdmXPWoqjF3AY56aN50Mpzm6su8AOpCzbmxHaAepKiSlJCwMBFgZ3TaN8wAAoIhGL0hCaM7kAoAdCC62YOSK9Vmyd2VwZcHFFskKQYgz84kDOm8OnJRKjxoArS9LqdFF0JHkQu5iN+ZvQn1WFg5jZrRqM3EKosHRlk8jUqF26NMOgm8kr3K/t0pie3eVtBDMYt9oFQktNbMUCdKBzPkZYNKr7UNFixcr9GgIyG0qIW5dZvUFl7EAghkyVl8GW0WfNS+bgs5Dve9DAxE8iGz/AEqJ9h5UI1gjHrJcYhNkAwokGWXQErHqyzmKlQ928yR1JnusIAbAQYA3Oo1bqEVo/S5gJfA6f3nQgWsaXZBLYlpDHKECHLkpUQS2jeYpVKJk+hjCEqOt940pQRKsbNADECtdkswO0wXJEBXFx1KsqgtzcN2rtp5uYRSbaxEGebKO8PD4QKS03Zm7pFGUzPxMHR0DxMYEag2huV/6S7lYdH7ihmkNmbnQLwerscC5LOpHT+cOZ8oyJypBYWJ2uiS2PvTN2zxBiix6Vn96dlP70GON9InsGdj7g25PrGzZXmJyJNoy94+d5hz47/3B/wA49KG8EwN+jEj/AHOuvcLM4+Y/zyrXrHWqK5le7mPKg579xJ/0io4Me8Ad/uf3JZzHZ+9FP9oqpWu1Uck+SP1j5KttDuwRuQu/YiXd45YitlcEAHFp9+0o290/pxpiNkJiwQaIc2XXPTx1li9U5YU2UbxLnxCqW/ibAsVighIs2rGqWI7EKVd6IolWA7qmjtQb+1Qca+pUSAawLh2tyUVTkSH46ITP46XXXph6O5QXWInue6Fn+0c//DAQjR7MqdUJ+IU/5ZvZ9MNtLOFY69NsEJTqofk4J/rP75P7kbmlWzeN5/enYe4dFHovcJ50Br6ZZ1gEYpYfRQSNTFRDYJYgaRa9AM75BGqrLboSsOhDEsJcvUcRuGXKivOGLsubXkLpCrXVlOmjYhAPVNpFtwzAeiWqmVjEVe0y1SBqCosC5fQj5ZuQ7iTJVWoBaKtjggVvpjbbYlfRTBMMA3e1pA4AEaQ342VCMD/wYLMCpUDQYgGJCCQ1wayoq+xKElSKU1olacDgZs9a4KIcpVNSuAn1XgCGGcrvBKgSJK0UhKO7AISkoiQX+7eBEJRFl1uj9sq4yGblVzG/eYhNjKC7SkqAJsC7SiNk6QqVKJRGJ6fagPopR0lHSU6QEJh73qUlERKIX6W0A6Gqc6lHSUSiMX+lTeT+EpDpTtEuFoCPrEXnwE7RHop2yPTSgUbKX8k7f1P5U6NC42JLVDYfZH8dHpJ20uqziXAGG3zG6aeKszjuknVkdRi6hMtiXynT98cT5oPZ9Zi8zlNz7AJXtELmeSWsU+kaMn1LxyFhI4KmvuMDUgZRBaMdmXg3RVQaFRVcT8pP7Mz00Qitw2lfL7lN8iDf7jyPdFFggUHFG88micifKinmQgX6p/hEd4eso/CLm76jWo1Up3XqEZ0c7WU8GWADMXNkFg90wysaQ+Yx5IMkQfYRFSjHrLYVYSXDzHTeWdYCXFFASpely+Njs0VFylNntOQiKhgNRmbjgcGyb/PR0mWHkUrxHeY4Re7O9hwLHj6zDO6OUMgnd3qD3mO8vf2nMgI4fFGGxD7IJskIWRxyHQovK8ojfVJcAi0X94NKWJsExOtRjwIcvguMSGzLNth1VF14TtLYBVCwQUjtmM8AEd6ywQjGBGwzO5g2DwYrxAlAwQAREm0szHd2Bp30W19334LXcpuRgz+hDbtUGESELEgIlBuwOTqSt7tT56RVttputRpylJAiCNjHBcpJWG26P2xcAJbN4HYjqsIsqNh56LjnVP2HSBrWX5HcxNVeWlUPJobEAFray6L3eT1wHWQ8iPzhoXxLKlIjDNpdiLyNRWgibkIuSgv/AN0y+HPgIypuDUSnDnC1WIbRQllZQEVZ1IkJoN2WJXlpUG0tYVFMeuIQ/azAwRIGjM/GSkqUSkHogIY6TKdjSNZUjE7adtO2nTE5LyghsnaTtvU7KU8CNuxvHpfUX2BLdlwHYQbqH5Fi89pj1YB5PuDRnLBS8+4A38kW/wBJT80en2yot4jVifSKBy7+d1xLGOIIUe6pgLe6CUFQGZY9xNK0ZsZ9/R14ZcO8Y3INIA5Q+kGrGPVabj92rHaUNK6QZtpaDsIc3xzBtgiYhDkrrLLy3TMojEs9CAbQbRRCqKjtDZRGqMSs1htnYUgBYDlTC5CsRxNIxHqGVE3ELn7CAM7Lo8a5+OQxCDopcjKr2c0Ede2N1YHVIQTAo9o34oBlvvG2c5HVmDXXMMtJ13vEcZNfMc17QeKLkXIlQ/cXFsd3f00cv0X31QmjZsO9BHkYWDWtWoSTaR6SrEFBKothStBYtdF6yt9knlWsa6RH1CcFKO+N51SKh1yBCCWmYYc7l5gLY7NJt2lxZDdKciGw6rVxpQnC78RAAU/saGPIPrYbHRt+XAbonE1HwNYG7NloKELSCouKIBhaq0tdhVROOYB5EdNfV7uXY0OHMfEhVi6+oKFo6JeOQ5YE7j2LgcK8BEElw9dUs40zBUja+UT9oxLbtcGlBlpRKys5Xaw2JWqx4+xw/GeGsXwzYcDPsQY1uKmIEK9YQa782NBl6ps4GWH7pmStK4HgdARcMvcGNDVJenAs2QU+UxFUJUOhFhUS3St2YaC6MukRNzseS4wD5hNk3sFBtEhgg64AOiO0U9hHwpz8RbXeLiGAISDAtd0vUYqIZukFQ3j0+imFOhH82na4h9ndDzoKP/D1xqYEyFZaNRedW2t17sXDYx9IO7DgIAepDn6P2aJriodeEOTENMxYVxWOUODSvY++iWJKGROzBWV+qo5emHogeTndGh4uyEKmnpMI0EDZxy9VIJkg5HPN6BzYDEo5SLLy3okyRK5NrMy2PchjB6s9w0HQ6XoN2YZbLvMmFc2M8uc7lhtBGwOCz44BESyAoPS7QkgOsuqog7ygl05XpGx7nP1gd14HUmXhQ0lwhz3zhwKCPpmFaUOdwUCEuCbhAoSFSHKMTahmo1zCUcQtQunqEqRjZ45s0dNk+0hwL1PCnRbeBnN4JYEt6QFhGAwBAcG/NjS5erDiXosWbHs6V0uXxOlaMESIJEsSyKVCvnQslJTrDqc6N5Sd4h1idyVtyUuZ3idwnbe52kYLTeHSe52Uy0+6HRTZ19xFgCDKYzfVZ2Xudl7n9qCTZN6BjrFuSHTTtvcwbJu7a4V7Pcu/0gBk6aBSptKmVeae8wVR4lnWWSnUjZ2YZBOcuUiOsXzeEPXSMG5ks6yzrMSm/tHYR6hO2j0EMsPc3WE/pQ0LKbIByTtJuA3ztJ20T1JTqQOTnm8jZO4TtPcfyUZye4Q1B+RU/pT+lH8lP6BMVK3fpD8tD81Oy9x6b3DxNq6CMKm2d4lOsp1jK3jDzbRZLihEOSo81CEysYRV+1QsH6EvgFjNoADGqy4usfBNWMD5q+nRIA0UIgjAGgZYAQ3WzCQMRIb+hNutaDn61DgXqZ8fgZv8UeGtRgJ30IErV4Zv8DN3yTZ0dBoxtCMdMO+M2R0P/BgmS7rHrPvSP70e0eYY1seqz+xP7GgdbCxu4pz9p3vad6O97QrFysS7e5b1nkgXX3Lx5l3Kdph0WY6p9wQRxyizp36EGkXqztM7LCQ6QzHGzMekxnfhgIgBhhuc1Pde52WHSfcO2nBEMXjrL80+4jyfc7L7lPL2gqrqehfccb+0/Uxbe/cTIG63uPoZTMW6+5tYfcaP9TYflGi8yzlFt47qZL++UOSLV3FxTcTLdZ2ky3Jt/Nr6xScO73pe69xl2FKU8kvhnWnkpsu1g9E7SKckZqWyKOlbEXbZ3LRwr6u7D8qnHi+Uj02dr2jbeb8xL8mB+QET9zL/APSUf+8eR7EDnC7PSVrARs1L+zMk05dFMLGGI8tkQ/AjTj1QozBiIENtTo/XJXP6JYd6eGdmsSKGIK5ME7F+sObSEzK9x2vmlNxy1ADM0/jlG/onb90WVydIOXwn7hhH20zVWbIWiwqMJ/Qn9Cf1I/modUZYfkp3pfUSyOvFAo7S5cuLKL5TbMQdGpfcUcO2Irhs1Os29KlafSIIEqVGZeKGlSuCtWMdvEdrhwJkPnheJt8DPgIOOA2QggHjhdOb7tGJpczPzorS57lM/HrUYbQ733CGGXFlXmRX4XAx4IDqkOUyXqNVlw3+P3lx1wkV+LgSYh+8apE4V1LxHwjW5lOf/Z4za0Y6SQ9GVGMSZj04FnwocJRohEJRb9bwpKnZnahXoNmYwTszqGK5fUB/wldDmRQKTto9LM90jS1N1gIO2Jzafc88D2p9Y3js6waJkOsbf6JVt7Z/dgO8mMrbCspaj48H1MeR6lyd/WHI9ETqlm9CE7w5KDpI9DpTn/KdOwInuohvLbcs+THEh1fVKf8ACfxZnpH6RbZfUBbd1iHOanZwbY6J2HExhs4dybkOGOXmVHU4Z8LhPrQla7J9nKla4Q+C1ZUcyDSpUfrZ8doaOsmjPnIfV4XhhcHX4zMvEla1D6P30dKgsOpNrxwJKR3UuVEiAefDqZSzH3nxoasKWfs8J+jP21uMQN0ehmOpWfTRNGfCPvNiVoxl3xuBirwMxDtwY000rQQaOo6U+iwnCsvym1wISljWtMSNTMrSpUoF95sSpSXcpSEQGpSdjTdqWSuU7c7OdGF+WdvgeBsa1ptivwcJ4mbvifDOF34kODZpr4V8c4GX9YYR1Yp6T4SOqQfRENanzcNF0MeBBbovvKl6MYK9Utm6eBj/AEOfCbA7Q2IarRDmB1Z+/wCpK0dFS9AfTPgHAzNOv3eFmj9bOBIbGHxOjokOkkdKZO33m140SOgepw/KRW8P/FW2e7JwfBmPggy9TbxS0zg+JEvpOzwuvrJtcOcjbV0eOB/83aBk1dNrBT4coFLzCOt6Z8bgZlBUrVYYr8pwrFPinAuJdnVUqUI6TEezV0a9AkMuDpWzuho65JcqVEamfqvvK1SKvKnxUvS9CWc6/fWtFSePvFgm3ZNm2DHaYeTokIkr+nuRdXMrk2gcJcGXFxH+3z0slxYUuuRfLL0WKfNTAOg4FPjSPBmHafGNGLGH09b0+QjXgmbXuhwbIKCbg6/Hh9GpGPPCGfAIcDygKVDg2HmYjgZv9FasZr7/APFijiGGlDIRBxkl20c5KNbBkxJqc2d5Fys0kTuEr853sSd0xb5bzkUvXCmXqY9VpUEuZduIaD+lj/dMbwzEN4YNh1uX7aa0ZgPEupReEEk673M2+JBYVAg8seuaUlIb/aDsGwxEuaPJadL3QVM/cYDQVbcxS5RU6VvrOuyP1sxn/Ua9OXF8ofnJ0vfBd5XOapZcUpuMAUpUZ5z4OGvZBBuNDBNcann7LOze5zL2B5gjZKdGeihFYO7BzuDYreyOcf5J+kj+DhzfRKShbIx5fqn8mIf8IHPXB02qwFXmBFr9I9Hpl9XrKOuKmSGFSvO8ymGb/uz+7Op7otAfhq4hyRMunud/G/PvIN7xDPYGYyOt6I/hIox6YdvI5J1qfSZMr1MH+GdlDUmoiwLgK9At2tl/+0u29k/uRr2QsbNsy0uUnu0wPW4xX5GbOBcaLWl6fFnxpeqz5M263F4v8JmzDgXJ1JsOB0htqx0U0qVxrFgDFEp0iXlK9IiEKU6SnSU6REJDDaUlJUoh9BJlHXEQlEqIh9sDEolRJiMDLvMqVKJRK3aGGMzaMrBwCjVMSy4AjZxcYIDsjCDI6IFFYSpUaIPdIwfaAdIVMStEPpJUSKDPNCkucvl94cHzcSKADa9iIh1SyBalQGMp4DEB2HD6NFCCsb6sUBWGma4GqxVLkexEDRNDX6GYEqVEiT9vvK0YkP7d5UrKRgAvdC+iSk7E7URLb2ntx6CWck7WJYF4+8ENst5I9HHp5RtD+WBO77Sr/vBm3viTfzR6sAYhix0iWznbynkfpKO/oh2C7YUIFk9mGK1TcgZynUPuPIKRyF+4jJ2C8wBzlDeY06twTYD0jqrwwOrvVfsIKYEtd76B/Yh+Sn9qWoTaCNsOsSvWXLhFeYCGWaLFgAL1hoRNSH/ixjBx1WoXSRidsRcrAXFQggu14AEhAJbtBBcIsMP2JOUUHtCaDa8qUDtGHTt7u9Q6EdWjSyVL3luM8tKlPMwd44mHsPqBlbnDRYAWxaAWkNDK1JHALZtT6o8vW7FkaFd1zsmPRGL4Jsho95uVABLAzZihkFFmI6XPZp8NLjBlpNDb+9+C58nPAN+kuNr3xAg4xougnR0JSxMTdHhem85ylObKXsuIattbmyaZdj7vCHH0X31dN07/AHSjWpsmWP7sNWO/D/qBqx4zrnwnA6Jiu0mqz5595seNWO0r9M0IxJ7hD6IEGNMSV+swyQipUSZHXPKSvSA0AW9ILGIiK8idtA+SLxc5R2i3JHoZ2MemlAqXGTHp48zRxChFizMu5M8nuPUgo/8AaBi0zGDAfWLeChKcCvSYFT0zKpsRav2I9GN071C3cIjywXc6P+0aOrGMNurkhTKWupf2zUTCU5omt3iobhHsdHiACSbQxOIXjnzYAXakYkwwJ28EB/mMEBlvC0BqtILcqs3PuG0dDaAWrHnxZRLUhWVo6ToSluFDlUYFbDKZ24GE5kyEg3SWHFbXgI7Ox9kCjTB+SbTV7DBbGnb5ypDkLpevzEVeNLnayGScjGZoHV9+HBO+IHLqR1i7nATM/ezvwBY7RX6FpbBb48yMWmaP1YRGoyQMmDAdJUihPcY8a50ft88DP0e/DgTyRPbqzKUq51++gy4zBzqgouxqzbMojVI8sf0jwS9GMz7RBqy2Pqg9ZwM+8htwLB8sODa6ZNVny5s4GW+rNkdd+bPDjLbwMcBly4xIFwCUSn/gMYaxpBctX3mBSkNkWut6qsQScoM3UvugteYrflIRwQsIJhFiYbF4m14na5Uv2g7ddKbQy16rdrB1Y7uEhNp/MMAFmjEsSKrR4loFBhFhSQ1Ue1Noar6paXvVaqlA4NXIbkxDpCpmnUcPw58M0VF5wImbv63gS5elanaEseRFAlK4AaMurq5Jwy9T0ckDDitFiItt0EeHiMGO7h3oH78DP0O8NjW5vTHz/dCOjCXf1ngY6gar2NHStQt/c+0IOix5aENFjhPi6L0Z85D6EDVhvwMNpRMaKibeGzGL0aJoxx28GyH2Q24PiM2dL0an20ODgZ8KDjgYNLwhDQ42MshY6EuIjlZSXFhAxCowKzJtLmGAmIEqdZZFIyFSB1lOs7xEoFswldN4nqTsp3idhGm8jBECOZO8TsovmTeRtEgiMKDM7hO8RCMF1lOss6xpnRkA8SWSzrLOs7hFuzaKANusQ5k/rRDcvrH8lA2pVx98CdBCAWrUpbo1HpJ2k7SXlhg34APpE9Ov2jJRlBuzSP0bhVlH0gzunKo1fAFB0IYCHaK+CHSNqUFz9hO4/SbtY+0uP+c5szn1ibXxz+FP4cL3IekGgGTKQELn/Lh0fWI/hKmLX2gZrhZ33piXN6Yl+LGa88Mb+sHLpP6GmP5SLCjjkzMBsnYe5XqR6xEJA3NBqo17IymlxSbJc3g0vWlFx8Yhqx/TGDL0vQ/khpen2GuvVjN4i67I/foa4eGZcJvksGtSptuEw3eEP/JjG3JdsidzDnuPKRMFXi0XO5jVvmXfHq5viYRlzh1cVzxb/SDIP1TEZy/XMpWr/pO72Q3xqd5LN4HVR6qGN2EbKZj1XQO/oBEW2Ta3llrZ3GPUYBbwlzgqeaZ4PXYDLdM6LuFZ0NKtkmNUDZcUn9bWozLW8zaoEbgdp5p2JaZJTtNV2Bh08B2E7GZbBD1AxGCy4j0s/mRTllZtimpgCdtP4WnP4aGwj/eYMCOSZZWinZ+p2SUeuV6Z2idqV6REsFcp8ynSdglOkQ6RmR/ediVnZRgp7It0ZX7ztotyztZ0+WxRVcRfyxfcxbeXpoC9gV7hnCLc4/uaM0/94jYggIfnNBvIKAwFewpBYaQqZQYbTrE1UmbzKOVnWjvPcpwxykrJaCV0n82Ub/Cd5ocg4IVFydJOxnZTYAy4t5w6SXbJKddFK6zF8SzgIntOBUR++ENLi9OoIuj9s2HC5JoeA3+ENHidEjOVpcvR2htcLg0vMWWy9HWp1NniErXbHwjE+5KgR0WO+1Wi6/Gw2laMZ8JwsE7E+MRNWNexoDF0+FF6yXokOIK8EErX9NybhwMBj/R0rUP1ObK1SNP088OKmA8Pf7A1OgWHV+6bUCBptmT9z7Q1Z+93gxGERhMQn1jR4SiIhJQOUzRHpE7aPRz+dNlkLTJmbXI7CGS9WPRZXkWd9lM1CpZwBhnidOFEmnClHVK5cAgI/CHanajdhLigXcS2CQ5h0Z1PuMRRBKskQYC5qMK+AIpwwEBgM1bEN19QWO0jWDgjtp28F2907KPUlvQqoDRZLl8LoxwaGu2YrhOJ990rXbDg4GbMeBUMXuR4PgNDXbF63CbB2w21SNy+XVcZVX2mxo6My6NXD8SfGhox2lHR3oxbPc9DXZMP0c8DCXdT8OrGUTeT+nUjPjM3g6ljlb+H34EmHk+6bCGtanx/2g6MZy/0uLGroPuIas38fr4GP1MODbPm4SpUSYryTIapGGYY0DRCp85AJRKSk38QqSnSdqdgnYjMMHRnYTtzeYD2MccFQtyaTs1FbjHqsHpgIrzfceUoou0eR74cJXo6I0rTZN3h2Tf8srVJWptIcAtfEY8A7flF0NPgoaLpsY4Liy5coKnLoaMtNh04e75JseIx0dp6vAEYr7feYB21YwNvV+3Q4d1qo7D1+/pcuKXVrAA/WXFjob/Zzw/CYEPTQxY5ltjFOAwX3PuTAga2qfAfbVjMQ/pc26s2yv1zVdOTnw4Olxi+7Dg2S2Xqhpen3yPDV0Z+DhbJ8hDgEVjs6VhLB0wbEFwhxg2iNYNB0YKDsgaWzjSVHhJFRNzxw7sxfngYsE2nAolfjgWLDMHqNH6nDvRzDqzd44EqGjtBonXFQ2PHDf4EODOnX7k2GqzZFZ9IZcvTaIG2lkuEEXAD/pBrVkslIFbwGXlJTkkp1JZ1iOpCQHNJ3pTrKdZZFlEF66JcYRFmK6ffF6Lix2/D7xiJcuXFiexNy9GCzctmrNs+11dBDM8DF7cNuB4iFu7gWNt5JtS9UgoeIMa1HM/IgY0YzyYhrwxisDcYFDvNqMGGC1AtOei5cYBGOOaNNkwa/wDB0MHYlPPPPPLEHOEvoj1msIDQM5UsRIOkARIKhLoW80qGcR1ymkSExLLYsc8esl4PXQjcQJC2Z3072HWzuogNMkOqj1sK95Ac03II4Flyne6A9dHbsgOwVAmEtdQTSFrqSVhRZ0t5ToKMzuJjxJFYEEc8waO6BixJWy616S3Yi5Az2TcI8vRJQQTAd5TgSJ0p2XqLbUlLkVAiiwd1lzvYS3yKMwGCkgL3Zd/rLvuRnlkd8tAMiHkDf/aY8+yU/wC8AudLfVZtosyww1AL/SFnblnpFzCmgVkjKuVpuojWws5T+lGyx0FENpOBmJfllNU2VRQNsq+9IVqVezuygqlSnkYnyTFI9pZ62VT3pXzs5sIuAlxxAEoOe0MZXB/wh13qP8LKm2bUjtBuSf2J/Slmw9wb+SCyslxYoJVgccG2Ys7uBlH1EWMHXZPgcJYhz5MHRdFE36CMAtyo7QCjrDRGVDtMNyO7xy0DnQCQUOVNVUXxsYBsi3KD5IuqjT0I72i7qdHLJqdknbTszsQQtS9xzj0Zi33FgZq2diVDEoJXpOxOxKkajIZJWMq7NIgYVvLKsqSkpCPZMBRO1KzsQQrLgVFZ2odKPSlTvSOqlSrnpUnYgTEZolEpKypl0feDBKgErQwG0+qGZ8AhAmOytQMBHuaOvM/bKlStAStfT7Gla7TrCtGM3fSqozDZX7gTgvpcPzKqAhnaY6QAjs7DN9eBjL4Qi3iMhQBUNATZJUysBvbOY7RD2PuQho1P0HWAqUSsRDzalel3Fu064qA4ulGZhBAcxIgbTI1yyhsnYRTcx6GUdsYU2jtzLdReIdZiiwyjLIA2QepjCx4Q5VvAdpTHMrZ2LF5GZKaMWZUp3hdxVEqVN0Uoh3koLbj1mX1MpZpO3nbR/NRJsgAXnLuSHRTvEYAvrEBLjGLBNHUKVrUS4DLtAuVA1+gRjWHZBlcDoxnvaFXUpktNpsAJshgO8qOouXos3J96Cu7EflKd8K2cyV4WdGWGJtIR0yQQZbi2Khh1ij9QS1O4s6XMib70TG+HrDIZqMLtAR5SN+Sbt7ZJQTRl/GDbGQczoFs2w1HRgKHOscnDEBmAULnVm0yRUZQaGYyQNc2I2R0ZsjfZoumZ5WxLtBLG9WTqMZekuF3pdFqwDDnZK0TZCwsxUGhR5BHvDIOhpRva9iBK1t62tiEq6pY7VUZIpdyLHQRy0jXChOcd/tMqVEi0MCSupCVWafdsdZcm71YCHIlMm4UHLAUNv77LhqjyFwJPjM6pKxrWg9lN4DNtbOrA5sL7coKU5GCUM8n3huYgbvmAEYgkKVDoFf8AtBQcahX0KJRAjeOgV2cItc4s2+KbTSotQwq0S4hIwoTVJj9CbfiESIwTKQqVKIhAVK2e8A6Sko6SnSelRAxOwTtmia6qYgIJuIzI4i6juQhyjBvrLZ5tQzM2x05Y8spvxQ1q8JQW2WBhU2eZKuRHoJgtEsGs1O3YUZU7iITYjaTsnXGXzuwLlnRPGzLSdoGaLIJfUgorsQq1AAGwVwPKXt5Y79uphhkBRgmHYhE36rYszkC5sNGXChdbAh1yhJYKdwCOXmylDXNNiWqFMEc7DmWBjEsGLiQoCbsK5VfOIGW0XIjQbFkKiLHeODRWcG5UVXlLW55ITqlkBM2cEujG6QnCC+Ui47mg6BCBY0867Y/f4HsbUDxKOqUU5t7wC3aKPIwgbUaJFOVfqWx3X0CNVCrLkGpkrZeZZu3qEl1+O3CEb0BKY17MNSyPszBTykvu2mG+0X5QdX9SKI70wJCeBiIN8GhYm4xX1eGz8l64FnzUV0N2ZRXJaHQVHFoV0ggwba9SQIOkbyz12CdSJiWq7gIKAgthEFu05+sx6l2nU1wXVLmRxGcSA3YDlizRl6pB4NLiDchYLoW6S4lynNFBYWyDaNMpDQadNx3PvNnxDRUXEFj7TerpujCpT1jiZI3AhYcwXEl6ilkTZBACybXhDY0QQRQGWVvN79jQGbjIGdoYNGf1aumTO5DiURtGzaAE2vZhKlEpEVNlNSnSU6TtTopea5JdyR6E7BO3486liViDKmVzs+qELtS8HaylStd6b3mcgKiWRrhMpKrvvQ3DRoxlCelAoFUQgsqGNc24xhdEpd9imdoLEl7rRBh5kyCiXc3vEpNbwLzIZglWdt2wOqFEAGwqIxvdkVuFc82OFHmLKgFkjhvl3j7WeRriQV50HWssiDNk1a0zTB0ahBXvBpltwgufQ+Cvp4Al+jPWU0bEeAuBKIbrZhUEN9p/Zg6nugojow0EJKjQxLwoJOCWBS9Gly5cfvSoBsYT5qRQzgORrpGC7lSl9lFwAIKG1GyQgNu8YaUX/wBovsbasWA8jhmrhxWqKBMYY5orzck2ENAIjCaYwJ8JN6dUOBaqEeBQtxm8dybcHRimrRcQ8RVGUgBBE65JelllM7kdj0I4EKx5GdSYm0tXHru0qC2LyoJmIkcRzA4fOyy/OSWtLBYzlsoYhGG+TqPL7R8rHRUqjImbphtPvkRWIUxsg6E+8mzh+C4nwkI/+LoaJDoMAC7uoaUNb0svqdbjKWXEVL0YpUeXiCS9FFblcEZkWMEp9s3ABRoNRpjRTUsYNsAZZKRlpjl1RTS/lMVK33swqEdNsw8vSyXEdYLXrC+og9ZO6TtvcadnuHSlO7Ru3j0sv2MfU2ypwwnI+0LKV6m0VsuMWo/URPl6aR/MliDw/tOt6o7IvRK0HAMshwOgozO6h/dGt5+UsOZFdxQBHktHopbocskW/agGGD0s7OVsLPmGUVc2SogQ3SyXYoZgU3VNTwIc70Q/klvN9QpH8LAGY6s9sRkP5iEaC7k7SYdnuGG4t2cw5n2sVhBlxUSIxwJhCLCR0bpc9NW75JiIS6jCOU3GasmAJUFiRBGM5huSH1I7fZEDZTEvOxEVyDNuKksIckYFlB5m8zggnWVcqFNIruo9dE5KhFxHVu8JZpFEFh5IDpq9IZIC6TtF6yaV+g6mjASBwMt9MgRP/B0YKQlOzo8iV0o88S4juRitjPCDLKGGtGyPXzuIVynMHDKdXndR62dWlwXyh187+YN8HDVBz06s2JUS/nhzHLJUStkM7qLc5CBluBsmwjnmzNvJ307uBSpSub6neRvwRDqItUkjKZYI90WN8y5ctIpzTzEE8sJEuyxgv4z240bTtSjlCnhe2W8k7OdrHoIjyIbkSs5TtTsSkL9fJgErpdMIC2NhgEQSkpElKv1iVKiERKHf/wCWUSkpoL66A+nlJRFog5Qvo/bFJ2UzeJW67TJdIAtf1lJkQdFU0xXLFQleJb5dIIdCVLJDOIDZLcLkghQQrq8etjLQNkBqc3mIciUS7GPOPuUGkUmaODgGSP8AlFuUEoNIh1mEHbzt44aEHkIubk7kxMJUSockZSKEylmu5sAIKRRQ9jcABGdQI1KgBqcoc1iwjO4bTaeZyimXqxRMuUk7FGnw4baOjPjQ1qMHpaL/AOiqVKJU2zOVSiVKJthoypUqMdCBjWoIJKlSopuXABgg9ULpZEbG5YE5TL6eBm5pmtalPfKlavE+68DM/F4Li4lw9GQYsBy56TvVTLeLemAbpKu2gFrUCanwxWOVAtjDvpYMDh0ZrovtBLQy5s5KeShEqrmKl3VFvua6DdMuM+XBeDF/ulL1WPa6vtFfh6s2MGbtpFl6RbLbWmYJWp1IfcKLFjxGfW6VHR84IbQYaISj2JqJGKwmzyQKMTsQk9DRCx7BFTadiPRnMqV8EVCvNlBwsubL3O/hgtuYIUosxq8QECWNp55uLM7s7ZO0nYxCusGKwhRuncy3VB9cZDDvCAtRp2ZnMwMIVc7GXleUp7J207SdwiIFs8opcvRYc3Z/5VqyENoNZEoGfRAkQuvZeJt+QGySM2R46sYFitZgeVwe6ESJRG6FixLQ9IPjxdD1gEkWU6xyvSRzO6h8xWtFmf1IaMYqXiLJ2WdDLiUZneNicQLQSnnIQRFjZa6l6bI7L3fvoEZugIc3CAhGbJZEK9SKWRO3WL1oHRk+r0JeblMPaGglpyjiwtvcUJG/RAx2E6QksBQ3qd50sBPRkEFq8+pQO/qbboGCFQmYhgOwZiBLSXCc2YAAjGUKXwQgAqRw9U1WZ9l+2OjH63dCDq43o+ISpsZseUGQbGZ+dKYtq6sUb9L7dKCjBYgdYXWyUd8IBO0IwMErheYAC9GGxZDSdmwAUbSotckNFiqIwSrCGxjtvBGSGABPJzIMWItOmiTbOybUSEubI8fYhwbGbXDvPM2pRKiQSjKpRKIiAPEwCJWViZWA1jnHGSdqPSTtp2ZtrlLOUenFzvMat2CKC7EFW6dzK+efqIyozciX0ER5JQZnvIdX74XV9tjBfTQglplaICaEevdxwSxFTriA2sosVkGFm3g2MtjGxImCXrkTklfbc4GXXynP+y30kP35jtBpMrLRWUNk1ZlishazXKfGjEi7EpXNy/XTZC2e7VdN+V9GBcmBj31XNGAbSvO9YIuyo/V9QpepADR5Q6I6H/kEixtsSqy2B5qOdUbXznTZJ2FCZEPt6BWChdxcWhAMAQAg3CcwmLgRwPi7gw7neWAqZfnKCXDIQQzhZRY6uVMOYz63llLCERYorQiosn6QVl50YPlL6MOmlRMQUvV+yJp28I+a24lkdyPSiLgLGtOir3lORnay6nFXhPmJXWGbGJemH2yhPaIRKJsVM/X40stWeUbePRh27GCXhCiwdvXF1SKSr4IpjQRh8wuVnrlZHJHyRQH1hEbYV+WzO8GPC7MCwGHAqJu+xB4LWmY4GK3ymxqzbNzw782eCo0ZbdXR+qHCRRCwuEoiE3PHSpRKSnTgeAbPE2yr26ysWFgq3C2N2ok2dOZlwnTebeHY9JmdxrZoRTK1S0ygAUEbkfxoWiJSKrHyObPhxQ30gAjkQjxRj42MbmmYYTcE0AErRjY1cAKzmgSaG7DNsK1+Ez4XAqahbqUCy5uoleeigrzbpR3IFsNHQNNEhK0IbPOI3Nim4iAQAPV/bFNBaOZXR9TK5eCEAE2VgsXLINFh9qS9o5kcYon9KI/7R5hju4OPqPRR6WBNk5+jIqW+bb6iobUBs0LnUvB3KI7csbg7pfIAM6Jna+523uMQCHNf0QUgWm8HZiIeaCtK7iyuSACAnO6VwUTEJSIkOsuYVCtDaUNlM+KlK6AhvUOrMb3bsDrFxMYTVnwEfAyIPghKiabZgeBZaTZLg6bZ8nh3pscLzDZwMz8GpowZ+yK+AgpB9XQf+CtGIK2sTso9NO0ixCNAsOhAge8Mjzm0uxmIMMBRnnl/WV9Y9yJU6wpN49Fj10ehChswbNSjmncR0bKlTBCU4JnYynkw6bLdhlqa5Svkzss80E6wZZtJ4lEmbjQNRVnMv6w3NRQ/ij349R9TyTBL2lok7UCfhOzFm0N0Ies0YfngeZjjKIBC9uPIg6WdlLzbEmTt8wHkQGWyViAJnClth6NAWV6qbVqAC7ZLitYo9TMUC9XgirlcMvockyXnTX7kZHWiiqOznYxoqKGyA4GLH6RZDRtivLGY4bGjmdwX6zbxFo9yUTztT1FbwXHnOPIcDgYtawgXPHrpn3SuWe5JnOrcw6Mp5Y88wkWWuYMAVCYzD9yrVdYNC4XB0c7Gf1p2/uD9BCoplyyMVE+KlkGWRipuzHpMYwX55t4HF7NCOmHimRgcCzDbwOIvo4bVObsGYaLmyDEWDtrS4Mv/AMHaCl9IpprcoByjF8FdydlOwlWwgzaboTsp2Z2SPRQBVKW07M7adiBW0OFnKdkj0CN+05ESvxO1O2Ttx6UC5XLTdiduduLVmKhIOjO1O3O1KeUGNmjdQnYnYgcRtNgQdFO3DoztQqeqlJTpKJSE8oFnr96UlJRKlK+sUgTdZlaMosfu8Cx3oytVZ6KfoOmpGM/Q21Yyqf6Voui4mZ9XPiOB1EfW+zRjGEO8oAkSUabYvk0QlZTpC24BOzHpIqWHWphqNj88XbqYI9LSIdVJhAo8iSfNF2yCe7ZiD0mHVO/O0SvcxDGBdWlG6l+qU64yDaUStkYdJnn1K4LEcsF5Z2M7aPyEpMwHWXLJcohGzgZRXgMdofCnODiE2QKJ8DEmf/ExZn2DRNXhiuJo6LE29aiT5UNFlTZM9R02TbgSpU2RcMPonw0uXokZ7+BnxmfEg6DFnz3W9NkNeV0IMZUHX7Di/bdeBif1dtL1+VlGj9DgXEf6bbVjKO8/bKjqx8ifEaU6KBT2faHBxXegxqtRY8eeEuXGObZqx2lnkQZcvTZqSStJnRKQEqpimZJ2lIC9p2J2obDDpR6c7adiUdo/DzjN2Y6AYQEZYrqlO0n8hDYSvZt4sSOiIBHZQLeHL6J1Ya98LOQlW4y8d4WV6NE/lnaS/kj1IF88pL7y4MuHEsdp8fVNY5O+roJt63Fh90JUYk2R4O2jHjo8aQMXXLwQ+hw/BcCR14GLhS97pehFhlx7B6dblz5H7QeBiubeqynovUvg+WjPoeBgpuo+AaEYky/QxLNUnz8+C0uM2Msbs+0CVqsUnUgY0JEgqHHl0JcYzQr0dKrrylwuXo8PJFgl6MFkN4JscBvwMxMVcxdMxXqLI0g2R5OFiqlwIR1VPfoVKiRaINnxKJTpO1EdI9KGy5ol/JL4a6qWkpIFsOBBBj3RzVANxDNiQ45g9fDtjDy8LxNjh+dwM2Q5uxqxiq0+NE0XWF6Gm/PhOHPwYarD6GY8CuO/IvC8Ta/TMI6M+X4dszXrwTP3e0OC2P8AYj4AYKbq/topF0fpPLRZLlx2PVx+hosWZkw88XLlwDPiIbaujNuqlQ0Zl5GbNWKiZGoElx0eAhocJmlUWWJn42GnUZdaLlFg01GbJ83VjiP1QUDLyLLnKKvqj0cBNU2+Fsm5ejgYJt+yEZUqU8bHj7arLixHAjL1niy4uqrzQbNFlylMWgxlxiyOC6iiQV4db03SL0S5ei4iDsCXL0Yj6bKUHRBl6O0Qt7MGXLJZACDR6qV6x607k7hN+5J64nZzs49P7igqAaZt+8ZO8x676gLFzCx3+yMxlUQyb4zLN5+kIrgNM6Il0O2nMJGzHkPmrl0rSx0XlG3Frj4nLtKDdDq455tttNhqeREdmHSGBg5kXYyUv1GEi7yWGVH7dkpzLZcESFatOlh/d0qzvOsY7gTHkmhsgZSKR0zF5oOg6P048IOuxmPk0dNKjTwQ4wVqJsIZIwDcbmCfe0NGOG1EVcGK0WZbutRFtWbHQ6uYMPZA4GfDQK0f/Fi+BO5gufQMNOcAJUwyduduXGYKWNEXrl9ce6VBwt5yojNu0z1cY6hc72PXzpKMwzLcpmUeoj1U7rTOiQOGIoSBluligmpxUTlWgvVPODD3ouGUVReqdwhtKU1NYaVQOph1kr7ZpzDq5bzQNtULbtGrKZaM837wN7sD1YdZ0j07q+0s3udMZ2o6DFVMr907E7adhAeSbZ/RCXaiXlK9IQ/6VA/a2lJRokR2dfQlGlRie1CiVKIkJ9XCfQSoBEJSZ+N9pXpAyjpo/QKCF1GSu4RPklLabR5vvHpztR6Ep5Qw8lQo3mOyj18p2U2F40VDKFIp6MC3EK9kLBpkmUOUgdInWGKWZhl+yzuTtY9LFOSFucoOZzO9KwEUYinWkSyJUr7QYR1W1EIKxoyhd2AaLGjQTEiVo6fBcLwkYPEx2lGNaUSiEqVikrRCbFmZYwNEmI86VrsmU6laMOIcEqJKgwzM+0pKlQIAo3qE+gSpUqAqM+mlEqURCHKfBJRoRqb+fK0rTchfqOhKjHi78S/UemXqxYe/8HCn9baftOnAx4un2iDq6DNWOv2MQftco6M2QZOo+Dh/f7Q0qMM2PLw/OYEqJE0kryhNEp0hANnTDQsmLbTdpKLiZgc4pyieU7MLucIYUah1ec7HSd/MO+V2eUKd0D2U7+JSKtsBWmHSQDljMBuojVcWgXDqI9KO8y2K4dmbHJW0s5ZdzIJzIpBK5gqX30uLEObqIPAo7Ds/9NnFNsfsl8GLmUqhos+YQ0zoscJdHb0dNkz8fDe8PpNSbJ8JwXGfQZ8dwOsJqMMz8799bjHXf4C45+068CylHf8AtwMNwP0HThZJz+3UNWPBM1WMsmv0GrNjDWrY6SOrCsOD3fvqkqc85sNGJBEv1MODf4ptNSbIb82NElao4ytKlTadoGroG/mBAJSdqWmIYFE7E7cW3E7WEGpaK8KuMLZ3EZGIWnBviXNHkD6xpzI8wJsYuiU/nKOf3O/TLIx6QSo0gGi7aVf6Qfknejrcs0dotJlxipT5nEZtqkqfOhqk2sz4Bm/PgRjGbJ8PgSbiZ+JGOlqma9A0dcfMj9KGqRT63WtHSZn+hnS9FnN9a+oPAMTYev39DW/aIVwKB+s6RODv71i0GLFfaSGrAIx8HqszGNoergZ1nJDRYsUOOrEjwcAkOJ9xDgt5BHg1ubIfoaDRIZLHS9dydocOlcIpPEqjgZh9WbNV0xWCOlEY9GSsrATtQekRjxSL8p2opuJ2p5NHStEjtLB8O3RHBu+Ia4fLzaOpynyOB0PjmrBPj8OZR+hE0Zsn20vg+PBQdBpjRlZu6Bo6fGYa+u+3hN4Nh/EGXq8ph9b763Fm46QBLIssRATqgjRf/CIbiPRxkVtcVNOWALyiRk05oW3hkCsQeId7Su3B3oJEkNHZBc5nefUoOWKDTHt6s7CdvO2g/LC3sEFexl3OJiOsRW8AJ3ZSLFjNz3YS5ejbN3y4cpdvC95cFR0xNuErV+xDgVE3/MHQ03zuR4cPzGbOF2yR1ufHi+AWT4TjOFgPpy5Z1iHOdyVt5uPnO9O0j00R3EYAw9V1yZrIx72ZVWdPvRHnHqoSPnjHyy7YYSUXACRlHWdliW9yrzgOUqHPnknWWdyU4hzbO9rNT2Qr3vUKNk7CHSSzYx4CQjcgJ3J3olz0NmNCJ3GmVdnHqMxlA9oWhJHrZUlEB4IVe8iUueTzUGvez7IqWBidrxUvqIvXBCTmSuxZW+1kpunO4lubhS8od4wtTvX7ReHPJ20R5Io6336h0o9MnblXKDtbP7wflHozso9NKTUbNZCNe2qVXARTsCXkXblPWd9gW2IgoL2nnFmziKZzuJeBbzv4jso8twDe0r68Q2FR6SdSM4QvMlQo1djPLC+rYdNBthGVvOUTMpKSkAIh1Vy4z3Jt8L9kOClvDMxe+hqqfkm3oujPu4tRjDfwViw5OtcCxnw3/jfAbN2Z3M6pLQi90aN2ZMpdLGZ24lmFj1LUYEeF0z0dF259Qywj052I9GG2aL7EJLBCiFXE7MA8Q6eJ2otyj04iuDh3ivFEruqgOjHpzsQjAlJidqduU9pj2io2GsVQ9G9Qd/RO1O3O3EeUoOlmPQg9CV8pXpBMXJggwBifCxHkmKrvP9MAqWT6SkpKJivEIHpwgJ7jFy4Mu4qU6o68KXL0yjvTCxjH6sYIWXLuUeI+8+ERdGMVOwfXAxhAJWmIYw78rCVKRCCwgBKdI9CdiFUUbJ2p0MU0qXe6zLJAWzgHPO6nIcIXSxXJA9U7JO0SgpzgASaRvVTkLi51AjdDnjBeugQq5GDo0h0MF2ZXrKR2c8kJMuGv382aOjDC0rqz6DUXgYvRB/6Bni40WrHV0NdzCkxSw5IY+1kR13wZV0IUSGc98ygHQ0AyhOVftXBliyjNyTHL0WPEULlEPugxUHIn1GXvNhKgRIkzN/EkF/b1Aujx1yq7c5sCoeGIhC3YiZwNYiKIg0m+lyyOj9hpUJUw8c+K1CRnKwgAI6gc46aKOld0IEIKTqDjQrt0utDSTYNuyIVAFXzICBNvy48Y+8D7QvAKIyugUJcJ8Zitup4Q31n7NAiwh2E/DaESKKv1sw1ONvOo+YQZYIvOZ/Ti9RExOjom1deEJguEWpuixFl9djM5w0SXK28SuoGnQ9kzZpWZUTEN+VKlRCVKHgQKQM7EehKTCYLNiPQaB6JLioE3GPmj3M2mAy1bkGCOManklHSHRS7uUKJr3UetwHeHcy/7RKd4u2MF2907L3BqH6oCWS5cUb9Mly+C9Ll6Liy+YiA0F2rhE2rnq5zDtsCWNsg7wZaGZuOgSsGIVIQkYLZX8sz4KkNwCoaVN6Nexof7AZJhEeku9C7EFXmD8+hi2THjmORZYF28vnKY3NL2IROBh4EohFly9nuxrKNuts2kL4CWaByylfUFQ+kqyGrlny6LBjCuY0eMuYS8kN7zpBDZZMUdoanMjqrnmMWaFhUPyMDYCWGXYmOnWHUwvLdNcEYFAyfqzDmMuY5QZzoM+U4j9v8AuMWXSpd8+fHQ0dJP1N4EdYX5X3laEslZnyvunxobIadNsOpLFKJ3hMyFkHE52YF3dbjHU5KiRVM6KjM5dxRT2TFjS9DQuO/Ilw1ZA7IsZcuOuG3Aj6E2pZosxDZGFhokpKiDvXAlZ2J2iL5RHbEt3J2p2UejEjCJYfJU6UK9nApsssMEdzFpmUnPKN5b6gAw8vA6rE+bKIxO+55gGEqwg4WhS7EKoTimHFdPWcz0kSJFlmDv++iXRjBUQas3pu8oKewL6itdnXsbRB5OqZqhAQy8ADqwxsmm2Uwh1tbfOilTGUrbEFMEbahK/BPYks6DbpcfsvM3UubJR0hRzDTAN+5sCV0Gv9VoMpn201IxyN+CVEsitzjM7L6FOsdcNtAy0jHukYUi6BQrEEUpkiDFhdUMykEdWKXWAVE4OqCfORubeiw1Zaz+s6VTqqfvj9LS4pFUJKpHrR6k6iBp9E7kIUlkJZ+lyszEMElIEL6+UjCxRX5EuaJpX6DFhFl6LPkIS4sMCTNJmDHRDJ4i0QdFiXK6rS8w0WT1Y8aB0GJnpsYs+Iy4wWGq4OyYtF6MT4RiwaLFl2Rr4GrosTLzkqVKlTAm85ITEozsTsodLgYxY7Qn1oSkzXSBJtnvJUKaQ6nRmWqSmBVbjeYwDVcYSQ0uXMloG23iBoeiWwq6CLTwOtt3u8K7tCMj1TqQpavhHQ5lQi+qaURqKVKBARKQNFiCn6iMrUyz8KOmJsmcdHEWsFzBLj9iVD6QJoVcyNW8HLeynbTsp2kQ5Iqh5peTYncndnPLj3oNmmo27o7w50YvYw2UzKSiW+cEm3eUGU5jjn+kX1nklOspKY+/2wm3Vl+qPWx7l+SKG6d/AzdF3lKu7CmKUzS91O7GsK64rKeRK5K9Nvs5yxJvFE+eVgQ5wukIJ9+XMX4hi/ECpcUhokEljg2zDyJcqCOlZhDU5uurq6MF6DMk7TJCXLiYnTHhBxFqEbJaKsgx0dp8WL0vQsdh0SXpdS5sifH/AMaDocaaLUd3XAOjGnNHrfLnehry7dVcrzYjWoBQdiLCl67ZvCbW7cRK4ZXXE6pUsEBgqjNz6AbIBBS1iQXNmjvJ3sp7pjbAtmVBeqLnYq5IDR9qMgjMbX5kT2Iy2w8iVUSVNOUt3IvygkbXmHRuh5M93O8i7vjrlgY5r3Es7rMebCK9WbV1X7jKyVMWbnkFHPW5Yc0jN2ZTym0OX7zsSkJI6Qh9P7zASoaITO7+K0dMRhuew+YR0Y0w3fuw21YIRSFGisJCfXgMp0lHSMgDVyYH0oHSI6S42iTlKV8Q6GiyRKVvkx0IxPZQkYBJlmCbhOaEC30lfXGxuhhlfWHUZg3l0IacoTzh0UOqSvWIlLvnLNLIza9SbOlVowPXBiEXQWfCYYOJcEi6UHVjPiPtoOiRY/TBH/yMZZ0TsTtztTtQuSA7YpKSkr0hXlfpypUCM+TKmI6DEGfOBKNKlamwlSok2aGpUpKnOgFGgEohowPqkpKSkpAXhUSkolRlIalSpUJ9Ng9KVokqFVzn/WgaVMNOZUdGbbt++jpU+V9qENVqNyfsoyokY1PkH76OqS9f1j0XXbhh9zqrRe9AYOZGVKiht6BDJK0Y68iGppohETD8QMRKdJ2IQ2got3NJh2jftDJCQHWAvCzzi+rGutgp3SjZR62Uec3JGOgSJO2Jz1VHvy5Ncj6gAu4NHZzt4PskMCGQGi8aHcRB0Yp8dqMdG38QNAb4SMNHafFahpvS6SqVruwUXaOrPk6pptnydQjoDRIwYmf0tK15Edhw1Thm9MQ1Y7aAMNfnp8RqxMQ2eX3laVEmHlz4XR0Y/T++lyowWP601NDM7ys/e4dHxPvomhJWn65h0qJUpWhCMdI+SGGiok+S1qomn7EHgMz9GYn21JcXDxDStD6ptytHT7yBjQlRiiVEgRCYpD6ohKs7EehB4t2XhidpF4Z1Ccm2ekp3cOqhA1NyLHM3AN7SiOqyPU5Z1hOkpDnAn96dAMEg1FXjhSzS5Zwumx4u2MFHn0NclwlnyIa1Nsd+Th65Wkdds+KcIbTYas2zLspwpvNqDB0Uu8aHB7ZPiJWrtP393hy8+CvB1YynePucDBQdR+Ztly5cWJiPRfvFlxZshtez76b6MpX9MwKly4syJT6mXoujLsjA0SMv9ZCng1ZWMt4hoxz1c+JCJpmJY8QhHR14tBUOEq0IMR+5o6OiPo4iDBrUZZcglEIoiYlXyH2lEolHlFOUadp9IpfuJduSnYinNlJux1aKqU7ONYs9JXy8DeDYz5+o6bZnb1cO5wZ0TEbas2T5Ro67/iPBLhpjGX0dFl6bk2y9dsd+U0rVTteOBcQaQ1+WnwHA7Tef3mDLlxZl5EfpxZcWBMzCvWVc49WPQxNLEj2mdBRqhdiDdAgGFXQvTnIBFDJMlzhn5VonTj0oIE3JC4qdiIy3ZijUItFimMF5yN0A8onAdJj3o9eIz8oY75Q6k70YKbj2lQhfUFTY6CGZmVBiGV41Xo/RpqjotEd8KUOfNqujjtkSVos+eza4GoN+JDVcdpl4n2hoxY7T2tN6MGJ8ohrRK49jLJLlwZcKogIIgJ3iPTSwpgCudtHrzvzuQsXUmPnrLOmyxxm9ydlnZYeIMGjE7TK94yNgRdFOUdtGBho+VI8A6kpGYRdlO/Ku8M7kA6zvTuR60KnuSoTuTuzuzHvBs5UBCLppK6o3Gcr5Gk9kZGEzeaTRZkyQrDzR421I92ldzzqKUu+YRTznlpBlcm5/MG5TtSnSVgBtD2uv3gOkREwOkrnNAhAMtEoEwBgJWIraV9pU+X7xl2p0MYA+ugOkZExJ2gDdoS3aM753Io5sSwPKV8MBN0oc0vmZZ3DmJuajEvrgXcYBmMJDc5byS7YRCpjCVagJeisVLNWPPlCMSVNnNmJKiaM/M63R2jvxZVcGRN14/ENLIx2ny+poqJ8B9of+e9pdPHTY4SM6xuXo2x3E89PmgwJDUrrXYlbrdnanZnbj0o9CH9aUNM/pN1DedqMrDEpsQ6M7c7ejJvNmPRjB1lST7zKAZqvOUEUpWCV6SkYtJ7g4MAlcAqOm7U7E+i0IdqdqHShHnQvooGJiYnpAsM0lZXpKEofvYn67ppWjVS4+k61J7f3oIaJPjMVv1NXS7TpO0uCbxij2+tC1LQjolgwkPdlwS4jtKICHd94aHgQ6qEjoO70IxS46E1AEQgUxSI6TtT6AIty1pheu0sOY746ILnjFhiwEh0yUQRMIUUgPMZ5Z3IPCkuUGZ3oiKRqmZfVjlxNNsBZ1CVHXZPa4W2Oy7tTX+86aXL1//9k=;" vertex="1" parent="1">
                    <mxGeometry width="520" height="304" as="geometry"/>
                </mxCell>
            </root>
        </mxGraphModel>
    </diagram>
</mxfile>